<svg width="64" height="64" viewBox="0 0 64 64" fill="none" xmlns="http://www.w3.org/2000/svg">
<circle cx="32" cy="32" r="32" fill="white"/>
<path d="M22.7663 25.1296C22.6304 25.1296 22.5474 25.2126 22.5474 25.3635V26.5485H20.7286V25.3635C20.7286 25.2126 20.6455 25.1296 20.5097 25.1296C20.3738 25.1296 20.2908 25.2126 20.2908 25.3635V28.2239C20.2908 28.3749 20.3738 28.4579 20.5097 28.4579C20.6455 28.4579 20.7286 28.3749 20.7286 28.2239V26.956H22.5474V28.2239C22.5474 28.3749 22.6304 28.4579 22.7663 28.4579C22.9021 28.4579 22.9852 28.3749 22.9852 28.2239V25.3635C22.9776 25.2126 22.9021 25.1296 22.7663 25.1296ZM25.0078 26.7522L26.2682 25.4843C26.3286 25.4239 26.3512 25.3786 26.3512 25.3107C26.3512 25.2126 26.2833 25.1296 26.1625 25.1296C26.1021 25.1296 26.0493 25.1522 25.9965 25.2051L24.7587 26.4428C24.6908 26.5107 24.6229 26.5485 24.5248 26.5485H24.2682V25.3635C24.2682 25.2126 24.1852 25.1296 24.0493 25.1296C23.9135 25.1296 23.8304 25.2126 23.8304 25.3635V28.2239C23.8304 28.3749 23.9135 28.4579 24.0493 28.4579C24.1852 28.4579 24.2682 28.3749 24.2682 28.2239V26.956H24.4946C24.5927 26.956 24.6606 26.9937 24.7286 27.0617L26.0418 28.3749C26.1021 28.4353 26.1474 28.4503 26.2153 28.4503C26.3361 28.4503 26.4116 28.3598 26.4116 28.2541C26.4116 28.1862 26.3814 28.1334 26.321 28.0654L25.0078 26.7522ZM27.7323 21.19C27.5361 21.2956 27.2644 21.3635 27.0078 21.3635C26.5852 21.3635 26.321 21.1824 26.321 20.8579C26.321 20.5711 26.5474 20.3447 27.0078 20.3447C27.2493 20.3447 27.4682 20.3824 27.7323 20.4579V21.19ZM27.0682 18.5333C26.6984 18.5333 26.3663 18.6239 26.155 18.7145C25.9738 18.79 25.8984 18.8881 25.8984 19.0315C25.8984 19.1975 26.0267 19.3183 26.1776 19.3183C26.2531 19.3183 26.3361 19.2881 26.4191 19.2579C26.555 19.205 26.7889 19.1447 27.0154 19.1447C27.521 19.1447 27.7323 19.3333 27.7323 19.7258V19.99C27.438 19.9145 27.204 19.8767 26.9248 19.8767C26.0946 19.8767 25.687 20.3522 25.687 20.873C25.687 21.4768 26.1399 21.9296 26.9474 21.9296C27.5738 21.9296 28.0493 21.7183 28.2455 21.59C28.3361 21.5296 28.3663 21.4692 28.3663 21.3409V19.7334C28.3738 18.9107 27.8984 18.5333 27.0682 18.5333ZM35.0304 20.6692C34.8795 20.6692 34.7965 20.7598 34.7437 20.8579C34.6304 21.1069 34.3889 21.2805 34.0569 21.2805C33.5889 21.2805 33.3097 21.0013 33.272 20.5786C33.2493 20.3522 33.2493 20.0956 33.272 19.8767C33.3097 19.4617 33.5889 19.1749 34.0569 19.1749C34.3889 19.1749 34.6304 19.3484 34.7437 19.5975C34.804 19.6956 34.8871 19.7862 35.0304 19.7862C35.2191 19.7862 35.355 19.6654 35.355 19.4843C35.355 19.3862 35.3172 19.2881 35.2569 19.1824C35.0606 18.8277 34.6455 18.5333 34.0418 18.5333C33.2267 18.5333 32.6833 19.0466 32.6154 19.7786C32.5927 20.0201 32.5927 20.4277 32.6154 20.6692C32.6833 21.4013 33.2267 21.9145 34.0418 21.9145C34.6455 21.9145 35.0606 21.6277 35.2569 21.2654C35.3172 21.1598 35.3474 21.0617 35.3474 20.9635C35.3474 20.79 35.2191 20.6617 35.0304 20.6692ZM20.2078 21.3258L19.0682 20.1862L20.1474 19.1069C20.2304 19.0239 20.2757 18.9409 20.2757 18.8428C20.2757 18.6843 20.1625 18.5635 19.9965 18.5635C19.8984 18.5635 19.8304 18.6013 19.7399 18.6918L18.6455 19.7862C18.5852 19.8466 18.5248 19.8767 18.4342 19.8767H18.2078V18.9032C18.2078 18.6843 18.0795 18.556 17.8757 18.556C17.672 18.556 17.5437 18.6843 17.5437 18.9032V21.5296C17.5437 21.7484 17.672 21.8768 17.8757 21.8768C18.0795 21.8768 18.2078 21.7484 18.2078 21.5296V20.4805H18.3965C18.4795 20.4805 18.5474 20.5183 18.6078 20.5711L19.7776 21.7409C19.8757 21.839 19.9512 21.8768 20.0493 21.8768C20.2229 21.8768 20.3437 21.756 20.3437 21.5824C20.3361 21.4994 20.2908 21.4088 20.2078 21.3258ZM31.3172 20.5786C31.2795 20.9937 31.0154 21.2805 30.5399 21.2805C30.2908 21.2805 29.9814 21.2051 29.8304 21.0994V19.356C29.9814 19.2503 30.2908 19.1673 30.5399 19.1673C31.0154 19.1673 31.2795 19.4541 31.3172 19.8692C31.3323 20.0881 31.3399 20.3522 31.3172 20.5786ZM30.5625 18.5333C29.9889 18.5333 29.521 18.7371 29.3399 18.8503C29.1889 18.9409 29.1738 19.0088 29.1738 19.2654V22.6315C29.1738 22.8503 29.3021 22.9786 29.5059 22.9786C29.7097 22.9786 29.838 22.8503 29.838 22.6315V21.756C30.0342 21.8541 30.3361 21.922 30.6229 21.922C31.3852 21.922 31.9059 21.4164 31.9814 20.6843C32.004 20.4352 32.004 20.0277 31.9814 19.7786C31.9059 19.039 31.3776 18.5333 30.5625 18.5333ZM19.0606 27.8541C18.8191 27.9824 18.487 28.0805 18.1852 28.0805C17.6418 28.0805 17.3323 27.8466 17.3323 27.4541C17.3323 27.0994 17.604 26.8277 18.1852 26.8277C18.472 26.8277 18.7135 26.873 19.0606 26.9711V27.8541ZM18.2833 25.0994C17.9059 25.0994 17.5361 25.2051 17.3323 25.2956C17.1965 25.356 17.1361 25.4164 17.1361 25.522C17.1361 25.6352 17.2267 25.7183 17.3323 25.7183C17.3852 25.7183 17.4455 25.6956 17.5059 25.6654C17.6569 25.5975 17.9512 25.5145 18.238 25.5145C18.804 25.5145 19.0606 25.7409 19.0606 26.2541V26.556C18.7059 26.4503 18.4493 26.4202 18.1474 26.4202C17.3248 26.4202 16.9021 26.8956 16.9021 27.4315C16.9021 28.0579 17.3776 28.473 18.1248 28.473C18.7437 28.473 19.2191 28.2541 19.3927 28.1258C19.4606 28.073 19.4833 28.0353 19.4833 27.9371V26.239C19.4908 25.4692 19.038 25.0994 18.2833 25.0994ZM15.1059 27.9975H13.8757V26.2466H15.1059C15.755 26.2466 16.0191 26.5636 16.0191 27.1069C16.0116 27.673 15.7474 27.9975 15.1059 27.9975ZM15.1587 25.8315H13.8682V24.4805H16.0191C16.1625 24.4805 16.2606 24.3975 16.2606 24.2617C16.2606 24.1334 16.1625 24.0503 16.0191 24.0503H13.8153C13.5663 24.0503 13.4304 24.1862 13.4304 24.4352V28.0353C13.4304 28.2843 13.5738 28.4202 13.8153 28.4202H15.1587C15.9814 28.4202 16.4644 27.9371 16.4644 27.0994C16.4644 26.2919 15.9814 25.8315 15.1587 25.8315ZM22.7361 19.7862H23.8154C24.3286 19.7862 24.555 20.0503 24.555 20.4956C24.555 20.956 24.3286 21.2277 23.8154 21.2277H22.7361V19.7862ZM22.5701 21.8617H23.8908C24.7437 21.8617 25.2493 21.3635 25.2493 20.4805C25.2493 19.6503 24.7437 19.1824 23.8908 19.1824H22.7361V18.1183H24.6682C24.8795 18.1183 25.0154 17.99 25.0154 17.7937C25.0154 17.605 24.8795 17.4767 24.6682 17.4767H22.5701C22.238 17.4767 22.0569 17.6579 22.0569 17.99V21.3409C22.0569 21.6805 22.238 21.8617 22.5701 21.8617ZM14.3738 19.8843L14.9776 18.1635C15.0003 18.1032 15.0229 18.0805 15.0682 18.0805C15.1135 18.0805 15.1361 18.1032 15.1512 18.1635L15.755 19.8843H14.3738ZM17.038 21.5749C17.038 21.5145 17.0304 21.4541 16.9927 21.3635L15.7701 18.0352C15.6267 17.6277 15.4078 17.4541 15.0682 17.4541C14.7286 17.4541 14.5097 17.6277 14.3663 18.0352L13.1361 21.3635C13.0984 21.4692 13.0908 21.5296 13.0908 21.5749C13.0908 21.7484 13.2267 21.8918 13.4229 21.8918C13.5814 21.8918 13.6946 21.8164 13.7625 21.6201L14.1625 20.4881H15.9738L16.3738 21.6201C16.4342 21.8088 16.555 21.8843 16.7059 21.8843C16.9021 21.8918 17.038 21.7484 17.038 21.5749Z" fill="#170030"/>
<path d="M50.6151 39.0094C50.0792 37.6509 48.7434 36.9038 47.3019 37.1679L44.3434 37.6962C43.8528 37.7868 43.5283 38.2547 43.6113 38.7453C43.7019 39.2358 44.1698 39.5604 44.6604 39.4773L47.6189 38.949C48.3208 38.8207 48.7585 39.2434 48.9321 39.6811C49.1057 40.1188 49.0755 40.7226 48.4717 41.1075L44.1245 43.9226C43.7245 44.1868 43.2264 44.2019 42.8113 43.9754C42.3887 43.749 42.1396 43.3264 42.1396 42.8434V33.7113C42.1396 33.2132 41.7396 32.8057 41.234 32.8057C40.7358 32.8057 40.3283 33.2132 40.3283 33.7113V42.8283C40.3283 43.983 40.9321 44.9943 41.9434 45.5452C42.4113 45.8018 42.917 45.9301 43.4226 45.9301C44.0038 45.9301 44.5849 45.7641 45.1057 45.4245L49.4528 42.6094C50.683 41.817 51.1509 40.3679 50.6151 39.0094ZM35.3321 37.1604L32.3736 37.6887C31.883 37.7792 31.5585 38.2472 31.6415 38.7377C31.7321 39.2283 32.2 39.5528 32.6906 39.4698L35.649 38.9415C36.3509 38.8132 36.7887 39.2358 36.9623 39.6736C37.1358 40.1113 37.1057 40.7151 36.5019 41.1L32.1547 43.9151C31.7547 44.1792 31.2566 44.1943 30.8415 43.9679C30.4189 43.7415 30.1698 43.3188 30.1698 42.8358V35.9075C30.1698 34.7528 29.566 33.7415 28.5547 33.1906C27.5434 32.6396 26.3585 32.6849 25.3924 33.3113L14.4717 40.3905C13.2415 41.1905 12.7811 42.6396 13.317 43.9981C13.8528 45.3566 15.1887 46.1037 16.6302 45.8396L26.1698 44.1264C26.6604 44.0358 26.9849 43.5679 26.9019 43.0773C26.8113 42.5868 26.3434 42.2622 25.8528 42.3453L16.3132 44.0585C15.6113 44.1868 15.1736 43.7641 15 43.3264C14.8264 42.8886 14.8566 42.2849 15.4604 41.9L26.3811 34.8208C26.7811 34.5566 27.2792 34.5415 27.6943 34.7679C28.117 34.9943 28.366 35.417 28.366 35.9V42.8283C28.366 43.983 28.9698 44.9943 29.9811 45.5452C30.4491 45.8018 30.9547 45.9301 31.4604 45.9301C32.0415 45.9301 32.6226 45.7641 33.1358 45.4245L37.483 42.6094C38.7132 41.8094 39.1736 40.3604 38.6377 39.0019C38.1094 37.6434 36.7736 36.9038 35.3321 37.1604Z" fill="#009C32"/>
</svg>
