<svg width="16" height="16" viewBox="0 0 16 16" fill="none" xmlns="http://www.w3.org/2000/svg">
<path d="M13.0208 2.97461C11.4855 2.97461 10.2178 4.14202 10.0586 5.63573C11.1729 6.32701 11.9166 7.56133 11.9166 8.96629V10.9746C11.9166 11.7073 11.5864 12.3807 11.0458 12.8294V15.5267C11.0458 15.7856 11.2556 15.9954 11.5145 15.9954H14.527C14.7859 15.9954 14.9958 15.7856 14.9958 15.5267V10.8648C15.5788 10.6686 15.9999 10.1167 15.9999 9.46836V5.95376C15.9999 4.31108 14.6634 2.97461 13.0208 2.97461Z" fill="white"/>
<path d="M13.0208 2.97434C13.8422 2.97434 14.5104 2.30612 14.5104 1.48475C14.4356 -0.488692 11.6058 -0.488129 11.5312 1.48478C11.5312 2.30612 12.1995 2.97434 13.0208 2.97434Z" fill="white"/>
<path d="M9.48948 4.49741C9.48948 3.67603 8.82127 3.00781 7.99989 3.00781C6.02646 3.08269 6.02699 5.91241 7.99992 5.987C8.82123 5.987 9.48948 5.31878 9.48948 4.49741Z" fill="white"/>
<path d="M8.00024 5.9873C6.46496 5.9873 5.19734 7.15471 5.03809 8.64843C6.15237 9.33971 6.89609 10.574 6.89609 11.979V12.4811C6.89609 13.2136 6.56593 13.8871 6.02524 14.3358V15.5269C6.02524 15.7858 6.23512 15.9956 6.49399 15.9956H9.50649C9.76537 15.9956 9.97524 15.7858 9.97524 15.5269V12.3713C10.5583 12.1751 10.9794 11.6232 10.9794 10.9748V8.96646C10.9794 7.32374 9.64296 5.9873 8.00024 5.9873Z" fill="white"/>
<path d="M2.97916 8.99902C1.33084 8.99902 0 10.3332 0 11.9782V12.4802C0 13.1286 0.421062 13.6805 1.00416 13.8767V15.5261C1.00416 15.785 1.21403 15.9948 1.47291 15.9948H4.48541C4.74428 15.9948 4.95416 15.785 4.95416 15.5261V13.8767C5.53725 13.6805 5.95831 13.1286 5.95831 12.4802V11.9782C5.95834 10.3301 4.62453 8.99902 2.97916 8.99902Z" fill="white"/>
<path d="M2.97885 8.99973C3.8002 8.99973 4.46845 8.33151 4.46845 7.51013C4.39357 5.5367 1.56385 5.53726 1.48926 7.51017C1.48929 8.33151 2.15751 8.99973 2.97885 8.99973Z" fill="white"/>
</svg>
