<svg width="16" height="16" viewBox="0 0 16 16" fill="none" xmlns="http://www.w3.org/2000/svg">
<path d="M6.79551 13.0602C6.91084 13.2168 7.08818 13.3155 7.28218 13.3308C7.29951 13.3322 7.31684 13.3328 7.33351 13.3328C7.50951 13.3328 7.67951 13.2635 7.80484 13.1375L11.6382 9.30418C11.8989 9.04351 11.8989 8.62218 11.6382 8.36152C11.3775 8.10085 10.9562 8.10085 10.6955 8.36152L7.41151 11.6455L6.03751 9.77218C5.81951 9.47551 5.40217 9.41085 5.1055 9.62884C4.80884 9.84684 4.74417 10.2642 4.96217 10.5608L6.79551 13.0602Z" fill="white"/>
<path d="M14 2H13.3333V0.666667C13.3333 0.298667 13.0347 0 12.6667 0H12C11.632 0 11.3333 0.298667 11.3333 0.666667V2H4.66667V0.666667C4.66667 0.298667 4.368 0 4 0H3.33333C2.96533 0 2.66667 0.298667 2.66667 0.666667V2H2C0.897333 2 0 2.89733 0 4V14C0 15.1027 0.897333 16 2 16H14C15.1027 16 16 15.1027 16 14V4C16 2.89733 15.1027 2 14 2ZM14.6667 14C14.6667 14.3673 14.3673 14.6667 14 14.6667H2C1.63267 14.6667 1.33333 14.3673 1.33333 14V6.69333H14.6667V14Z" fill="white"/>
</svg>
