<svg width="81" height="76" viewBox="0 0 81 76" fill="none" xmlns="http://www.w3.org/2000/svg">
<path d="M73.1529 33.3607L74.1962 32.749L74.0902 70.3958L73.0469 71.0032L73.1529 33.3607Z" fill="#00B2FF"/>
<path d="M18.3125 1.64459L19.3558 1.03711L74.1958 32.7493L73.1525 33.361L18.3125 1.64459Z" fill="#5087BA"/>
<path d="M73.1526 33.3609L73.0466 71.0034L18.2065 39.2913L18.3126 1.64453L73.1526 33.3609Z" fill="#3CB7EC"/>
<path d="M73.1526 39.7125L73.0466 49.2155L18.2065 17.5034L18.3126 7.99609L73.1526 39.7125Z" fill="#83D5F9"/>
<path d="M70.1923 55.9469C70.1923 56.5841 69.87 56.7073 69.3441 56.41L68.5935 55.9852C68.3413 55.8446 68.1323 55.6378 67.9888 55.387C67.8453 55.1362 67.7728 54.851 67.7792 54.562V52.5697C67.7792 52.0557 67.9743 51.7201 68.5892 52.0854L69.3441 52.5102C69.6035 52.6572 69.8189 52.871 69.9681 53.1294C70.1172 53.3878 70.1946 53.6815 70.1923 53.98V55.9469ZM69.5519 55.4541V53.6954C69.5542 53.5798 69.525 53.4657 69.4675 53.3654C69.4099 53.2651 69.3263 53.1824 69.2254 53.1262L68.7419 52.8458C68.5214 52.7184 68.4323 52.8033 68.4323 53.0455V54.8084C68.4239 54.9262 68.4509 55.0438 68.5099 55.146C68.5688 55.2482 68.657 55.3304 68.7631 55.3819L69.2084 55.6368C69.3611 55.726 69.5519 55.7812 69.5519 55.4541Z" fill="#83D5F9"/>
<path d="M67.3086 54.2772C67.3086 54.9144 66.982 55.0376 66.4604 54.7403L65.7097 54.3155C65.4573 54.1763 65.2479 53.9704 65.1043 53.7202C64.9607 53.47 64.8885 53.1851 64.8955 52.8966V50.9C64.8955 50.3902 65.0906 50.0503 65.7055 50.4157L66.4561 50.8405C66.7158 50.9861 66.9316 51.199 67.0808 51.4568C67.23 51.7147 67.3072 52.008 67.3043 52.3061L67.3086 54.2772ZM66.6682 53.7887V52.03C66.6691 51.9146 66.6393 51.801 66.5819 51.701C66.5246 51.601 66.4416 51.518 66.3416 51.4607L65.8582 51.1846C65.6376 51.0571 65.5443 51.1379 65.5443 51.3842V53.143C65.5369 53.2611 65.5648 53.3788 65.6244 53.481C65.6841 53.5831 65.7729 53.6651 65.8794 53.7165L66.3035 53.9756C66.4773 54.0606 66.6682 54.1115 66.6682 53.7887Z" fill="#83D5F9"/>
<path d="M64.4249 52.6087C64.4249 53.2502 64.0984 53.3734 63.5767 53.0718L62.8261 52.6469C62.5748 52.5069 62.3665 52.3006 62.2237 52.0506C62.081 51.8005 62.0092 51.5161 62.0161 51.2281V49.2315C62.0161 48.7217 62.2069 48.3818 62.8261 48.7514L63.5767 49.1762C63.8358 49.3225 64.0511 49.5356 64.2002 49.7933C64.3494 50.051 64.4269 50.344 64.4249 50.6418V52.6087ZM63.7846 52.1202V50.3615C63.7853 50.245 63.7551 50.1305 63.697 50.0297C63.6388 49.9289 63.5549 49.8454 63.4538 49.788L62.9745 49.5118C62.754 49.3844 62.6607 49.4651 62.6607 49.7115V51.4745C62.6537 51.5914 62.6814 51.7079 62.7402 51.8092C62.7991 51.9104 62.8865 51.992 62.9915 52.0437L63.4368 52.3028C63.5895 52.3921 63.7846 52.443 63.7846 52.1202Z" fill="#83D5F9"/>
<path d="M61.549 50.9372C61.549 51.5787 61.2267 51.7019 60.7009 51.4045L59.9502 50.9797C59.6944 50.8387 59.4825 50.6295 59.338 50.3754C59.1936 50.1212 59.1222 49.8319 59.1317 49.5396V47.543C59.1317 47.0332 59.3268 46.6934 59.9417 47.0629L60.6966 47.4878C60.9557 47.634 61.1709 47.8471 61.3201 48.1048C61.4692 48.3625 61.5468 48.6555 61.5448 48.9534L61.549 50.9372ZM60.9087 50.4487V48.69C60.9109 48.5743 60.8817 48.4603 60.8242 48.36C60.7667 48.2597 60.683 48.177 60.5821 48.1207L60.0986 47.8404C59.8781 47.7129 59.7891 47.7936 59.7891 48.04V49.803C59.7818 49.9206 59.8093 50.0377 59.8681 50.1397C59.927 50.2417 60.0145 50.3241 60.1199 50.3765L60.5439 50.6314C60.7009 50.7206 60.8959 50.7715 60.8959 50.4487H60.9087Z" fill="#83D5F9"/>
<path d="M57.5074 48.61C57.5074 49.2472 57.1808 49.3704 56.6592 49.073L55.9085 48.6482C55.6558 48.5084 55.4462 48.3017 55.3026 48.0508C55.159 47.7999 55.087 47.5143 55.0943 47.2251V45.2328C55.0943 44.7187 55.2893 44.3831 55.9043 44.7485L56.6549 45.1733C56.9146 45.3199 57.1303 45.5336 57.2795 45.7922C57.4287 46.0507 57.5059 46.3445 57.5031 46.6431L57.5074 48.61ZM56.8839 48.1172V46.3585C56.8853 46.243 56.8557 46.1293 56.7983 46.0292C56.7408 45.9291 56.6577 45.8462 56.5574 45.7893L56.0739 45.5089C55.8534 45.3814 55.7601 45.4664 55.7601 45.7086V47.4715C55.7526 47.5897 55.7805 47.7073 55.8402 47.8095C55.8999 47.9117 55.9886 47.9937 56.0951 48.045L56.5192 48.2999C56.6761 48.3891 56.8839 48.4443 56.8839 48.1172Z" fill="#83D5F9"/>
<path d="M54.624 46.9403C54.624 47.5775 54.2974 47.7007 53.7758 47.4033L53.0209 46.9785C52.7696 46.8384 52.5613 46.6322 52.4186 46.3821C52.2758 46.1321 52.204 45.8477 52.2109 45.5597V43.563C52.2109 43.0533 52.4017 42.7134 53.0209 43.0788L53.7716 43.5036C54.0306 43.6499 54.2459 43.8629 54.395 44.1206C54.5442 44.3783 54.6218 44.6713 54.6198 44.9692L54.624 46.9403ZM53.9836 46.4475V44.6888C53.9845 44.5729 53.9543 44.4589 53.8961 44.3587C53.8379 44.2586 53.7539 44.176 53.6528 44.1195L53.1736 43.8434C52.9531 43.716 52.8598 43.7967 52.8598 44.0431V45.8018C52.8525 45.9194 52.88 46.0365 52.9388 46.1385C52.9977 46.2405 53.0852 46.3229 53.1906 46.3753L53.6147 46.6344C53.7885 46.7236 53.9836 46.7746 53.9836 46.4475Z" fill="#83D5F9"/>
<path d="M51.7357 45.2911C51.7357 45.9325 51.4134 46.0515 50.8875 45.7541L50.1369 45.3293C49.8851 45.1894 49.6762 44.9834 49.5327 44.7333C49.3892 44.4833 49.3166 44.1988 49.3226 43.9104V41.8926C49.3226 41.3828 49.5177 41.043 50.1326 41.4126L50.8875 41.8374C51.1469 41.9833 51.3624 42.1963 51.5116 42.4541C51.6608 42.7118 51.7382 43.005 51.7357 43.303V45.2911ZM51.0953 44.8025V43.0438C51.0975 42.9277 51.0682 42.8131 51.0108 42.7121C50.9533 42.6112 50.8697 42.5277 50.7688 42.4703L50.2853 42.1942C50.0648 42.0668 49.9757 42.1475 49.9757 42.3939V44.1568C49.9682 44.2739 49.9956 44.3906 50.0545 44.492C50.1134 44.5933 50.2012 44.6748 50.3065 44.7261L50.7518 44.9852C50.9045 45.0532 51.0953 45.1042 51.0953 44.7813V44.8025Z" fill="#83D5F9"/>
<path d="M48.8521 43.5937C48.8521 44.2352 48.5255 44.3584 48.0039 44.061L47.2532 43.6362C47.0008 43.497 46.7914 43.2911 46.6478 43.0409C46.5042 42.7907 46.432 42.5058 46.4389 42.2173V40.2207C46.4389 39.7109 46.634 39.3711 47.249 39.7407L47.9996 40.1655C48.259 40.3114 48.4745 40.5244 48.6237 40.7822C48.7729 41.04 48.8503 41.3331 48.8478 41.6311L48.8521 43.5937ZM48.2117 43.1052V41.3465C48.213 41.231 48.1834 41.1173 48.126 41.0172C48.0686 40.9171 47.9854 40.8342 47.8851 40.7772L47.4017 40.4968C47.1811 40.3694 47.0878 40.4501 47.0878 40.6965V42.4595C47.0815 42.5774 47.1098 42.6946 47.1694 42.7966C47.229 42.8985 47.3171 42.9807 47.4229 43.033L47.8469 43.2879C48.0208 43.3856 48.2117 43.4365 48.2117 43.1137V43.1052Z" fill="#83D5F9"/>
<path d="M44.8228 41.2731C44.8228 41.9103 44.4962 42.0335 43.9746 41.7361L43.2197 41.3113C42.9681 41.1705 42.7596 40.9636 42.6168 40.7128C42.4741 40.4619 42.4025 40.1768 42.4097 39.8882V37.8958C42.4097 37.3818 42.6005 37.0462 43.2197 37.4116L43.9703 37.8364C44.228 37.9854 44.442 38.1996 44.5908 38.4576C44.7397 38.7156 44.8182 39.0082 44.8185 39.3062L44.8228 41.2731ZM44.1824 40.7803V39.0216C44.1838 38.9056 44.1537 38.7914 44.0955 38.6912C44.0372 38.591 43.953 38.5084 43.8516 38.4524L43.3724 38.172C43.1518 38.0445 43.0585 38.1295 43.0585 38.3716V40.1346C43.0513 40.2522 43.0788 40.3693 43.1376 40.4713C43.1964 40.5733 43.284 40.6557 43.3893 40.7081L43.8346 40.963C43.9873 41.0437 44.1824 41.1074 44.1824 40.7803Z" fill="#83D5F9"/>
<path d="M41.9349 39.6034C41.9349 40.2406 41.6126 40.3638 41.0868 40.0664L40.3361 39.6416C40.0843 39.5017 39.8754 39.2957 39.7319 39.0456C39.5884 38.7956 39.5158 38.5111 39.5218 38.2227V36.2261C39.5218 35.7164 39.7169 35.3765 40.3319 35.7418L41.0868 36.1667C41.3461 36.3126 41.5616 36.5256 41.7108 36.7833C41.86 37.0411 41.9374 37.3343 41.9349 37.6323V39.6034ZM41.2946 39.1106V37.3519C41.2964 37.2363 41.267 37.1224 41.2095 37.0222C41.152 36.922 41.0686 36.8393 40.968 36.7826L40.4845 36.5065C40.264 36.3791 40.1749 36.4598 40.1749 36.7062V38.4649C40.1665 38.5827 40.1935 38.7002 40.2525 38.8025C40.3115 38.9047 40.3997 38.9869 40.5057 39.0384L40.951 39.2975C41.1037 39.3867 41.2946 39.4377 41.2946 39.1106Z" fill="#83D5F9"/>
<path d="M39.0717 37.9349C39.0717 38.5721 38.7452 38.6953 38.2236 38.3979L37.4729 37.9731C37.2205 37.834 37.0111 37.6281 36.8675 37.3778C36.7239 37.1276 36.6517 36.8428 36.6587 36.5542V34.5576C36.6587 34.0479 36.8537 33.708 37.4687 34.0776L38.2193 34.5024C38.479 34.648 38.6947 34.8609 38.844 35.1188C38.9932 35.3766 39.0704 35.67 39.0675 35.968L39.0717 37.9349ZM38.4314 37.4463V35.6876C38.4335 35.5715 38.4043 35.4569 38.3468 35.3559C38.2893 35.255 38.2057 35.1715 38.1048 35.1141L37.6213 34.838C37.4008 34.7106 37.3075 34.7913 37.3075 35.0377V36.7964C37.3001 36.9145 37.3279 37.0322 37.3876 37.1344C37.4473 37.2365 37.5361 37.3185 37.6426 37.3699L38.0666 37.629C38.2236 37.7182 38.4102 37.7692 38.4102 37.4463H38.4314Z" fill="#83D5F9"/>
<path d="M36.167 36.2646C36.167 36.9061 35.8404 37.0293 35.3188 36.7319L34.5639 36.3071C34.3126 36.167 34.1043 35.9608 33.9615 35.7107C33.8188 35.4606 33.747 35.1762 33.7539 34.8882V32.8916C33.7539 32.3818 33.9447 32.042 34.5639 32.4116L35.3146 32.8364C35.5733 32.983 35.7883 33.1961 35.9374 33.4538C36.0865 33.7114 36.1643 34.0042 36.1627 34.302L36.167 36.2646ZM35.5266 35.7761V34.0174C35.528 33.9014 35.498 33.7872 35.4397 33.687C35.3815 33.5867 35.2972 33.5042 35.1958 33.4481L34.7166 33.1677C34.4961 33.0403 34.4027 33.121 34.4027 33.3674V35.1304C34.3966 35.2478 34.4245 35.3645 34.4833 35.4663C34.542 35.5681 34.6289 35.6506 34.7335 35.7039L35.1788 35.9588C35.3358 36.048 35.5266 36.0989 35.5266 35.7761Z" fill="#83D5F9"/>
<path d="M32.1381 33.9385C32.1381 34.5757 31.8115 34.6989 31.2899 34.4015L30.5393 33.9767C30.2896 33.8336 30.0836 33.6251 29.9432 33.3737C29.8027 33.1223 29.7332 32.8373 29.742 32.5494V30.5528C29.742 30.043 29.937 29.7031 30.5562 30.0727L31.3069 30.4975C31.5645 30.6465 31.7785 30.8608 31.9274 31.1187C32.0762 31.3767 32.1548 31.6694 32.1551 31.9674L32.1381 33.9385ZM31.4935 33.4457V31.6997C31.4957 31.5841 31.4665 31.47 31.409 31.3697C31.3515 31.2695 31.2678 31.1868 31.1669 31.1305L30.6834 30.8501C30.4629 30.7227 30.3739 30.8076 30.3739 31.0498V32.8128C30.3654 32.9305 30.3925 33.0481 30.4514 33.1503C30.5104 33.2526 30.5986 33.3347 30.7046 33.3862L31.15 33.6411C31.3026 33.7176 31.4935 33.7728 31.4935 33.4457Z" fill="#83D5F9"/>
<path d="M29.25 32.2684C29.25 32.9056 28.9234 33.0288 28.4018 32.7315L27.6512 32.3067C27.3988 32.1675 27.1893 31.9616 27.0458 31.7114C26.9022 31.4612 26.8299 31.1763 26.8369 30.8878V28.8912C26.8369 28.3814 27.032 28.0416 27.6469 28.4069L28.3976 28.8317C28.6575 28.9769 28.8735 29.1898 29.0228 29.4477C29.1721 29.7056 29.2491 29.9992 29.2457 30.2973L29.25 32.2684ZM28.6096 31.7756V29.9999C28.6114 29.8844 28.582 29.7705 28.5245 29.6703C28.4671 29.5701 28.3836 29.4873 28.2831 29.4307L27.7996 29.1546C27.5791 29.0271 27.4858 29.1078 27.4858 29.3542V31.1129C27.4783 31.2311 27.5062 31.3488 27.5659 31.4509C27.6256 31.5531 27.7143 31.6351 27.8208 31.6864L28.2449 31.9456C28.4188 32.0518 28.6096 32.124 28.6096 31.7756Z" fill="#83D5F9"/>
<path d="M26.3491 30.597C26.3491 31.2342 26.0226 31.3574 25.5009 31.06L24.746 30.6352C24.4947 30.4951 24.2864 30.2889 24.1437 30.0388C24.0009 29.7888 23.9291 29.5044 23.936 29.2164V27.2197C23.936 26.71 24.1268 26.3701 24.746 26.7397L25.4967 27.1645C25.7557 27.3108 25.971 27.5238 26.1201 27.7816C26.2693 28.0393 26.3469 28.3322 26.3449 28.6301L26.3491 30.597ZM25.7087 30.1085V28.3497C25.7095 28.2333 25.6793 28.1188 25.6211 28.018C25.563 27.9171 25.479 27.8337 25.3779 27.7762L24.8987 27.5001C24.6782 27.3727 24.5849 27.4534 24.5849 27.6998V29.4585C24.5776 29.5761 24.6051 29.6932 24.6639 29.7952C24.7228 29.8972 24.8103 29.9796 24.9157 30.032L25.3398 30.2911C25.5349 30.3803 25.7257 30.4228 25.7257 30.1085H25.7087Z" fill="#83D5F9"/>
<path d="M23.4823 28.9277C23.4823 29.5692 23.1557 29.6924 22.6341 29.395L21.8835 28.9702C21.6317 28.8303 21.4228 28.6242 21.2793 28.3742C21.1358 28.1242 21.0632 27.8397 21.0692 27.5513V25.5547C21.0692 25.0449 21.2643 24.7051 21.8835 25.0747L22.6341 25.4995C22.8929 25.6461 23.1079 25.8592 23.257 26.1169C23.4061 26.3745 23.4839 26.6673 23.4823 26.9651V28.9277ZM22.8377 28.4392V26.6805C22.8399 26.5648 22.8107 26.4507 22.7532 26.3505C22.6957 26.2502 22.612 26.1675 22.5111 26.1112L22.0277 25.8308C21.8071 25.7034 21.7181 25.7841 21.7181 26.0305V27.7935C21.7108 27.911 21.7383 28.0282 21.7971 28.1302C21.856 28.2322 21.9435 28.3145 22.0489 28.367L22.4942 28.6218C22.6468 28.7238 22.8377 28.762 22.8377 28.4392Z" fill="#83D5F9"/>
<path d="M51.5325 3.40122L49.8361 4.37829C48.9583 4.89231 47.7581 4.85408 46.4434 4.16164L48.1397 3.18457C49.4545 3.87701 50.6546 3.91525 51.5325 3.40122Z" fill="#5CE2FF"/>
<path d="M46.4478 4.16261L48.1441 3.18555C49.4716 3.87799 50.6887 3.91622 51.5369 3.4022L49.8405 4.37927C48.9754 4.89329 47.7752 4.85505 46.4478 4.16261Z" fill="#5CE2FF"/>
<path d="M51.3711 1.06789L53.0675 0.0908203C57.0887 0.149582 61.0289 1.23132 64.5181 3.23442L62.8217 4.21149C59.3328 2.2077 55.3924 1.1259 51.3711 1.06789Z" fill="#5CE2FF"/>
<path d="M51.3706 1.06691L53.067 0.0898438C57.0882 0.148606 61.0284 1.23035 64.5176 3.23345L62.8212 4.21051C59.3323 2.20672 55.3919 1.12493 51.3706 1.06691Z" fill="#5CE2FF"/>
<path d="M70.8795 42.2725L69.1831 43.2495C73.2629 40.8706 77.9789 35.45 79.1876 23.105L80.884 22.1279C79.6711 34.4729 74.9551 39.8935 70.8795 42.2725Z" fill="#5CE2FF"/>
<path d="M79.2006 23.106L80.897 22.1289C79.6883 34.4739 74.9596 39.8945 70.8883 42.2734L69.1919 43.2505C73.276 40.8716 77.9919 35.451 79.2006 23.106Z" fill="#5CE2FF"/>
<path d="M74.3233 14.3521L76.0197 13.375C76.0197 16.5483 78.1741 20.3971 80.8968 22.1261L79.2004 23.1032C76.4777 21.3742 74.3148 17.5254 74.3233 14.3521Z" fill="#5CE2FF"/>
<path d="M74.3233 14.353L76.0197 13.376C76.0197 16.5493 78.1741 20.3981 80.8968 22.1271L79.2004 23.1042C76.4777 21.3752 74.3148 17.5264 74.3233 14.353Z" fill="#5CE2FF"/>
<path d="M62.8511 4.2173L64.5475 3.24023C70.2007 6.50703 75.7309 13.0321 76.0193 13.3762L74.3229 14.3533C74.0345 14.0092 68.5043 7.4841 62.8511 4.2173Z" fill="#5CE2FF"/>
<path d="M62.8511 4.2173L64.5475 3.24023C70.2007 6.50703 75.7309 13.0321 76.0193 13.3762L74.3229 14.3533C74.0345 14.0092 68.5043 7.4841 62.8511 4.2173Z" fill="#5CE2FF"/>
<path d="M62.8513 4.21621C68.5045 7.48301 74.0348 14.0081 74.3232 14.3522C74.3232 17.5255 76.4776 21.3743 79.2003 23.1033C77.0247 45.3549 63.4493 45.1085 62.7368 45.0958C62.0243 44.2844 48.4914 28.851 46.4473 4.16098C49.1742 5.5841 51.3498 4.24595 51.3583 1.06836C55.3944 1.12047 59.3503 2.20398 62.8513 4.21621Z" fill="#3CA7F4"/>
<path d="M63.5852 43.1669C60.8413 39.8194 50.9853 26.5993 48.6104 6.6544C49.6384 6.63718 50.6309 6.27493 51.4291 5.62564C52.2272 4.97635 52.7848 4.07759 53.0125 3.07324C56.1389 3.37579 59.1664 4.33551 61.8973 5.88974C66.4649 8.50658 70.9985 13.4301 72.4489 15.0954C72.7033 18.3325 74.6033 21.8924 77.186 24.0164C76.6856 28.239 75.7059 31.8499 74.2725 34.7642C73.1998 37.041 71.6233 39.0429 69.6626 40.618C67.9135 42.0183 65.8085 42.9011 63.5852 43.1669Z" fill="#5BC3FF"/>
<path d="M64.3316 43.0401C64.0517 43.091 63.7973 43.125 63.5852 43.1463C60.8413 39.7987 50.9853 26.5786 48.6104 6.63374C48.8592 6.62884 49.1074 6.6047 49.3525 6.56152C51.8547 25.8564 61.0661 38.9194 64.3316 43.0401Z" fill="#5CE2FF"/>
<path d="M54.9459 38.0538L55.9934 37.4463L55.8874 75.093L54.8398 75.7005L54.9459 38.0538Z" fill="#83D5F9"/>
<path d="M0.106445 6.34185L1.15397 5.73438L55.994 37.4465L54.9465 38.054L0.106445 6.34185Z" fill="#3CB7EC"/>
<path d="M54.946 38.0539L54.84 75.7007L23.1769 57.3913L1.71335 44.9784L0 43.9843L0.0339286 33.1006L0.0763344 18.5466L0.106024 6.3418L8.28686 11.0699L18.0411 16.7157L27.0489 21.9196L48.5125 34.3326L54.946 38.0539Z" fill="#3CB7EC"/>
<path d="M2.68467 30.2997C2.68467 29.6625 3.01971 29.5138 3.53288 29.8112L4.28778 30.236C4.54113 30.3741 4.75135 30.5797 4.89509 30.8302C5.03882 31.0807 5.11046 31.3661 5.10205 31.6549V33.6515C5.10205 34.2845 4.79246 34.4247 4.28354 34.1315L3.53288 33.7067C3.27371 33.5671 3.05765 33.3591 2.90813 33.1052C2.7586 32.8514 2.68133 32.5614 2.68467 32.2666V30.2997ZM3.67707 33.1035L4.12238 33.3626C4.33867 33.4858 4.45742 33.4646 4.45742 33.1757V31.4127C4.46372 31.2991 4.43755 31.1859 4.38197 31.0866C4.32638 30.9873 4.24369 30.9059 4.14358 30.852L3.66011 30.5716C3.38444 30.4102 3.32931 30.6099 3.32931 30.7628V32.5215C3.32816 32.6412 3.36003 32.7589 3.42139 32.8615C3.48275 32.9642 3.57123 33.048 3.67707 33.1035Z" fill="white"/>
<path d="M5.56826 31.9794C5.56826 31.3379 5.9033 31.1935 6.41646 31.4908L7.17135 31.9157C7.42425 32.055 7.63377 32.2616 7.77672 32.5128C7.91968 32.7639 7.99051 33.0498 7.98138 33.3388V35.3354C7.98138 35.9684 7.67603 36.1085 7.16711 35.8112L6.41221 35.3864C6.15366 35.246 5.93812 35.0379 5.7887 34.7842C5.63928 34.5305 5.56161 34.2408 5.56402 33.9463L5.56826 31.9794ZM6.56065 34.7831L7.00596 35.0423C7.22225 35.1655 7.34099 35.14 7.34099 34.8553V33.0924C7.3472 32.9776 7.32056 32.8635 7.26421 32.7634C7.20787 32.6633 7.12415 32.5814 7.02292 32.5274L6.53945 32.2513C6.26379 32.0898 6.21289 32.2852 6.21289 32.4382V34.1969C6.21151 34.3193 6.24512 34.4395 6.30975 34.5434C6.37438 34.6473 6.46732 34.7305 6.57762 34.7831H6.56065Z" fill="white"/>
<path d="M8.48189 33.6564C8.48189 33.0149 8.81692 32.8662 9.33008 33.1636L10.085 33.5884C10.339 33.7268 10.5496 33.9331 10.6934 34.1844C10.8372 34.4357 10.9084 34.722 10.8992 35.0115V37.0039C10.8992 37.6369 10.5896 37.777 10.0807 37.4839L9.32583 37.0591C9.06667 36.9195 8.85063 36.7115 8.70111 36.4576C8.55158 36.2038 8.4743 35.9137 8.47764 35.619L8.48189 33.6564ZM9.47427 36.4559L9.91957 36.715C10.1359 36.8425 10.2546 36.817 10.2546 36.5281V34.7651C10.2609 34.6515 10.2347 34.5383 10.1791 34.439C10.1236 34.3397 10.0409 34.2583 9.94077 34.2044L9.45731 33.924C9.18165 33.7668 9.12652 33.9622 9.12652 34.1152V35.8739C9.1244 35.9938 9.15585 36.1118 9.21732 36.2147C9.27879 36.3176 9.3678 36.4011 9.47427 36.4559Z" fill="white"/>
<path d="M11.3829 35.331C11.3829 34.6938 11.7179 34.5451 12.2311 34.8425L12.986 35.2673C13.24 35.4046 13.4507 35.6101 13.5946 35.8607C13.7384 36.1113 13.8096 36.3972 13.8002 36.6861V38.6827C13.8002 39.3157 13.4949 39.4559 12.986 39.1585L12.2311 38.7337C11.9725 38.5934 11.757 38.3852 11.6075 38.1315C11.4581 37.8778 11.3805 37.5882 11.3829 37.2936V35.331ZM12.3753 38.1347L12.8206 38.3939C13.0369 38.5171 13.1514 38.4916 13.1514 38.207V36.444C13.1587 36.3301 13.133 36.2166 13.0773 36.1171C13.0216 36.0176 12.9383 35.9364 12.8375 35.8832L12.3541 35.6029C12.0784 35.4414 12.0275 35.6369 12.0275 35.794V37.5528C12.0254 37.6726 12.0568 37.7907 12.1183 37.8936C12.1798 37.9964 12.2688 38.08 12.3753 38.1347Z" fill="white"/>
<path d="M15.4288 37.6728C15.4288 37.0356 15.7638 36.8869 16.277 37.1843L17.0319 37.6091C17.2852 37.7471 17.4954 37.9528 17.6392 38.2032C17.7829 38.4537 17.8545 38.7392 17.8461 39.0279V41.0458C17.8461 41.6788 17.5365 41.8189 17.0319 41.5258L16.277 41.101C16.0184 40.9607 15.8029 40.7525 15.6534 40.4988C15.504 40.2451 15.4264 39.9555 15.4288 39.6609V37.6728ZM16.4212 40.4765L16.8665 40.7357C17.0828 40.8589 17.2015 40.8376 17.2015 40.5488V38.7858C17.2078 38.6721 17.1816 38.559 17.126 38.4597C17.0705 38.3604 16.9878 38.279 16.8877 38.225L16.4042 37.9447C16.1285 37.7832 16.0734 37.9829 16.0734 38.1358V39.8946C16.0722 40.0142 16.1041 40.1319 16.1655 40.2346C16.2268 40.3373 16.3153 40.421 16.4212 40.4765Z" fill="white"/>
<path d="M18.3295 39.3456C18.3295 38.7041 18.6646 38.5597 19.1777 38.8571L19.9326 39.2819C20.186 39.421 20.3961 39.6275 20.5398 39.8786C20.6834 40.1297 20.7551 40.4157 20.7469 40.705V42.7016C20.7469 43.3346 20.4373 43.4705 19.9284 43.1774L19.1735 42.7526C18.9146 42.6137 18.6988 42.4064 18.5492 42.1533C18.3997 41.9002 18.3222 41.6108 18.3253 41.3167L18.3295 39.3456ZM19.3219 42.1493L19.7672 42.4085C19.9835 42.5317 20.1022 42.5062 20.1022 42.2173V40.4586C20.1083 40.3444 20.0821 40.2308 20.0266 40.1308C19.9711 40.0308 19.8885 39.9486 19.7884 39.8936L19.3007 39.6175C19.025 39.456 18.9741 39.6515 18.9741 39.8044V41.5631C18.9704 41.6844 19.0011 41.8043 19.0627 41.9088C19.1242 42.0133 19.2141 42.0982 19.3219 42.1536V42.1493Z" fill="white"/>
<path d="M21.2262 41.0439C21.2262 40.4067 21.5612 40.258 22.0744 40.5553L22.8293 40.9802C23.0826 41.1182 23.2928 41.3239 23.4366 41.5743C23.5803 41.8248 23.6519 42.1103 23.6435 42.399V44.3956C23.6435 45.0286 23.3339 45.1688 22.825 44.8757L22.0744 44.4509C21.8152 44.3113 21.5992 44.1032 21.4496 43.8494C21.3001 43.5955 21.2228 43.3055 21.2262 43.0108V41.0439ZM22.2186 43.8476L22.6639 44.1068C22.8801 44.23 22.9989 44.2087 22.9989 43.9199V42.1569C23.0052 42.0432 22.979 41.9301 22.9234 41.8308C22.8679 41.7315 22.7852 41.6501 22.6851 41.5961L22.2016 41.3158C21.9259 41.1543 21.8708 41.354 21.8708 41.5069V43.2656C21.8735 43.3817 21.9072 43.4949 21.9683 43.5935C22.0295 43.6921 22.1159 43.7726 22.2186 43.8264V43.8476Z" fill="white"/>
<path d="M24.1273 42.7021C24.1273 42.0649 24.4624 41.9162 24.9755 42.2136L25.7304 42.6384C25.9837 42.7762 26.1935 42.982 26.3366 43.2326C26.4797 43.4832 26.5503 43.7687 26.5405 44.0572V46.0538C26.5405 46.6868 26.2351 46.827 25.7262 46.5296L24.9713 46.1048C24.7128 45.9645 24.4972 45.7563 24.3478 45.5026C24.1984 45.2489 24.1207 44.9593 24.1231 44.6647L24.1273 42.7021ZM25.1197 45.5058L25.5438 45.765C25.7601 45.8882 25.8789 45.8627 25.8789 45.5781V43.8151C25.8857 43.7013 25.8598 43.588 25.8041 43.4886C25.7485 43.3892 25.6655 43.3079 25.565 43.2543L25.0773 42.974C24.8017 42.8125 24.7508 43.008 24.7508 43.1609V44.9196C24.7498 45.0425 24.784 45.163 24.8494 45.2669C24.9148 45.3709 25.0087 45.4538 25.1197 45.5058Z" fill="white"/>
<path d="M28.1768 45.0429C28.1768 44.4057 28.5076 44.257 29.025 44.5544L29.7799 44.9792C30.0333 45.1172 30.2435 45.3229 30.3872 45.5734C30.531 45.8238 30.6026 46.1093 30.5942 46.398V48.3947C30.5942 49.0276 30.2888 49.1678 29.7799 48.8747L29.025 48.4499C28.7662 48.3099 28.5504 48.1018 28.4009 47.848C28.2514 47.5943 28.174 47.3044 28.1768 47.0098V45.0429ZM29.165 47.8467L29.6103 48.1058C29.8266 48.229 29.9453 48.2035 29.9453 47.9189V46.1432C29.9522 46.0294 29.9262 45.9161 29.8706 45.8167C29.8149 45.7172 29.7319 45.6359 29.6315 45.5824L29.148 45.302C28.8724 45.1406 28.8172 45.3403 28.8172 45.4932V47.2519C28.8145 47.373 28.8456 47.4925 28.9071 47.5968C28.9685 47.7012 29.0578 47.7862 29.165 47.8424V47.8467Z" fill="white"/>
<path d="M31.0737 46.7206C31.0737 46.0791 31.4087 45.9347 31.9219 46.2321L32.6768 46.6569C32.9301 46.796 33.1402 47.0025 33.2839 47.2536C33.4276 47.5047 33.4993 47.7907 33.491 48.08V50.0766C33.491 50.7096 33.1814 50.8455 32.6725 50.5524L31.9176 50.1276C31.6588 49.9887 31.4429 49.7814 31.2934 49.5283C31.1438 49.2752 31.0664 48.9858 31.0694 48.6917L31.0737 46.7206ZM32.0661 49.5243L32.4902 49.7792C32.7065 49.9067 32.8252 49.8812 32.8252 49.5923V47.8421C32.8313 47.7279 32.8051 47.6143 32.7496 47.5143C32.694 47.4143 32.6115 47.3321 32.5114 47.2771L32.0279 46.9967C31.748 46.8395 31.6971 47.035 31.6971 47.1879V48.9466C31.6944 49.0709 31.7279 49.1933 31.7934 49.2988C31.8589 49.4044 31.9536 49.4887 32.0661 49.5413V49.5243Z" fill="white"/>
<path d="M33.983 48.3935C33.983 47.7563 34.3181 47.6076 34.8312 47.905L35.5861 48.3298C35.8395 48.4678 36.0497 48.6735 36.1934 48.9239C36.3372 49.1744 36.4088 49.4599 36.4004 49.7486V51.7452C36.4004 52.3782 36.0908 52.5184 35.5861 52.2253L34.8312 51.8005C34.5721 51.6609 34.356 51.4529 34.2065 51.199C34.0569 50.9451 33.9797 50.6551 33.983 50.3604V48.3935ZM34.9754 51.1972L35.4207 51.4564C35.637 51.5796 35.7557 51.5583 35.7557 51.2695V49.5065C35.7621 49.3928 35.7359 49.2797 35.6803 49.1804C35.6247 49.0811 35.542 48.9997 35.4419 48.9457L34.9584 48.6654C34.6828 48.5039 34.6276 48.7036 34.6276 48.8565V50.6153C34.6253 50.7336 34.6552 50.8504 34.7143 50.953C34.7733 51.0555 34.8592 51.14 34.9627 51.1972H34.9754Z" fill="white"/>
<path d="M36.8715 50.0722C36.8715 49.435 37.2065 49.2863 37.7197 49.5837L38.4746 50.0085C38.7279 50.1465 38.9381 50.3522 39.0819 50.6027C39.2256 50.8531 39.2973 51.1386 39.2889 51.4273V53.424C39.2889 54.0569 38.9793 54.1971 38.4703 53.8997L37.7154 53.4749C37.4569 53.3346 37.2413 53.1264 37.0919 52.8727C36.9425 52.619 36.8648 52.3294 36.8672 52.0348L36.8715 50.0722ZM37.8639 52.876L38.3092 53.1351C38.5255 53.2583 38.6442 53.2328 38.6442 52.9482V51.1852C38.651 51.0714 38.6251 50.9581 38.5695 50.8587C38.5138 50.7593 38.4308 50.678 38.3304 50.6245L37.8427 50.3441C37.567 50.1827 37.5161 50.3781 37.5161 50.531V52.2897C37.5132 52.4103 37.5443 52.5293 37.6058 52.633C37.6673 52.7366 37.7567 52.8209 37.8639 52.876Z" fill="white"/>
<path d="M40.9214 52.412C40.9214 51.7748 41.2522 51.6261 41.7696 51.9235L42.5245 52.3483C42.7779 52.4864 42.9881 52.692 43.1318 52.9425C43.2756 53.193 43.3472 53.4784 43.3388 53.7672V55.7638C43.3388 56.3968 43.0335 56.537 42.5245 56.2396L41.7696 55.8148C41.5111 55.6745 41.2955 55.4663 41.1461 55.2126C40.9967 54.9589 40.919 54.6692 40.9214 54.3747V52.412ZM41.9096 55.2158L42.3591 55.4749C42.5712 55.5981 42.6899 55.5726 42.6899 55.288V53.5251C42.6973 53.4112 42.6716 53.2977 42.6159 53.1981C42.5602 53.0986 42.4769 53.0174 42.3761 52.9643L41.8926 52.6839C41.617 52.5225 41.5661 52.7222 41.5661 52.8751V54.6381C41.5648 54.7567 41.5962 54.8733 41.6568 54.9753C41.7174 55.0772 41.8049 55.1604 41.9096 55.2158Z" fill="white"/>
<path d="M43.8178 54.0917C43.8178 53.4502 44.1528 53.3058 44.666 53.6031L45.4209 54.028C45.6743 54.1671 45.8844 54.3736 46.0281 54.6247C46.1717 54.8758 46.2434 55.1618 46.2352 55.4511V57.4477C46.2352 58.0807 45.9256 58.2166 45.4167 57.9235L44.6618 57.4987C44.4029 57.3598 44.187 57.1525 44.0375 56.8994C43.888 56.6462 43.8105 56.3569 43.8136 56.0628L43.8178 54.0917ZM44.8102 56.8954L45.2555 57.1503C45.4718 57.2778 45.5905 57.2523 45.5905 56.9634V55.2047C45.5972 55.0904 45.5712 54.9766 45.5156 54.8765C45.46 54.7765 45.3772 54.6943 45.2767 54.6397L44.7932 54.3593C44.5133 54.2021 44.4624 54.3975 44.4624 54.5505V56.3092C44.46 56.4297 44.4913 56.5485 44.5528 56.6521C44.6142 56.7557 44.7034 56.84 44.8102 56.8954Z" fill="white"/>
<path d="M46.7061 55.7646C46.7061 55.1274 47.0369 54.9787 47.5543 55.2761L48.3092 55.7009C48.5626 55.8389 48.7728 56.0446 48.9165 56.295C49.0603 56.5455 49.1319 56.831 49.1235 57.1197V59.1163C49.1235 59.7493 48.8181 59.8895 48.3092 59.5964L47.5543 59.1716C47.2955 59.0316 47.0797 58.8235 46.9302 58.5697C46.7807 58.3159 46.7033 58.0261 46.7061 57.7315V55.7646ZM47.6943 58.5683L48.1396 58.8275C48.3559 58.9507 48.4746 58.9294 48.4746 58.6405V56.8776C48.4809 56.7639 48.4548 56.6508 48.3992 56.5515C48.3436 56.4522 48.2609 56.3708 48.1608 56.3168L47.6773 56.0365C47.4017 55.875 47.3465 56.0747 47.3465 56.2276V57.9863C47.3466 58.1073 47.3803 58.2259 47.444 58.3288C47.5077 58.4316 47.5988 58.5145 47.707 58.5683H47.6943Z" fill="white"/>
<path d="M49.6151 57.4423C49.6151 56.8008 49.9502 56.6564 50.4633 56.9537L51.2182 57.3785C51.4716 57.5177 51.6817 57.7242 51.8254 57.9753C51.9691 58.2264 52.0407 58.5124 52.0325 58.8017V60.7983C52.0325 61.4312 51.7229 61.5714 51.214 61.2741L50.4591 60.8492C50.2005 60.7089 49.985 60.5007 49.8356 60.247C49.6862 59.9934 49.6085 59.7037 49.6109 59.4091L49.6151 57.4423ZM50.6075 60.246L51.0528 60.5052C51.2691 60.6283 51.3879 60.6029 51.3879 60.314V58.5553C51.394 58.4411 51.3677 58.3274 51.3122 58.2275C51.2567 58.1275 51.1741 58.0453 51.074 57.9903L50.5906 57.7142C50.3107 57.5527 50.2598 57.7481 50.2598 57.9011V59.6598C50.2568 59.7804 50.2879 59.8993 50.3494 60.003C50.4109 60.1067 50.5004 60.1909 50.6075 60.246Z" fill="white"/>
<path d="M2.68457 23.3868V20.6552C2.68457 19.6314 3.41402 19.2151 4.30038 19.7291L6.93403 21.2542C7.40156 21.5624 7.79023 21.9763 8.0687 22.4626C8.34716 22.9488 8.50762 23.4939 8.53712 24.0537V26.7725C8.53712 27.7921 7.81191 28.2084 6.92131 27.6943L4.29614 26.1778C3.82885 25.8707 3.43975 25.4583 3.15993 24.9737C2.8801 24.4891 2.71731 23.9456 2.68457 23.3868Z" fill="#44B1EE"/>
<path d="M4.36817 23.5023C4.52084 23.5023 4.62263 23.3579 4.62263 23.1455C4.61143 22.9067 4.522 22.6782 4.36817 22.4955C4.29873 22.4062 4.21401 22.33 4.11796 22.2703C3.83805 22.1132 3.61328 22.2406 3.61328 22.5592C3.6225 22.7346 3.67303 22.9054 3.76074 23.0575C3.84845 23.2096 3.97086 23.3387 4.11796 23.4343C4.19327 23.4802 4.28003 23.5038 4.36817 23.5023Z" fill="white"/>
<path d="M6.63742 21.5752L6.38721 21.7196C6.93233 22.6181 7.23621 23.6425 7.26934 24.6933C7.26934 25.6491 6.93429 26.3203 6.38721 26.6304L6.63742 27.0553C7.24388 26.7069 7.62558 25.9592 7.62558 24.8887C7.58331 23.7179 7.24317 22.5774 6.63742 21.5752Z" fill="white"/>
<path d="M5.88694 22.0049L5.63672 22.1493C5.98534 22.7249 6.18234 23.3798 6.20926 24.0525C6.23748 24.2969 6.19916 24.5444 6.09837 24.7687C5.99757 24.9931 5.83805 25.186 5.63672 25.3269L5.88694 25.7517C6.12113 25.5883 6.30724 25.3649 6.42586 25.1049C6.54447 24.8448 6.59123 24.5577 6.56126 24.2734C6.53306 23.472 6.30095 22.6912 5.88694 22.0049Z" fill="white"/>
<path d="M5.14427 22.4375L4.89404 22.5777C5.05073 22.8346 5.1411 23.1266 5.15699 23.4273C5.16854 23.5371 5.15019 23.648 5.1039 23.7483C5.0576 23.8485 4.98509 23.9343 4.89404 23.9966L5.14427 24.4214C5.27192 24.3342 5.37336 24.2137 5.43764 24.0729C5.50192 23.9322 5.52659 23.7765 5.50899 23.6227C5.48828 23.2033 5.36289 22.7958 5.14427 22.4375Z" fill="white"/>
<path d="M17.299 30.6623V31.6648C17.299 32.6886 16.5695 33.105 15.6789 32.5909L11.7984 30.3479C11.3299 30.0397 10.9399 29.6261 10.6593 29.14C10.3788 28.6539 10.2155 28.1089 10.1826 27.5484V24.8254C10.1826 23.7973 10.9121 23.381 11.7984 23.8951L15.6789 26.1423C16.1488 26.4484 16.5403 26.8609 16.8217 27.3464C17.1031 27.832 17.2666 28.377 17.299 28.9376V30.6623Z" fill="white"/>
<path d="M13.4736 24.867L12.9223 25.3853V27.4117L10.1826 25.8229V25.3471L12.5067 26.6895V24.9817L12.952 24.5654L13.4736 24.867Z" fill="#00B2FF"/>
<path d="M13.4736 31.3162L12.952 31.0146L12.5067 30.08V28.3722L10.1826 27.0298V26.5498L12.9223 28.1344V30.1607L13.4736 31.3162Z" fill="#00B2FF"/>
<path d="M17.2988 30.6656V31.1456L14.9705 29.799V31.5067L14.5252 31.9273L14.0078 31.6214L14.5591 31.1032V29.0811L17.2988 30.6656Z" fill="#00B2FF"/>
<path d="M17.2988 29.4592V29.9392L14.5591 28.3547V26.3326L14.0078 25.1729L14.5252 25.4745L14.9705 26.4091V28.1168L17.2988 29.4592Z" fill="#00B2FF"/>
<path d="M2.68457 15.5591L17.8248 24.3145V19.854L2.68457 11.0986V15.5591Z" fill="white"/>
<path d="M36.1841 29.5452C36.5029 29.7227 36.799 29.9381 37.0662 30.1867V30.6115C37.0662 30.6115 36.6421 30.3056 36.2986 30.1102C35.9551 29.9148 35.8109 29.9191 35.8109 30.8069C35.8109 31.4611 35.9042 31.835 36.3029 32.0814C36.7015 32.3277 37.0662 32.5062 37.0662 32.5062V32.931C36.7549 32.8402 36.4579 32.7057 36.1841 32.5317C35.548 32.1536 35.3359 31.4654 35.3359 30.535C35.3359 29.6047 35.4971 29.1502 36.1841 29.5452Z" fill="white"/>
<path d="M37.312 31.0312L37.7361 31.2691L37.8124 31.5793C37.8921 31.53 37.9839 31.5039 38.0775 31.5039C38.1711 31.5039 38.2629 31.53 38.3426 31.5793C38.4155 31.6198 38.4837 31.6682 38.5461 31.7237V32.2632C38.4952 32.2292 38.385 32.157 38.2789 32.0975C38.0796 31.9828 37.9354 31.9361 37.8124 32.0635V33.4187L37.329 33.1383L37.312 31.0312Z" fill="white"/>
<path d="M39.4622 32.2598C39.9923 32.5657 40.2383 32.7781 40.2383 33.4833C40.2383 33.8614 40.0602 33.9081 39.7294 33.7212L39.1441 33.3813C39.1274 33.515 39.1564 33.6505 39.2265 33.7655C39.2966 33.8805 39.4036 33.9682 39.53 34.0143C39.7446 34.1482 39.9702 34.2633 40.2044 34.3584V34.7365C39.8711 34.643 39.5537 34.4998 39.2629 34.3117C38.7964 34.0398 38.6606 33.649 38.6606 32.8673C38.6479 31.9497 38.8812 31.9242 39.4622 32.2598ZM39.6021 33.2454C39.7039 33.3049 39.7548 33.2751 39.7548 33.1774C39.7548 32.9056 39.7209 32.8376 39.4919 32.7059C39.2629 32.5742 39.1399 32.519 39.1441 32.982L39.6021 33.2454Z" fill="white"/>
<path d="M41.0741 33.1783C41.2761 33.3043 41.459 33.4588 41.6169 33.6371V32.5156L42.1004 32.796V35.9481L41.7018 35.7187L41.6169 35.4553C41.5234 35.4791 41.426 35.4839 41.3305 35.4693C41.2351 35.4547 41.1436 35.4211 41.0614 35.3704C40.6118 35.1112 40.4634 34.6099 40.4634 33.9472C40.4634 33.2845 40.5652 32.8852 41.0741 33.1783ZM41.2013 34.954C41.3265 35.0374 41.4754 35.0777 41.6254 35.0687V34.0152C41.4987 33.8883 41.3562 33.7784 41.2013 33.6881C41.0486 33.5989 40.9596 33.6499 40.9596 34.1936C40.9596 34.6737 41.0444 34.8606 41.1928 34.954H41.2013Z" fill="white"/>
<path d="M42.3975 33.3064C42.3975 33.247 42.4272 33.2215 42.4823 33.2555L42.847 33.4636C42.8711 33.479 42.8908 33.5004 42.9042 33.5257C42.9176 33.5511 42.9242 33.5794 42.9233 33.608V33.9649C42.9233 34.0244 42.8936 34.0371 42.847 34.0116L42.4823 33.7992C42.4569 33.7856 42.4357 33.7654 42.4208 33.7407C42.4059 33.7161 42.3978 33.6879 42.3975 33.659V33.3064ZM42.3975 33.9861L42.8894 34.2495V36.3736L42.4017 36.0932L42.3975 33.9861Z" fill="white"/>
<path d="M43.1055 34.4944L43.4023 34.5496L43.4829 34.0059L43.907 34.2395V34.83L44.3311 35.0679V35.4927L43.907 35.2548V36.1044C43.8933 36.1964 43.9003 36.2903 43.9274 36.3792C43.9546 36.4681 44.0012 36.5499 44.0639 36.6184C44.0639 36.6184 44.2717 36.8224 44.2972 36.8351V37.1792L43.8731 36.9371C43.7105 36.8252 43.5823 36.6701 43.5029 36.4892C43.4234 36.3084 43.396 36.1089 43.4235 35.9133V34.9744L43.1267 34.8045L43.1055 34.4944Z" fill="white"/>
<path d="M46.2393 35.3606C46.558 35.5381 46.8542 35.7534 47.1214 36.002V36.4268C47.1214 36.4268 46.6973 36.1252 46.3538 35.9298C46.0103 35.7344 45.8619 35.7386 45.8619 36.6265C45.8619 37.2807 45.9594 37.6503 46.3581 37.9009C46.7567 38.1516 47.1214 38.3257 47.1214 38.3257V38.7505C46.8081 38.6531 46.5109 38.51 46.2393 38.3257C45.5989 37.9519 45.3911 37.2595 45.3911 36.3334C45.3911 35.4073 45.5523 34.9612 46.2393 35.3606Z" fill="white"/>
<path d="M47.312 38.1976C47.312 37.8917 47.4562 37.7005 47.8506 37.9257L48.3935 38.2401V38.1041C48.4014 38.0165 48.382 37.9286 48.338 37.8525C48.2939 37.7764 48.2273 37.7159 48.1475 37.6793C47.9863 37.5858 47.5241 37.3522 47.3756 37.2757V36.9316C47.6786 36.9879 47.9671 37.1049 48.2238 37.2757C48.4258 37.3701 48.5961 37.521 48.7143 37.7102C48.8324 37.8994 48.8933 38.1189 48.8897 38.342V39.8204L48.508 39.5995L48.4019 39.3446C48.3114 39.3849 48.2118 39.4003 48.1134 39.3891C48.015 39.3779 47.9213 39.3405 47.8421 39.2808C47.6929 39.1923 47.5674 39.0686 47.4765 38.9206C47.3856 38.7726 47.3321 38.6046 47.3205 38.4312L47.312 38.1976ZM47.9694 38.8943C48.0994 38.9634 48.2472 38.9915 48.3935 38.975V38.5842L47.9482 38.3675C47.8209 38.308 47.7997 38.4015 47.7997 38.4949V38.6011C47.7955 38.6625 47.8104 38.7236 47.8423 38.776C47.8742 38.8285 47.9216 38.8698 47.9778 38.8943H47.9694Z" fill="white"/>
<path d="M49.1616 37.8848L49.5857 38.1227L49.662 38.4328C49.7409 38.3834 49.832 38.3572 49.925 38.3572C50.018 38.3572 50.1091 38.3834 50.1879 38.4328C50.2621 38.4712 50.3307 38.5198 50.3915 38.5772V39.1167C50.3448 39.0827 50.2303 39.0148 50.1243 38.951C49.925 38.8363 49.7808 38.7896 49.662 38.9213V40.2722L49.1743 39.9961L49.1616 37.8848Z" fill="white"/>
<path d="M51.1082 38.9801C51.3148 39.105 51.502 39.2596 51.6638 39.4389V38.3174L52.1473 38.5978V41.7371L51.7486 41.5077L51.6638 41.2443C51.5702 41.2681 51.4729 41.2729 51.3774 41.2583C51.282 41.2437 51.1904 41.2101 51.1082 41.1594C50.6587 40.9002 50.5103 40.399 50.5103 39.7363C50.5103 39.0735 50.5993 38.687 51.1082 38.9801ZM51.2355 40.7515C51.3596 40.8376 51.5089 40.8795 51.6596 40.8705V39.817C51.5329 39.6901 51.3903 39.5801 51.2355 39.4899C51.0828 39.4006 50.9937 39.4516 50.9937 39.9954C50.9937 40.4669 51.0785 40.6623 51.2355 40.7515Z" fill="white"/>
<g style="mix-blend-mode:screen" opacity="0.3">
<path d="M18.0413 16.7151L0.0341797 33.1L0.0765855 18.546L8.28711 11.0693L18.0413 16.7151Z" fill="#44B1EE"/>
</g>
<g style="mix-blend-mode:screen" opacity="0.3">
<path d="M48.5125 34.3339L23.1769 57.3926L1.71338 44.9796L27.0489 21.9209L48.5125 34.3339Z" fill="#44B1EE"/>
</g>
</svg>
