<svg width="95" height="76" viewBox="0 0 95 76" fill="none" xmlns="http://www.w3.org/2000/svg">
<path d="M7.67783 20.1089C7.72565 20.445 7.86017 20.7636 8.06864 21.0343C8.27712 21.305 8.5526 21.5188 8.8689 21.6554L59.1543 50.2328C59.8973 50.6363 60.7257 50.8645 61.5739 50.8995C62.4221 50.9345 63.267 50.7753 64.0419 50.4345L94.1611 33.3957C94.4266 33.2863 94.6502 33.0974 94.8001 32.856C94.95 32.6145 95.0187 32.3328 94.9962 32.0509C94.9962 31.7685 94.9962 31.5264 94.9278 31.2036C94.8563 30.8931 94.7129 30.603 94.5087 30.3558C94.3045 30.1085 94.045 29.9109 93.7504 29.7781L43.465 1.20076C42.722 0.797292 41.8936 0.569048 41.0454 0.534039C40.1972 0.499031 39.3523 0.658223 38.5774 0.99905L8.45818 18.0379C8.22869 18.1371 8.02962 18.2936 7.88072 18.4917C7.73182 18.6899 7.63828 18.9229 7.60938 19.1675C7.61561 19.4823 7.63846 19.7965 7.67783 20.1089Z" fill="url(#paint0_linear_912_30625)"/>
<path d="M43.4646 1.22811L93.75 29.8054C95.2012 30.6258 95.3518 31.863 94.0922 32.5758L63.973 49.6146C63.1982 49.9554 62.3533 50.1146 61.505 50.0796C60.6568 50.0446 59.8285 49.8163 59.0855 49.4129L8.80005 20.8355C7.34885 20.0152 7.19826 18.778 8.45779 18.0652L38.577 1.02639C39.3519 0.685567 40.1968 0.526374 41.045 0.561383C41.8932 0.596392 42.7215 0.824636 43.4646 1.22811Z" fill="url(#paint1_linear_912_30625)"/>
<g style="mix-blend-mode:screen">
<g style="mix-blend-mode:screen">
<path d="M88.4239 30.3696C88.6061 30.4548 88.7669 30.5786 88.8947 30.7321C89.0225 30.8855 89.1142 31.0648 89.1632 31.2572C89.1729 31.4316 89.1283 31.6048 89.0353 31.7537C88.9424 31.9026 88.8056 32.0202 88.643 32.0909L86.6441 33.2206C86.1642 33.4297 85.6416 33.5276 85.117 33.5066C84.5923 33.4856 84.0796 33.3463 83.6185 33.0995L76.4036 28.9979C76.224 28.911 76.0659 28.7866 75.9405 28.6332C75.8151 28.4799 75.7255 28.3014 75.678 28.1103C75.6653 27.9371 75.707 27.7642 75.7976 27.6151C75.8882 27.4659 76.0233 27.3477 76.1846 27.2765L78.1834 26.1469C78.6636 25.9367 79.1872 25.8394 79.7124 25.8628C80.2376 25.8861 80.75 26.0294 81.209 26.2814L88.4239 30.3696Z" fill="#FFD7FB"/>
</g>
</g>
<path d="M28.213 20.6332C28.3952 20.7184 28.556 20.8422 28.6838 20.9957C28.8116 21.1491 28.9033 21.3284 28.9523 21.5207C28.962 21.6951 28.9174 21.8683 28.8244 22.0173C28.7315 22.1662 28.5946 22.2838 28.432 22.3545L24.5987 24.5197C24.1208 24.7297 23.5995 24.8269 23.0765 24.8036C22.5535 24.7802 22.0433 24.6369 21.5868 24.3852L13.7147 19.9204C13.5325 19.8351 13.3717 19.7113 13.2439 19.5579C13.1161 19.4045 13.0244 19.2252 12.9754 19.0328C12.9658 18.8584 13.0103 18.6852 13.1033 18.5363C13.1962 18.3874 13.3331 18.2697 13.4957 18.199L17.3153 16.0473C17.7937 15.832 18.3171 15.7307 18.8429 15.7517C19.3687 15.7728 19.882 15.9155 20.3409 16.1684L28.213 20.6332Z" fill="#1D228E"/>
<path d="M14.0032 19.9872L21.8753 24.4654C22.2523 24.6759 22.6747 24.7954 23.1079 24.8141C23.5411 24.8328 23.9727 24.7501 24.367 24.573L28.1866 22.4078C28.8301 22.0447 28.7617 21.4127 28.0224 20.9823L20.1503 16.5041C19.7716 16.2914 19.3467 16.1707 18.9109 16.152C18.4751 16.1333 18.041 16.2171 17.6449 16.3965L13.8252 18.5617C13.1818 18.9382 13.2639 19.5703 14.0032 19.9872Z" fill="#FFC440"/>
<g opacity="0.6">
<path opacity="0.6" d="M19.8757 16.3861L19.5746 16.292L13.6055 19.6809C13.6532 19.7413 13.7083 19.7955 13.7697 19.8423L15.262 18.9951L17.7537 20.4071C17.2335 20.8509 17.3841 21.5099 18.1781 21.9671C18.5935 22.1889 19.0508 22.3248 19.5217 22.3664C19.9926 22.4081 20.4672 22.3546 20.9162 22.2092L23.5311 23.6885L22.0388 24.5357L22.3127 24.6568L28.3502 21.2275L28.1585 21.0795L26.502 22.0075L23.9008 20.5282C24.4621 20.0844 24.3252 19.412 23.5174 18.9413C23.1004 18.7231 22.6421 18.5915 22.1711 18.5545C21.7001 18.5175 21.2264 18.5759 20.7793 18.7261L18.2603 17.3141L19.8757 16.3861ZM21.1764 22.0882L23.6954 20.6626L26.2829 22.1285L23.7365 23.5809L21.149 22.1016L21.1764 22.0882ZM18.4382 21.8461C17.7674 21.4695 17.6305 20.9316 18.0412 20.5013L20.7793 22.0344C20.3913 22.174 19.978 22.2329 19.5656 22.2075C19.1532 22.182 18.7506 22.0727 18.3835 21.8864L18.4382 21.8461ZM23.3532 19.0623C24.0377 19.4523 24.1609 20.0171 23.6954 20.4071L20.9573 18.874C21.3401 18.7475 21.7451 18.6989 22.1476 18.7313C22.5501 18.7636 22.9417 18.8763 23.2984 19.0623H23.3532ZM20.7793 18.9682L23.5174 20.5282L20.9984 21.9537L18.2603 20.4206L20.7793 18.9682ZM20.5329 18.8337L18.0138 20.2592L15.5221 18.9144L18.0823 17.462L20.5329 18.8337Z" fill="#D88C1D"/>
</g>
<path d="M59.0717 43.0245C58.3754 43.3697 57.6064 43.5495 56.8265 43.5495C56.0465 43.5495 55.2775 43.3697 54.5812 43.0245C54.3073 42.936 54.0688 42.7649 53.8998 42.5355C53.7307 42.3061 53.6396 42.0301 53.6396 41.7469C53.6396 41.4637 53.7307 41.1877 53.8998 40.9583C54.0688 40.7289 54.3073 40.5578 54.5812 40.4693C55.2775 40.1242 56.0465 39.9443 56.8265 39.9443C57.6064 39.9443 58.3754 40.1242 59.0717 40.4693C59.3456 40.5578 59.5841 40.7289 59.7532 40.9583C59.9223 41.1877 60.0133 41.4637 60.0133 41.7469C60.0133 42.0301 59.9223 42.3061 59.7532 42.5355C59.5841 42.7649 59.3456 42.936 59.0717 43.0245Z" fill="#9B2C2C"/>
<path d="M64.2331 45.9437C63.5368 46.2888 62.7677 46.4686 61.9878 46.4686C61.2079 46.4686 60.4388 46.2888 59.7426 45.9437C59.4736 45.8522 59.2403 45.6806 59.0751 45.4529C58.91 45.2251 58.8213 44.9524 58.8213 44.6728C58.8213 44.3932 58.91 44.1205 59.0751 43.8927C59.2403 43.665 59.4736 43.4934 59.7426 43.4019C60.4388 43.0568 61.2079 42.877 61.9878 42.877C62.7677 42.877 63.5368 43.0568 64.2331 43.4019C64.5021 43.4934 64.7354 43.665 64.9005 43.8927C65.0656 44.1205 65.1543 44.3932 65.1543 44.6728C65.1543 44.9524 65.0656 45.2251 64.9005 45.4529C64.7354 45.6806 64.5021 45.8522 64.2331 45.9437Z" fill="#F4AC1C"/>
<path d="M76.2537 36.8917C76.004 36.8938 75.7589 36.9586 75.5418 37.0799L73.8716 38.0348C73.6388 38.1558 73.5293 38.2903 73.5293 38.4382C73.5293 38.5861 73.6388 38.7206 73.8579 38.8417L74.3371 39.1106C74.5524 39.2361 74.7986 39.3013 75.049 39.2989C75.304 39.3038 75.5553 39.2385 75.7746 39.1106L77.4448 38.1558C77.6639 38.0303 77.7734 37.8958 77.7734 37.7524C77.7734 37.6089 77.6639 37.4744 77.4448 37.3489L76.9656 37.0799C76.7503 36.9544 76.5041 36.8893 76.2537 36.8917ZM75.8704 37.2951C75.9959 37.2189 76.1404 37.1786 76.2879 37.1786C76.4355 37.1786 76.5801 37.2189 76.7055 37.2951L77.1025 37.5237C77.3627 37.6717 77.3627 37.8196 77.1025 37.981L75.4597 38.9223C75.3353 38.9945 75.1934 39.0326 75.049 39.0326C74.9045 39.0326 74.7626 38.9945 74.6382 38.9223L74.2412 38.6937C73.9674 38.5323 73.9811 38.3844 74.2412 38.223L75.8704 37.2951Z" fill="#8FE4FF"/>
<path d="M73.7893 35.4913C73.5396 35.4934 73.2945 35.5582 73.0774 35.6795L71.4072 36.6344C71.1745 36.7689 71.0649 36.9033 71.0649 37.0378C71.0649 37.1723 71.1745 37.3202 71.3935 37.4413L71.8864 37.7237C72.099 37.8422 72.3401 37.9025 72.5846 37.8985C72.8403 37.9096 73.0934 37.844 73.3102 37.7102L74.9804 36.7689C75.1995 36.6344 75.309 36.4999 75.309 36.352C75.309 36.204 75.1995 36.083 74.9804 35.962L74.5013 35.6795C74.2859 35.554 74.0397 35.4889 73.7893 35.4913ZM73.406 35.8947C73.5315 35.8185 73.6761 35.7782 73.8236 35.7782C73.9711 35.7782 74.1157 35.8185 74.2411 35.8947L74.6382 36.1233C74.8983 36.2713 74.8983 36.4326 74.6382 36.5806L72.9953 37.522C72.8719 37.597 72.7297 37.6367 72.5846 37.6367C72.4395 37.6367 72.2973 37.597 72.1739 37.522L71.7768 37.2933C71.503 37.1454 71.5167 36.984 71.7768 36.8227L73.406 35.8947Z" fill="#8FE4FF"/>
<path d="M71.325 34.1089C71.0746 34.1065 70.8284 34.1716 70.6131 34.2971L68.9428 35.2385C68.7101 35.373 68.6006 35.5075 68.6006 35.642C68.6006 35.7765 68.7101 35.9244 68.9291 36.0454L69.422 36.3278C69.6333 36.451 69.8745 36.516 70.1202 36.5161C70.3766 36.5169 70.628 36.447 70.8458 36.3144L72.5161 35.373C72.7351 35.2385 72.8446 35.104 72.8446 34.9696C72.8446 34.8216 72.7488 34.6871 72.5298 34.5661L72.0369 34.2837C71.8202 34.1629 71.5741 34.1024 71.325 34.1089ZM70.9554 34.4989C71.0787 34.4239 71.221 34.3841 71.3661 34.3841C71.5112 34.3841 71.6534 34.4239 71.7768 34.4989L72.1738 34.7275C72.4339 34.8754 72.4339 35.0368 72.1738 35.1982L70.5309 36.1261C70.4076 36.2011 70.2653 36.2409 70.1202 36.2409C69.9751 36.2409 69.8329 36.2011 69.7095 36.1261L69.3125 35.8975C69.0387 35.7496 69.0524 35.5882 69.3125 35.4268L70.9554 34.4989Z" fill="#8FE4FF"/>
<path d="M68.9153 32.7083C68.6604 32.7034 68.409 32.7686 68.1898 32.8965L66.5195 33.8379C66.2868 33.9724 66.1772 34.1069 66.1772 34.2548C66.1772 34.4027 66.3005 34.5238 66.5195 34.6448L66.9987 34.9272C67.21 35.0504 67.4512 35.1154 67.6969 35.1155C67.9511 35.1139 68.2007 35.0491 68.4225 34.9272L70.0927 33.9724C70.3118 33.8514 70.435 33.7169 70.435 33.5689C70.435 33.421 70.3255 33.2865 70.1064 33.1655L69.6136 32.8965C69.404 32.7694 69.1616 32.7041 68.9153 32.7083ZM68.532 33.0982C68.6554 33.0232 68.7976 32.9835 68.9427 32.9835C69.0878 32.9835 69.2301 33.0232 69.3535 33.0982L69.7505 33.3269C70.0106 33.4748 70.0106 33.6362 69.7505 33.7976L68.1076 34.7255C67.9842 34.8005 67.842 34.8402 67.6969 34.8402C67.5518 34.8402 67.4096 34.8005 67.2862 34.7255L66.8892 34.4969C66.629 34.3489 66.629 34.1875 66.8892 34.0262L68.532 33.0982Z" fill="#8FE4FF"/>
<path d="M62.8636 29.3077C62.6132 29.3053 62.367 29.3704 62.1517 29.496L60.4814 30.4373C60.2487 30.5718 60.1392 30.7063 60.1392 30.8542C60.1392 31.0021 60.2624 31.1232 60.4677 31.2577L60.9606 31.5266C61.1719 31.6498 61.4131 31.7148 61.6588 31.7149C61.913 31.7133 62.1626 31.6485 62.3844 31.5266L64.0547 30.5718C64.2737 30.4508 64.3969 30.3163 64.3969 30.1684C64.3969 30.0204 64.2874 29.8859 64.0684 29.7649L63.5755 29.496C63.3602 29.3704 63.114 29.3053 62.8636 29.3077ZM62.4939 29.6977C62.6173 29.6226 62.7596 29.5829 62.9047 29.5829C63.0498 29.5829 63.192 29.6226 63.3154 29.6977L63.7124 29.9263C63.9725 30.0742 63.9725 30.2356 63.7124 30.397L62.0695 31.298C61.9462 31.373 61.8039 31.4128 61.6588 31.4128C61.5137 31.4128 61.3715 31.373 61.2481 31.298L60.8511 31.0694C60.5773 30.9215 60.591 30.7601 60.8511 30.6122L62.4939 29.6977Z" fill="#8FE4FF"/>
<path d="M60.4139 27.9092C60.1597 27.9108 59.9101 27.9756 59.6883 28.0975L58.018 29.0523C57.7853 29.1733 57.6758 29.3078 57.6758 29.4557C57.6758 29.6037 57.799 29.7247 58.018 29.8592L58.4972 30.1281C58.7125 30.2537 58.9588 30.3188 59.2091 30.3164C59.4587 30.3126 59.7033 30.2479 59.921 30.1281L61.5913 29.1733C61.824 29.0523 61.9335 28.9178 61.9335 28.7699C61.9335 28.6219 61.824 28.4875 61.605 28.3664L61.1121 28.0975C60.9008 27.9743 60.6596 27.9093 60.4139 27.9092ZM60.0306 28.2992C60.1521 28.2194 60.2951 28.1768 60.4413 28.1768C60.5875 28.1768 60.7304 28.2194 60.852 28.2992L61.249 28.5143C61.5091 28.6757 61.5091 28.8237 61.249 28.985L59.5925 29.913C59.4691 29.988 59.3269 30.0277 59.1817 30.0277C59.0366 30.0277 58.8944 29.988 58.771 29.913L58.374 29.6843C58.1139 29.5364 58.1139 29.375 58.374 29.2271L60.0306 28.2992Z" fill="#8FE4FF"/>
<path d="M57.9628 26.5107C57.7086 26.5123 57.459 26.5771 57.2372 26.699L55.5669 27.6538C55.3479 27.7749 55.2246 27.9093 55.2383 28.0573C55.252 28.2052 55.3479 28.3397 55.5669 28.4607L56.0461 28.7297C56.2614 28.8552 56.5076 28.9203 56.758 28.918C57.0078 28.9159 57.2528 28.851 57.4699 28.7297L59.1402 27.7749C59.3729 27.6538 59.4824 27.5194 59.4824 27.3714C59.4824 27.2235 59.3729 27.089 59.1538 26.968L58.6747 26.699C58.4576 26.5777 58.2125 26.5129 57.9628 26.5107ZM57.5794 26.9007C57.7023 26.8242 57.8447 26.7836 57.9902 26.7836C58.1356 26.7836 58.2781 26.8242 58.4009 26.9007L58.7979 27.1159C59.0717 27.2773 59.058 27.4252 58.7979 27.5866L57.1413 28.528C57.0185 28.6045 56.8761 28.6451 56.7306 28.6451C56.5852 28.6451 56.4427 28.6045 56.3199 28.528L55.9229 28.3128C55.6627 28.1514 55.6627 28.0035 55.9229 27.8421L57.5794 26.9007Z" fill="#8FE4FF"/>
<path d="M55.4847 25.1124C55.2343 25.11 54.9881 25.1751 54.7728 25.3006L53.0888 26.2555C52.8698 26.372 52.7603 26.5065 52.7603 26.6589C52.7603 26.8113 52.8698 26.9458 53.0888 27.0624L53.568 27.3313C53.7833 27.4568 54.0295 27.522 54.2799 27.5196C54.5303 27.522 54.7765 27.4568 54.9918 27.3313L56.6757 26.3765C56.8948 26.251 57.0043 26.1165 57.0043 25.973C57.0043 25.8296 56.8948 25.6951 56.6757 25.5696L56.1966 25.3006C55.9795 25.1793 55.7344 25.1145 55.4847 25.1124ZM55.1013 25.5024C55.2242 25.4258 55.3666 25.3852 55.5121 25.3852C55.6575 25.3852 55.7999 25.4258 55.9228 25.5024L56.3198 25.731C56.5936 25.8789 56.5799 26.0268 56.3198 26.1882L54.6632 27.1296C54.5404 27.2061 54.398 27.2468 54.2525 27.2468C54.1071 27.2468 53.9646 27.2061 53.8418 27.1296L53.4585 26.9144C53.1847 26.7531 53.1847 26.6051 53.4585 26.4437L55.1013 25.5024Z" fill="#8FE4FF"/>
<path d="M49.4886 21.709C49.2382 21.7067 48.992 21.7718 48.7767 21.8973L47.0927 22.8522C46.8737 22.9732 46.7642 23.1211 46.7642 23.2556C46.7642 23.3901 46.8737 23.538 47.0927 23.6591L47.5719 23.928C47.7872 24.0535 48.0334 24.1187 48.2838 24.1163C48.5342 24.1187 48.7804 24.0535 48.9957 23.928L50.6796 22.9866C50.8987 22.8522 51.0082 22.7177 51.0082 22.5697C51.0082 22.4218 50.8987 22.3008 50.6796 22.1663L50.2005 21.8973C49.9834 21.776 49.7383 21.7112 49.4886 21.709ZM49.1052 22.1125C49.2286 22.0375 49.3708 21.9977 49.516 21.9977C49.6611 21.9977 49.8033 22.0375 49.9267 22.1125L50.3237 22.3411C50.5975 22.489 50.5838 22.637 50.3237 22.7983L48.6671 23.7397C48.5438 23.8148 48.4015 23.8545 48.2564 23.8545C48.1113 23.8545 47.9691 23.8148 47.8457 23.7397L47.4624 23.5111C47.1886 23.3497 47.1886 23.2018 47.4624 23.0404L49.1052 22.1125Z" fill="#8FE4FF"/>
<path d="M47.0106 20.3106C46.7602 20.3082 46.514 20.3734 46.2986 20.4989L44.6147 21.4537C44.3957 21.5882 44.2861 21.7227 44.2861 21.8571C44.2861 21.9916 44.3957 22.1261 44.6147 22.2606L45.0939 22.543C45.3106 22.6638 45.5567 22.7243 45.8058 22.7178C46.0572 22.7288 46.3059 22.663 46.5177 22.5295L48.2016 21.5882C48.4207 21.4537 48.5302 21.3192 48.5302 21.1847C48.5302 21.0502 48.4207 20.9158 48.2016 20.7813L47.7225 20.4989C47.5054 20.3775 47.2603 20.3127 47.0106 20.3106ZM46.6272 20.7141C46.7506 20.639 46.8928 20.5993 47.0379 20.5993C47.1831 20.5993 47.3253 20.639 47.4487 20.7141L47.8457 20.9427C48.1195 21.0906 48.1058 21.252 47.8457 21.3999L46.2028 22.3413C46.0794 22.4163 45.9372 22.456 45.7921 22.456C45.647 22.456 45.5048 22.4163 45.3814 22.3413L44.9844 22.1127C44.7106 21.9647 44.7106 21.8034 44.9844 21.642L46.6272 20.7141Z" fill="#8FE4FF"/>
<path d="M44.5599 18.9233C44.3095 18.921 44.0633 18.9861 43.848 19.1116L42.164 20.053C41.945 20.1874 41.8354 20.3219 41.8354 20.4564C41.8354 20.5909 41.945 20.7254 42.164 20.8598L42.6432 21.1422C42.8603 21.2636 43.1053 21.3284 43.3551 21.3305C43.6068 21.3288 43.8531 21.259 44.067 21.1288L45.7509 20.1874C45.97 20.053 46.0795 19.9185 46.0795 19.784C46.0795 19.6495 45.97 19.515 45.7509 19.3805L45.2718 19.0981C45.0551 18.9773 44.809 18.9169 44.5599 18.9233ZM44.1765 19.3133C44.2999 19.2383 44.4421 19.1986 44.5872 19.1986C44.7323 19.1986 44.8746 19.2383 44.998 19.3133L45.395 19.5419C45.6688 19.6898 45.6551 19.8512 45.395 20.0126L43.7521 20.9405C43.6287 21.0155 43.4865 21.0553 43.3414 21.0553C43.1963 21.0553 43.0541 21.0155 42.9307 20.9405L42.5337 20.7119C42.2598 20.564 42.2598 20.4026 42.5337 20.2412L44.1765 19.3133Z" fill="#8FE4FF"/>
<path d="M42.095 17.5274C41.8447 17.525 41.5984 17.5902 41.3831 17.7157L39.6992 18.6571C39.4801 18.7916 39.3706 18.926 39.3706 19.074C39.3706 19.2219 39.4801 19.3429 39.6992 19.464L40.1783 19.7464C40.3954 19.8677 40.6405 19.9325 40.8903 19.9347C41.1406 19.937 41.3869 19.8719 41.6022 19.7464L43.2861 18.7915C43.5052 18.675 43.6147 18.5405 43.6147 18.3881C43.6147 18.2357 43.5052 18.1012 43.2861 17.9847L42.8069 17.7157C42.5916 17.5902 42.3454 17.525 42.095 17.5274ZM41.7117 17.9174C41.8372 17.8412 41.9817 17.8009 42.1293 17.8009C42.2768 17.8009 42.4214 17.8412 42.5468 17.9174L42.9302 18.146C43.204 18.294 43.1903 18.4554 42.9302 18.6167L41.2873 19.5446C41.1639 19.6197 41.0217 19.6594 40.8766 19.6594C40.7315 19.6594 40.5892 19.6197 40.4659 19.5446L40.0688 19.316C39.795 19.1681 39.795 19.0067 40.0688 18.8453L41.7117 17.9174Z" fill="#8FE4FF"/>
<path d="M36.0584 14.1241C35.808 14.1217 35.5618 14.1868 35.3465 14.3124L33.6626 15.2537C33.4435 15.3882 33.334 15.5227 33.334 15.6706C33.334 15.8186 33.4435 15.9396 33.6626 16.074L34.1417 16.343C34.3588 16.4644 34.6039 16.5292 34.8536 16.5313C35.104 16.5337 35.3502 16.4685 35.5656 16.343L37.2495 15.3882C37.4685 15.2717 37.5781 15.1372 37.5781 14.9848C37.5781 14.8323 37.4685 14.6979 37.2495 14.5813L36.7703 14.3124C36.555 14.1868 36.3088 14.1217 36.0584 14.1241ZM35.6751 14.5141C35.7985 14.4391 35.9407 14.3993 36.0858 14.3993C36.2309 14.3993 36.3731 14.4391 36.4965 14.5141L36.8935 14.7427C37.1673 14.8906 37.1537 15.052 36.8935 15.2134L35.2507 16.1413C35.1273 16.2163 34.9851 16.2561 34.84 16.2561C34.6948 16.2561 34.5526 16.2163 34.4292 16.1413L34.0322 15.9127C33.7584 15.7647 33.7584 15.6034 34.0322 15.4554L35.6751 14.5141Z" fill="#8FE4FF"/>
<path d="M33.6351 12.7276C33.3853 12.7297 33.1402 12.7945 32.9232 12.9159L31.2529 13.8707C31.0202 13.9917 30.9106 14.1262 30.9106 14.2741C30.9106 14.4221 31.0202 14.5431 31.2392 14.6776L31.7184 14.9466C31.9355 15.0679 32.1805 15.1327 32.4303 15.1348C32.6845 15.1332 32.9341 15.0685 33.1559 14.9466L34.8261 13.9917C35.0452 13.8752 35.1547 13.7407 35.1547 13.5883C35.1547 13.4359 35.0452 13.3014 34.8261 13.1848L34.347 12.9159C34.1317 12.7904 33.8854 12.7252 33.6351 12.7276ZM33.2517 13.1176C33.376 13.0383 33.5211 12.9961 33.6693 12.9961C33.8175 12.9961 33.9625 13.0383 34.0868 13.1176L34.4839 13.3328C34.744 13.4941 34.744 13.6421 34.4839 13.8035L32.841 14.7314C32.7176 14.8064 32.5754 14.8461 32.4303 14.8461C32.2852 14.8461 32.143 14.8064 32.0196 14.7314L31.6225 14.5028C31.3487 14.3548 31.3624 14.1935 31.6225 14.0455L33.2517 13.1176Z" fill="#8FE4FF"/>
<path d="M31.1702 11.3272C30.9204 11.3293 30.6754 11.3941 30.4583 11.5155L28.7881 12.4703C28.5553 12.5913 28.4458 12.7258 28.4458 12.8738C28.4458 13.0217 28.5553 13.1562 28.7744 13.2772L29.2672 13.5462C29.4785 13.6693 29.7197 13.7344 29.9655 13.7344C30.2204 13.7393 30.4718 13.6741 30.691 13.5462L32.3613 12.5913C32.5803 12.4658 32.6899 12.3313 32.6899 12.1879C32.6899 12.04 32.5803 11.9189 32.3613 11.7845L31.8821 11.5155C31.6668 11.39 31.4206 11.3248 31.1702 11.3272ZM30.7869 11.7172C30.9123 11.641 31.0569 11.6007 31.2044 11.6007C31.352 11.6007 31.4965 11.641 31.622 11.7172L32.019 11.9324C32.2792 12.0938 32.2792 12.2417 32.019 12.4031L30.3762 13.3444C30.2534 13.421 30.1109 13.4616 29.9655 13.4616C29.82 13.4616 29.6775 13.421 29.5547 13.3444L29.1577 13.1293C28.8839 12.9679 28.8976 12.82 29.1577 12.6586L30.7869 11.7172Z" fill="#8FE4FF"/>
<path d="M27.9949 10.117L26.3247 11.0719C26.0919 11.1929 25.9824 11.3274 25.9824 11.4753C25.9824 11.6232 26.092 11.7577 26.311 11.8788L26.8039 12.1477C27.0135 12.2748 27.2558 12.3402 27.5021 12.336C27.7571 12.3408 28.0084 12.2756 28.2277 12.1477L29.8979 11.1929C30.117 11.0764 30.2265 10.9419 30.2265 10.7895C30.2265 10.655 30.1307 10.5205 29.9116 10.386L29.4187 10.117C29.2034 9.99152 28.9572 9.92641 28.7069 9.92877C28.4571 9.93089 28.212 9.9957 27.9949 10.117ZM28.3372 10.3322C28.4606 10.2572 28.6028 10.2175 28.7479 10.2175C28.893 10.2175 29.0353 10.2572 29.1586 10.3322L29.5557 10.5608C29.8158 10.7088 29.8158 10.8567 29.5557 11.0181L27.9128 11.9594C27.79 12.036 27.6475 12.0766 27.5021 12.0766C27.3566 12.0766 27.2142 12.036 27.0914 11.9594L26.6943 11.7443C26.4205 11.5829 26.4342 11.435 26.6943 11.2736L28.3372 10.3322Z" fill="#8FE4FF"/>
<path d="M37.8243 4.5371L40.2201 3.19227C40.2404 3.17897 40.2642 3.17188 40.2886 3.17188C40.313 3.17188 40.3368 3.17897 40.357 3.19227L41.3291 3.74364C41.5208 3.85122 41.6166 3.97227 41.6166 4.0933C41.6166 4.21434 41.5344 4.33536 41.3291 4.44295L39.96 5.18261C39.7729 5.28916 39.5602 5.34486 39.3439 5.34398C39.1322 5.34312 38.9244 5.28747 38.7416 5.18261L37.7695 4.63122C37.7695 4.63122 37.7695 4.56399 37.8243 4.5371ZM38.5088 4.63122L39.0701 4.95399C39.1566 5.00636 39.2561 5.03408 39.3576 5.03408C39.4592 5.03408 39.5587 5.00636 39.6451 4.95399L40.932 4.22777C41.1237 4.12019 41.1237 4.01261 40.932 3.90503L40.3707 3.58226H40.2886L38.4951 4.59088C38.4951 4.59088 38.4814 4.61778 38.5088 4.63122Z" fill="#8FE4FF"/>
<path d="M41.2737 6.57955L40.0142 5.8668C40.0142 5.8668 40.0142 5.8668 40.0142 5.78611L42.41 4.4413C42.4303 4.428 42.4541 4.4209 42.4785 4.4209C42.5028 4.4209 42.5267 4.428 42.5469 4.4413L43.8201 5.15405L43.6285 5.27508C43.6082 5.28837 43.5844 5.29547 43.56 5.29547C43.5356 5.29547 43.5118 5.28837 43.4916 5.27508L42.588 4.76406H42.5059L41.835 5.14061L42.6017 5.62474C42.6017 5.62474 42.6017 5.62475 42.6017 5.69199L42.3963 5.81302C42.3761 5.82631 42.3522 5.83341 42.3279 5.83341C42.3035 5.83341 42.2797 5.82631 42.2594 5.81302L41.4927 5.38266H41.4106L40.7124 5.78611L41.616 6.29715C41.616 6.29715 41.616 6.29715 41.616 6.3644L41.4243 6.48542C41.4211 6.50151 41.4146 6.5168 41.4052 6.53034C41.3957 6.54389 41.3836 6.5554 41.3695 6.5642C41.3555 6.57301 41.3397 6.5789 41.3232 6.58154C41.3067 6.58418 41.2899 6.5835 41.2737 6.57955Z" fill="#8FE4FF"/>
<path d="M41.904 6.86338L44.3135 5.51855H44.4504L45.3814 6.05648C45.4558 6.08772 45.5218 6.1356 45.5741 6.1963C45.6264 6.257 45.6635 6.32886 45.6826 6.40614C45.6826 6.52718 45.5868 6.63476 45.3951 6.74235L45.2034 6.86338C45.0867 6.92453 44.9587 6.962 44.827 6.97355C44.6953 6.9851 44.5626 6.9705 44.4367 6.93062C44.4741 6.95334 44.505 6.98499 44.5266 7.02261C44.5481 7.06024 44.5596 7.10261 44.56 7.14578C44.56 7.22647 44.4778 7.30717 44.3409 7.37442L44.0945 7.52235C43.9116 7.6272 43.7038 7.68286 43.4921 7.68372C43.2758 7.68459 43.0631 7.6289 42.876 7.52235L41.904 6.97096C41.904 6.97096 41.8629 6.89027 41.904 6.86338ZM43.7248 6.31199L44.2314 6.60786C44.3204 6.65997 44.4221 6.68748 44.5257 6.68748C44.6294 6.68748 44.731 6.65997 44.8201 6.60786L45.0117 6.51373C45.1897 6.40614 45.1897 6.29856 45.0117 6.17752L44.4915 5.88166H44.4094L43.7385 6.27165C43.7385 6.27165 43.6975 6.29855 43.7248 6.31199ZM42.5885 6.9575L43.1498 7.26683C43.2351 7.32234 43.3351 7.35195 43.4373 7.35195C43.5396 7.35195 43.6396 7.32234 43.7248 7.26683L43.9713 7.1189C44.1629 7.01131 44.1492 6.90372 43.9713 6.78269L43.4373 6.48683H43.3552L42.6159 6.90372L42.5885 6.9575Z" fill="#8FE4FF"/>
<path d="M46.9013 6.95497L44.4917 8.29978C44.4715 8.31308 44.4476 8.32018 44.4233 8.32018C44.3989 8.32018 44.3751 8.31308 44.3548 8.29978L44.1084 8.15185C44.1084 8.15185 44.1084 8.15186 44.1084 8.08462L46.5179 6.73981C46.5352 6.72558 46.557 6.71777 46.5795 6.71777C46.6021 6.71777 46.6239 6.72558 46.6412 6.73981L46.9013 6.88774C46.9013 6.88774 47.0108 6.92807 46.9013 6.95497Z" fill="#8FE4FF"/>
<path d="M45.7098 9.09585L45.4634 8.96136C45.4634 8.96136 45.4634 8.96137 45.4634 8.88068L47.558 7.68378C47.4036 7.56241 47.2386 7.45441 47.0652 7.36102C47.0652 7.36102 47.0652 7.36102 47.0652 7.28033L47.2705 7.17274C47.2908 7.15944 47.3146 7.15234 47.339 7.15234C47.3634 7.15234 47.3872 7.15944 47.4074 7.17274L48.8723 8.00653L48.6807 8.12758C48.6604 8.14088 48.6366 8.14797 48.6122 8.14797C48.5878 8.14797 48.564 8.14088 48.5438 8.12758L48.0372 7.84515C48.0247 7.83807 48.0106 7.83434 47.9961 7.83434C47.9817 7.83434 47.9676 7.83807 47.9551 7.84515L45.8604 9.02861C45.8483 9.05617 45.8261 9.07832 45.7983 9.09074C45.7705 9.10317 45.7389 9.10499 45.7098 9.09585Z" fill="#8FE4FF"/>
<path d="M48.7085 10.7912L48.2431 10.5356C48.0514 10.4281 47.9556 10.307 47.9556 10.186C47.9556 10.065 48.0514 9.94392 48.2431 9.83634L49.6121 9.09671C49.7982 8.98604 50.0107 8.92572 50.2282 8.92188C50.4454 8.92756 50.6575 8.98776 50.8443 9.09671L51.2961 9.3522C51.4877 9.45979 51.5835 9.58084 51.5835 9.70187C51.5835 9.8229 51.4877 9.93048 51.2961 10.0515L51.1044 10.1591C51.0841 10.1724 51.0603 10.1795 51.0359 10.1795C51.0116 10.1795 50.9877 10.1724 50.9675 10.1591L50.7211 10.0112C50.7211 10.0112 50.7211 10.0112 50.7211 9.93048L50.899 9.83634C51.0907 9.72875 51.0907 9.62118 50.899 9.5136L50.5568 9.31186C50.4715 9.25635 50.3715 9.22674 50.2693 9.22674C50.167 9.22674 50.067 9.25635 49.9818 9.31186L48.6948 10.0381C48.5032 10.1457 48.5032 10.2532 48.6948 10.3608L49.0371 10.5625C49.1245 10.6121 49.2237 10.6382 49.3246 10.6382C49.4256 10.6382 49.5247 10.6121 49.6121 10.5625L49.7901 10.4684C49.8104 10.4551 49.8342 10.448 49.8585 10.448C49.8829 10.448 49.9067 10.4551 49.927 10.4684L50.1734 10.6029C50.1734 10.6029 50.1734 10.6029 50.1734 10.6836L49.9818 10.7912C49.7946 10.8977 49.582 10.9534 49.3657 10.9525C49.1354 10.9616 48.9074 10.9056 48.7085 10.7912Z" fill="#8FE4FF"/>
<path d="M49.9403 11.4901L49.6528 11.3288L52.7469 10.3605C52.7719 10.3463 52.8002 10.3389 52.8291 10.3389C52.8579 10.3389 52.8862 10.3463 52.9112 10.3605L53.3082 10.5757C53.3082 10.5757 53.3082 10.6429 53.3082 10.6698L51.5969 12.4315C51.5778 12.441 51.5567 12.4459 51.5353 12.4459C51.5139 12.4459 51.4928 12.441 51.4737 12.4315L51.1999 12.2701C51.1999 12.1895 51.5558 11.8129 51.5558 11.8129L50.6933 11.3153L50.0225 11.5305C49.9915 11.5258 49.9628 11.5117 49.9403 11.4901ZM52.7469 10.6429L51.1177 11.127L51.8296 11.5305L52.7332 10.616L52.7469 10.6429Z" fill="#8FE4FF"/>
<path d="M52.2816 12.8167L52.0352 12.6822C52.0352 12.6822 52.0352 12.6822 52.0352 12.6015L54.4447 11.2567C54.4649 11.2434 54.4888 11.2363 54.5131 11.2363C54.5375 11.2363 54.5613 11.2434 54.5816 11.2567L55.4989 11.7812C55.6905 11.8888 55.7864 11.9964 55.7864 12.1308C55.7864 12.2653 55.6905 12.3595 55.4989 12.4805L55.1703 12.6688C55.0285 12.7487 54.8716 12.7995 54.7092 12.818C54.5468 12.8365 54.3823 12.8223 54.2256 12.7763L53.7191 13.5563C53.7191 13.5563 53.6506 13.5563 53.5822 13.5563L53.3495 13.4219C53.3495 13.4219 53.2673 13.3412 53.3495 13.3143L53.8286 12.5612L53.4316 12.3326C53.4316 12.3326 53.3631 12.3326 53.3495 12.3326L52.4733 12.8167C52.4617 12.8307 52.4471 12.842 52.4305 12.8498C52.4139 12.8576 52.3958 12.8616 52.3774 12.8616C52.359 12.8616 52.3409 12.8576 52.3243 12.8498C52.3077 12.842 52.2931 12.8307 52.2816 12.8167ZM53.6506 12.1443L54.1435 12.4401C54.2325 12.4923 54.3342 12.5198 54.4379 12.5198C54.5415 12.5198 54.6432 12.4923 54.7322 12.4401L55.0608 12.2519C55.2524 12.1443 55.2524 12.0233 55.0608 11.9157L54.5542 11.6333H54.4721L53.6369 12.1039C53.6369 12.1039 53.6643 12.1308 53.6917 12.1443H53.6506Z" fill="#8FE4FF"/>
<path d="M54.17 13.8174L56.5795 12.4725C56.5998 12.4592 56.6236 12.4521 56.648 12.4521C56.6724 12.4521 56.6962 12.4592 56.7164 12.4725L57.6885 13.0239C57.8802 13.1315 57.976 13.2525 57.976 13.3736C57.976 13.4946 57.8802 13.6022 57.6885 13.7232L56.3194 14.4629C56.1321 14.5691 55.9196 14.625 55.7033 14.625C55.4871 14.625 55.2746 14.5691 55.0873 14.4629L54.1152 13.9115C54.1152 13.9115 54.1289 13.8174 54.17 13.8174ZM54.8682 13.9115L55.4295 14.2208C55.5159 14.2732 55.6155 14.3009 55.717 14.3009C55.8186 14.3009 55.9181 14.2732 56.0045 14.2208L57.2914 13.4946C57.4831 13.387 57.4831 13.2794 57.2914 13.1719L56.7438 12.8491H56.6617L54.8682 13.8577C54.8682 13.8577 54.8408 13.8981 54.8682 13.9115Z" fill="#8FE4FF"/>
<path d="M0.0738281 44.4517C0.121642 44.7878 0.256169 45.1064 0.464641 45.3771C0.673112 45.6478 0.948594 45.8616 1.2649 45.9982L51.5503 74.5756C52.2933 74.979 53.1217 75.2073 53.9699 75.2423C54.8181 75.2773 55.663 75.1181 56.4379 74.7773L86.5571 57.7385C86.8226 57.629 87.0462 57.4402 87.1961 57.1987C87.346 56.9573 87.4147 56.6756 87.3922 56.3936C87.3922 56.1112 87.3922 55.8692 87.3238 55.5464C87.2523 55.2359 87.1089 54.9458 86.9047 54.6985C86.7005 54.4513 86.441 54.2536 86.1464 54.1209L35.861 25.5435C35.118 25.1401 34.2896 24.9118 33.4414 24.8768C32.5932 24.8418 31.7483 25.001 30.9734 25.3418L0.854179 42.3807C0.624689 42.4799 0.425614 42.6363 0.276713 42.8345C0.127812 43.0327 0.0342716 43.2656 0.00537109 43.5103C0.0116052 43.825 0.0344577 44.1392 0.0738281 44.4517Z" fill="url(#paint2_linear_912_30625)"/>
<path d="M35.8605 25.5709L86.146 54.1482C87.5972 54.9686 87.7478 56.2058 86.4882 56.9185L56.369 73.9574C55.5942 74.2982 54.7493 74.4574 53.901 74.4224C53.0528 74.3874 52.2245 74.1591 51.4815 73.7556L1.19605 45.1783C-0.255152 44.358 -0.405749 43.1207 0.853783 42.408L30.973 25.3692C31.7479 25.0283 32.5928 24.8691 33.441 24.9042C34.2892 24.9392 35.1175 25.1674 35.8605 25.5709Z" fill="url(#paint3_linear_912_30625)"/>
<g style="mix-blend-mode:screen">
<g style="mix-blend-mode:screen">
<path d="M80.8204 54.7124C81.0026 54.7976 81.1634 54.9214 81.2912 55.0749C81.419 55.2283 81.5107 55.4076 81.5597 55.5999C81.5693 55.7743 81.5248 55.9475 81.4318 56.0965C81.3389 56.2454 81.2021 56.363 81.0395 56.4337L79.0406 57.5633C78.5606 57.7725 78.0381 57.8704 77.5135 57.8494C76.9888 57.8284 76.4761 57.6891 76.015 57.4423L68.8001 53.3406C68.6204 53.2538 68.4624 53.1293 68.337 52.976C68.2116 52.8226 68.122 52.6441 68.0745 52.4531C68.0618 52.2799 68.1035 52.107 68.1941 51.9578C68.2847 51.8087 68.4198 51.6905 68.5811 51.6193L70.5799 50.4896C71.0601 50.2795 71.5837 50.1822 72.1089 50.2055C72.6341 50.2289 73.1465 50.3722 73.6055 50.6241L80.8204 54.7124Z" fill="#FFD7FB"/>
</g>
</g>
<path d="M20.609 44.9759C20.7912 45.0612 20.952 45.185 21.0798 45.3384C21.2076 45.4919 21.2993 45.6712 21.3483 45.8635C21.3579 46.0379 21.3134 46.2111 21.2204 46.36C21.1275 46.509 20.9906 46.6266 20.828 46.6973L16.9947 48.8625C16.5168 49.0725 15.9955 49.1697 15.4725 49.1464C14.9495 49.123 14.4393 48.9797 13.9828 48.728L6.11069 44.2632C5.92848 44.1779 5.76772 44.0541 5.63991 43.9007C5.5121 43.7472 5.42042 43.5679 5.37141 43.3756C5.36175 43.2012 5.40634 43.028 5.49926 42.8791C5.59218 42.7301 5.72905 42.6125 5.89166 42.5418L9.71132 40.3901C10.1897 40.1748 10.7131 40.0735 11.2389 40.0945C11.7647 40.1155 12.278 40.2583 12.7369 40.5111L20.609 44.9759Z" fill="#4F1D8E"/>
<path d="M6.39872 44.3299L14.2708 48.8082C14.6478 49.0186 15.0703 49.1381 15.5034 49.1568C15.9366 49.1755 16.3682 49.0929 16.7625 48.9158L20.5822 46.7506C21.2256 46.3875 21.1572 45.7554 20.4179 45.3251L12.5458 40.8469C12.1671 40.6342 11.7422 40.5135 11.3064 40.4948C10.8706 40.476 10.4366 40.5599 10.0404 40.7393L6.22074 42.9044C5.57728 43.281 5.65943 43.913 6.39872 44.3299Z" fill="#FFC440"/>
<g opacity="0.6">
<path opacity="0.6" d="M12.2722 40.726L11.971 40.6318L6.00195 44.0208C6.04964 44.0811 6.10483 44.1353 6.16623 44.1822L7.6585 43.3349L10.1502 44.747C9.62995 45.1908 9.78055 45.8497 10.5746 46.307C10.99 46.5288 11.4472 46.6646 11.9182 46.7063C12.3891 46.7479 12.8637 46.6944 13.3127 46.549L15.9276 48.0283L14.4353 48.8756L14.7092 48.9966L20.7467 45.5673L20.555 45.4194L18.8985 46.3473L16.2972 44.868C16.8586 44.4242 16.7217 43.7518 15.9139 43.2811C15.4968 43.063 15.0386 42.9313 14.5676 42.8943C14.0966 42.8573 13.6229 42.9157 13.1758 43.066L10.6567 41.6539L12.2722 40.726ZM13.5728 46.428L16.0919 45.0025L18.6794 46.4683L16.133 47.9207L13.5455 46.4415L13.5728 46.428ZM10.8347 46.1859C10.1639 45.8094 10.027 45.2715 10.4377 44.8411L13.1758 46.3742C12.7878 46.5138 12.3745 46.5728 11.9621 46.5473C11.5496 46.5218 11.1471 46.4125 10.78 46.2263L10.8347 46.1859ZM15.7496 43.4022C16.4342 43.7922 16.5574 44.357 16.0919 44.747L13.3538 43.2139C13.7365 43.0873 14.1415 43.0387 14.5441 43.0711C14.9466 43.1035 15.3382 43.2161 15.6949 43.4022H15.7496ZM13.1758 43.308L15.9139 44.868L13.3949 46.2935L10.6567 44.7604L13.1758 43.308ZM12.9294 43.1735L10.4103 44.599L7.91863 43.2542L10.4788 41.8018L12.9294 43.1735Z" fill="#D88C1D"/>
</g>
<path d="M51.4672 67.3653C50.7709 67.7105 50.0019 67.8903 49.222 67.8903C48.442 67.8903 47.673 67.7105 46.9767 67.3653C46.7028 67.2769 46.4643 67.1058 46.2953 66.8763C46.1262 66.6469 46.0352 66.3709 46.0352 66.0877C46.0352 65.8045 46.1262 65.5285 46.2953 65.2991C46.4643 65.0697 46.7028 64.8986 46.9767 64.8102C47.673 64.465 48.442 64.2852 49.222 64.2852C50.0019 64.2852 50.7709 64.465 51.4672 64.8102C51.7411 64.8986 51.9796 65.0697 52.1487 65.2991C52.3178 65.5285 52.4088 65.8045 52.4088 66.0877C52.4088 66.3709 52.3178 66.6469 52.1487 66.8763C51.9796 67.1058 51.7411 67.2769 51.4672 67.3653Z" fill="#9B2C2C"/>
<path d="M56.6291 70.2864C55.9328 70.6316 55.1637 70.8114 54.3838 70.8114C53.6039 70.8114 52.8348 70.6316 52.1386 70.2864C51.8696 70.195 51.6363 70.0234 51.4711 69.7956C51.306 69.5679 51.2173 69.2952 51.2173 69.0156C51.2173 68.736 51.306 68.4633 51.4711 68.2355C51.6363 68.0077 51.8696 67.8362 52.1386 67.7447C52.8348 67.3995 53.6039 67.2197 54.3838 67.2197C55.1637 67.2197 55.9328 67.3995 56.6291 67.7447C56.8981 67.8362 57.1314 68.0077 57.2965 68.2355C57.4616 68.4633 57.5503 68.736 57.5503 69.0156C57.5503 69.2952 57.4616 69.5679 57.2965 69.7956C57.1314 70.0234 56.8981 70.195 56.6291 70.2864Z" fill="#F4AC1C"/>
<path d="M68.6497 61.2325C68.4 61.2346 68.1549 61.2994 67.9378 61.4208L66.2676 62.3756C66.0348 62.4966 65.9253 62.6311 65.9253 62.779C65.9253 62.927 66.0348 63.0614 66.2539 63.1825L66.7331 63.4514C66.9484 63.577 67.1946 63.6421 67.4449 63.6397C67.6999 63.6446 67.9513 63.5794 68.1705 63.4514L69.8408 62.4966C70.0599 62.3711 70.1694 62.2366 70.1694 62.0932C70.1694 61.9497 70.0599 61.8152 69.8408 61.6897L69.3616 61.4208C69.1463 61.2952 68.9001 61.2301 68.6497 61.2325ZM68.2664 61.6359C68.3919 61.5597 68.5364 61.5194 68.6839 61.5194C68.8315 61.5194 68.9761 61.5597 69.1015 61.6359L69.4985 61.8646C69.7587 62.0125 69.7587 62.1604 69.4985 62.3218L67.8557 63.2632C67.7313 63.3353 67.5894 63.3734 67.4449 63.3734C67.3005 63.3734 67.1586 63.3353 67.0342 63.2632L66.6372 63.0345C66.3634 62.8732 66.3771 62.7252 66.6372 62.5639L68.2664 61.6359Z" fill="#FFADED"/>
<path d="M66.1853 59.836C65.9356 59.8381 65.6905 59.9029 65.4734 60.0243L63.8032 60.9791C63.5705 61.1136 63.4609 61.2481 63.4609 61.3826C63.4609 61.517 63.5704 61.665 63.7895 61.786L64.2824 62.0684C64.495 62.1869 64.7361 62.2473 64.9806 62.2432C65.2363 62.2544 65.4894 62.1887 65.7062 62.055L67.3764 61.1136C67.5955 60.9791 67.705 60.8446 67.705 60.6967C67.705 60.5488 67.5955 60.4277 67.3764 60.3067L66.8973 60.0243C66.6819 59.8988 66.4357 59.8336 66.1853 59.836ZM65.802 60.2395C65.9275 60.1633 66.0721 60.1229 66.2196 60.1229C66.3671 60.1229 66.5117 60.1633 66.6371 60.2395L67.0341 60.4681C67.2943 60.616 67.2943 60.7774 67.0341 60.9253L65.3913 61.8667C65.2679 61.9417 65.1257 61.9814 64.9806 61.9814C64.8355 61.9814 64.6932 61.9417 64.5699 61.8667L64.1728 61.6381C63.899 61.4901 63.9127 61.3288 64.1728 61.1674L65.802 60.2395Z" fill="#FFADED"/>
<path d="M63.721 58.4516C63.4706 58.4493 63.2244 58.5144 63.0091 58.6399L61.3388 59.5813C61.1061 59.7158 60.9966 59.8503 60.9966 59.9847C60.9966 60.1192 61.1061 60.2672 61.3251 60.3882L61.818 60.6706C62.0293 60.7938 62.2705 60.8588 62.5162 60.8589C62.7726 60.8597 63.024 60.7898 63.2418 60.6572L64.9121 59.7158C65.1311 59.5813 65.2406 59.4468 65.2406 59.3123C65.2406 59.1644 65.1448 59.0299 64.9258 58.9089L64.4329 58.6265C64.2162 58.5056 63.9701 58.4452 63.721 58.4516ZM63.3514 58.8417C63.4747 58.7666 63.617 58.7269 63.7621 58.7269C63.9072 58.7269 64.0494 58.7666 64.1728 58.8417L64.5698 59.0703C64.8299 59.2182 64.8299 59.3796 64.5698 59.5409L62.9269 60.4689C62.8036 60.5439 62.6613 60.5837 62.5162 60.5837C62.3711 60.5837 62.2289 60.5439 62.1055 60.4689L61.7085 60.2403C61.4347 60.0923 61.4484 59.931 61.7085 59.7696L63.3514 58.8417Z" fill="#FFADED"/>
<path d="M61.3113 57.051C61.0563 57.0462 60.805 57.1114 60.5857 57.2393L58.9155 58.1807C58.6828 58.3151 58.5732 58.4496 58.5732 58.5976C58.5732 58.7455 58.6965 58.8665 58.9155 58.9876L59.3947 59.27C59.606 59.3931 59.8472 59.4582 60.0929 59.4582C60.3471 59.4566 60.5967 59.3919 60.8185 59.27L62.4887 58.3152C62.7078 58.1941 62.831 58.0596 62.831 57.9117C62.831 57.7638 62.7215 57.6293 62.5024 57.5083L62.0096 57.2393C61.8 57.1122 61.5576 57.0469 61.3113 57.051ZM60.928 57.441C61.0514 57.366 61.1936 57.3263 61.3387 57.3263C61.4838 57.3263 61.6261 57.366 61.7495 57.441L62.1465 57.6696C62.4066 57.8176 62.4066 57.9789 62.1465 58.1403L60.5036 59.0682C60.3802 59.1433 60.238 59.183 60.0929 59.183C59.9478 59.183 59.8056 59.1433 59.6822 59.0682L59.2852 58.8396C59.025 58.6917 59.025 58.5303 59.2852 58.3689L60.928 57.441Z" fill="#FFADED"/>
<path d="M55.2596 53.6475C55.0092 53.6452 54.763 53.7103 54.5477 53.8358L52.8774 54.7772C52.6447 54.9116 52.5352 55.0461 52.5352 55.1941C52.5352 55.342 52.6584 55.463 52.8637 55.5975L53.3566 55.8665C53.5679 55.9896 53.8091 56.0547 54.0548 56.0547C54.309 56.0531 54.5586 55.9884 54.7804 55.8665L56.4507 54.9117C56.6697 54.7906 56.7929 54.6561 56.7929 54.5082C56.7929 54.3603 56.6834 54.2258 56.4644 54.1048L55.9715 53.8358C55.7562 53.7103 55.51 53.6452 55.2596 53.6475ZM54.8899 54.0375C55.0133 53.9625 55.1556 53.9228 55.3007 53.9228C55.4458 53.9228 55.588 53.9625 55.7114 54.0375L56.1084 54.2661C56.3685 54.4141 56.3685 54.5754 56.1084 54.7368L54.4655 55.6378C54.3422 55.7129 54.1999 55.7526 54.0548 55.7526C53.9097 55.7526 53.7675 55.7129 53.6441 55.6378L53.2471 55.4092C52.9733 55.2613 52.987 55.0999 53.2471 54.952L54.8899 54.0375Z" fill="#FFADED"/>
<path d="M52.8099 52.252C52.5557 52.2536 52.3061 52.3183 52.0843 52.4402L50.414 53.3951C50.1813 53.5161 50.0718 53.6506 50.0718 53.7985C50.0718 53.9464 50.195 54.0674 50.414 54.2019L50.8932 54.4709C51.1085 54.5964 51.3548 54.6615 51.6051 54.6592C51.8546 54.6553 52.0993 54.5906 52.317 54.4709L53.9873 53.5161C54.22 53.395 54.3295 53.2606 54.3295 53.1126C54.3295 52.9647 54.22 52.8302 54.001 52.7092L53.5081 52.4402C53.2968 52.3171 53.0556 52.252 52.8099 52.252ZM52.4265 52.642C52.5481 52.5622 52.6911 52.5196 52.8373 52.5196C52.9835 52.5196 53.1264 52.5622 53.248 52.642L53.645 52.8571C53.9051 53.0185 53.9051 53.1664 53.645 53.3278L51.9885 54.2557C51.8651 54.3307 51.7228 54.3705 51.5777 54.3705C51.4326 54.3705 51.2904 54.3307 51.167 54.2557L50.77 54.0271C50.5099 53.8792 50.5099 53.7178 50.77 53.5699L52.4265 52.642Z" fill="#FFADED"/>
<path d="M50.3583 50.8535C50.1041 50.8551 49.8545 50.9199 49.6327 51.0418L47.9624 51.9966C47.7434 52.1176 47.6202 52.2521 47.6338 52.4001C47.6475 52.548 47.7434 52.6825 47.9624 52.8035L48.4416 53.0725C48.6569 53.198 48.9031 53.2631 49.1535 53.2607C49.4033 53.2586 49.6483 53.1938 49.8654 53.0725L51.5357 52.1177C51.7684 51.9966 51.8779 51.8621 51.8779 51.7142C51.8779 51.5663 51.7684 51.4318 51.5494 51.3108L51.0702 51.0418C50.8531 50.9204 50.608 50.8556 50.3583 50.8535ZM49.9749 51.2435C50.0978 51.167 50.2402 51.1263 50.3857 51.1263C50.5311 51.1263 50.6736 51.167 50.7964 51.2435L51.1934 51.4587C51.4672 51.6201 51.4535 51.768 51.1934 51.9294L49.5368 52.8708C49.414 52.9473 49.2716 52.9879 49.1261 52.9879C48.9807 52.9879 48.8382 52.9473 48.7154 52.8708L48.3184 52.6556C48.0583 52.4942 48.0583 52.3463 48.3184 52.1849L49.9749 51.2435Z" fill="#FFADED"/>
<path d="M47.8807 49.4551C47.6303 49.4528 47.3841 49.5179 47.1688 49.6434L45.4848 50.5982C45.2658 50.7148 45.1562 50.8493 45.1562 51.0017C45.1562 51.1541 45.2658 51.2886 45.4848 51.4051L45.964 51.6741C46.1793 51.7996 46.4255 51.8647 46.6759 51.8624C46.9263 51.8647 47.1725 51.7996 47.3878 51.6741L49.0717 50.7193C49.2908 50.5938 49.4003 50.4593 49.4003 50.3158C49.4003 50.1724 49.2908 50.0379 49.0717 49.9124L48.5926 49.6434C48.3755 49.5221 48.1304 49.4573 47.8807 49.4551ZM47.4973 49.8451C47.6202 49.7686 47.7626 49.728 47.9081 49.728C48.0535 49.728 48.1959 49.7686 48.3188 49.8451L48.7158 50.0738C48.9896 50.2217 48.9759 50.3696 48.7158 50.531L47.0592 51.4724C46.9364 51.5489 46.794 51.5896 46.6485 51.5896C46.5031 51.5896 46.3606 51.5489 46.2378 51.4724L45.8545 51.2572C45.5807 51.0958 45.5807 50.9479 45.8545 50.7865L47.4973 49.8451Z" fill="#FFADED"/>
<path d="M41.8846 46.0538C41.6342 46.0514 41.388 46.1165 41.1726 46.242L39.4887 47.1969C39.2697 47.3179 39.1602 47.4658 39.1602 47.6003C39.1602 47.7348 39.2697 47.8827 39.4887 48.0038L39.9679 48.2727C40.1832 48.3983 40.4294 48.4634 40.6798 48.461C40.9302 48.4634 41.1764 48.3983 41.3917 48.2727L43.0756 47.3314C43.2947 47.1969 43.4042 47.0624 43.4042 46.9145C43.4042 46.7665 43.2947 46.6455 43.0756 46.511L42.5965 46.242C42.3794 46.1207 42.1343 46.0559 41.8846 46.0538ZM41.5012 46.4572C41.6246 46.3822 41.7668 46.3425 41.9119 46.3425C42.0571 46.3425 42.1993 46.3822 42.3227 46.4572L42.7197 46.6858C42.9935 46.8338 42.9798 46.9817 42.7197 47.1431L41.0631 48.0845C40.9398 48.1595 40.7975 48.1992 40.6524 48.1992C40.5073 48.1992 40.3651 48.1595 40.2417 48.0845L39.8584 47.8559C39.5846 47.6945 39.5846 47.5465 39.8584 47.3852L41.5012 46.4572Z" fill="#FFADED"/>
<path d="M39.4066 44.6534C39.1562 44.651 38.91 44.7161 38.6946 44.8417L37.0107 45.7965C36.7917 45.9309 36.6821 46.0654 36.6821 46.1999C36.6821 46.3344 36.7917 46.4689 37.0107 46.6034L37.4899 46.8858C37.7066 47.0066 37.9527 47.067 38.2018 47.0606C38.4532 47.0716 38.7019 47.0058 38.9137 46.8723L40.5976 45.931C40.8167 45.7965 40.9262 45.662 40.9262 45.5275C40.9262 45.393 40.8167 45.2585 40.5976 45.1241L40.1185 44.8417C39.9014 44.7203 39.6563 44.6555 39.4066 44.6534ZM39.0232 45.0568C39.1466 44.9818 39.2888 44.9421 39.4339 44.9421C39.579 44.9421 39.7213 44.9818 39.8447 45.0568L40.2417 45.2854C40.5155 45.4334 40.5018 45.5948 40.2417 45.7427L38.5988 46.684C38.4754 46.7591 38.3332 46.7988 38.1881 46.7988C38.043 46.7988 37.9008 46.7591 37.7774 46.684L37.3804 46.4554C37.1065 46.3075 37.1065 46.1461 37.3804 45.9848L39.0232 45.0568Z" fill="#FFADED"/>
<path d="M36.9559 43.269C36.7055 43.2667 36.4593 43.3318 36.244 43.4573L34.56 44.3987C34.341 44.5331 34.2314 44.6676 34.2314 44.8021C34.2314 44.9366 34.341 45.0711 34.56 45.2055L35.0392 45.4879C35.2563 45.6093 35.5013 45.6741 35.7511 45.6762C36.0028 45.6745 36.2491 45.6047 36.463 45.4745L38.1469 44.5331C38.366 44.3987 38.4755 44.2642 38.4755 44.1297C38.4755 43.9952 38.366 43.8607 38.1469 43.7263L37.6678 43.4438C37.4511 43.323 37.205 43.2626 36.9559 43.269ZM36.5725 43.659C36.6959 43.584 36.8381 43.5443 36.9832 43.5443C37.1283 43.5443 37.2706 43.584 37.394 43.659L37.791 43.8876C38.0648 44.0356 38.0511 44.1969 37.791 44.3583L36.1481 45.2862C36.0247 45.3613 35.8825 45.401 35.7374 45.401C35.5923 45.401 35.4501 45.3613 35.3267 45.2862L34.9297 45.0576C34.6558 44.9097 34.6558 44.7483 34.9297 44.5869L36.5725 43.659Z" fill="#FFADED"/>
<path d="M34.491 41.8702C34.2407 41.8678 33.9944 41.9329 33.7791 42.0585L32.0952 42.9998C31.8761 43.1343 31.7666 43.2688 31.7666 43.4167C31.7666 43.5647 31.8761 43.6857 32.0952 43.8067L32.5743 44.0891C32.7914 44.2105 33.0365 44.2753 33.2863 44.2774C33.5366 44.2798 33.7829 44.2147 33.9982 44.0891L35.6821 43.1343C35.9012 43.0178 36.0107 42.8833 36.0107 42.7309C36.0107 42.5785 35.9012 42.444 35.6821 42.3274L35.2029 42.0585C34.9876 41.9329 34.7414 41.8678 34.491 41.8702ZM34.1077 42.2602C34.2332 42.184 34.3777 42.1436 34.5252 42.1436C34.6728 42.1436 34.8174 42.184 34.9428 42.2602L35.3262 42.4888C35.6 42.6367 35.5863 42.7981 35.3262 42.9595L33.6833 43.8874C33.5599 43.9624 33.4177 44.0022 33.2726 44.0022C33.1275 44.0022 32.9852 43.9624 32.8619 43.8874L32.4648 43.6588C32.191 43.5109 32.191 43.3495 32.4648 43.1881L34.1077 42.2602Z" fill="#FFADED"/>
<path d="M28.4544 38.4669C28.204 38.4645 27.9578 38.5296 27.7425 38.6551L26.0586 39.5965C25.8395 39.731 25.73 39.8655 25.73 40.0134C25.73 40.1613 25.8395 40.2823 26.0586 40.4168L26.5377 40.6858C26.7548 40.8071 26.9999 40.872 27.2496 40.8741C27.5 40.8764 27.7462 40.8113 27.9615 40.6858L29.6455 39.731C29.8645 39.6144 29.9741 39.4799 29.9741 39.3275C29.9741 39.1751 29.8645 39.0407 29.6455 38.9241L29.1663 38.6551C28.951 38.5296 28.7048 38.4645 28.4544 38.4669ZM28.0711 38.8569C28.1945 38.7818 28.3367 38.7421 28.4818 38.7421C28.6269 38.7421 28.7691 38.7818 28.8925 38.8569L29.2895 39.0855C29.5633 39.2334 29.5497 39.3948 29.2895 39.5561L27.6467 40.4841C27.5233 40.5591 27.3811 40.5988 27.236 40.5988C27.0908 40.5988 26.9486 40.5591 26.8252 40.4841L26.4282 40.2555C26.1544 40.1075 26.1544 39.9462 26.4282 39.7982L28.0711 38.8569Z" fill="#FFADED"/>
<path d="M26.0311 37.0684C25.7813 37.0705 25.5362 37.1353 25.3192 37.2567L23.6489 38.2115C23.4162 38.3325 23.3066 38.467 23.3066 38.615C23.3066 38.7629 23.4162 38.8839 23.6352 39.0184L24.1144 39.2874C24.3315 39.4087 24.5765 39.4735 24.8263 39.4756C25.0805 39.474 25.3301 39.4093 25.5519 39.2874L27.2221 38.3326C27.4412 38.216 27.5507 38.0815 27.5507 37.9291C27.5507 37.7767 27.4412 37.6422 27.2221 37.5257L26.743 37.2567C26.5277 37.1312 26.2814 37.0661 26.0311 37.0684ZM25.6477 37.4584C25.772 37.3791 25.9171 37.3369 26.0653 37.3369C26.2135 37.3369 26.3585 37.3791 26.4828 37.4584L26.8799 37.6736C27.14 37.835 27.14 37.9829 26.8799 38.1443L25.237 39.0722C25.1136 39.1472 24.9714 39.187 24.8263 39.187C24.6812 39.187 24.539 39.1472 24.4156 39.0722L24.0185 38.8436C23.7447 38.6956 23.7584 38.5343 24.0185 38.3863L25.6477 37.4584Z" fill="#FFADED"/>
<path d="M23.5662 35.67C23.3164 35.6721 23.0714 35.7369 22.8543 35.8583L21.1841 36.8131C20.9513 36.9341 20.8418 37.0686 20.8418 37.2165C20.8418 37.3645 20.9513 37.499 21.1704 37.62L21.6632 37.8889C21.8745 38.0121 22.1157 38.0771 22.3614 38.0772C22.6164 38.0821 22.8678 38.0169 23.087 37.8889L24.7573 36.9341C24.9763 36.8086 25.0859 36.6741 25.0859 36.5307C25.0859 36.3827 24.9763 36.2617 24.7573 36.1272L24.2781 35.8583C24.0628 35.7327 23.8166 35.6676 23.5662 35.67ZM23.1829 36.06C23.3083 35.9838 23.4529 35.9434 23.6004 35.9434C23.7479 35.9434 23.8925 35.9838 24.018 36.06L24.415 36.2752C24.6752 36.4365 24.6752 36.5845 24.415 36.7458L22.7722 37.6872C22.6494 37.7637 22.5069 37.8044 22.3614 37.8044C22.216 37.8044 22.0735 37.7637 21.9507 37.6872L21.5537 37.4721C21.2799 37.3107 21.2936 37.1627 21.5537 37.0014L23.1829 36.06Z" fill="#FFADED"/>
<path d="M20.3904 34.4598L18.7202 35.4147C18.4875 35.5357 18.3779 35.6702 18.3779 35.8181C18.3779 35.966 18.4875 36.1005 18.7065 36.2215L19.1994 36.4905C19.409 36.6176 19.6513 36.6829 19.8976 36.6788C20.1526 36.6836 20.4039 36.6184 20.6232 36.4905L22.2934 35.5357C22.5125 35.4191 22.622 35.2846 22.622 35.1322C22.622 34.9977 22.5262 34.8633 22.3071 34.7288L21.8143 34.4598C21.5989 34.3343 21.3527 34.2692 21.1024 34.2715C20.8526 34.2737 20.6075 34.3385 20.3904 34.4598ZM20.7327 34.675C20.8561 34.6 20.9983 34.5602 21.1434 34.5602C21.2885 34.5602 21.4308 34.6 21.5541 34.675L21.9512 34.9036C22.2113 35.0515 22.2113 35.1995 21.9512 35.3608L20.3083 36.3022C20.1855 36.3788 20.043 36.4194 19.8976 36.4194C19.7521 36.4194 19.6097 36.3788 19.4869 36.3022L19.0898 36.0871C18.816 35.9257 18.8297 35.7777 19.0898 35.6164L20.7327 34.675Z" fill="#FFADED"/>
<path d="M30.2203 28.8779L32.6161 27.5331C32.6364 27.5198 32.6602 27.5127 32.6846 27.5127C32.709 27.5127 32.7328 27.5198 32.753 27.5331L33.7251 28.0845C33.9167 28.192 34.0126 28.3131 34.0126 28.4341C34.0126 28.5552 33.9304 28.6762 33.7251 28.7838L32.356 29.5234C32.1689 29.63 31.9562 29.6857 31.7399 29.6848C31.5282 29.6839 31.3204 29.6283 31.1376 29.5234L30.1655 28.972C30.1655 28.972 30.1655 28.9048 30.2203 28.8779ZM30.9048 28.972L31.4661 29.2948C31.5525 29.3472 31.6521 29.3749 31.7536 29.3749C31.8552 29.3749 31.9547 29.3472 32.0411 29.2948L33.328 28.5686C33.5197 28.461 33.5197 28.3534 33.328 28.2458L32.7667 27.9231H32.6846L30.8911 28.9317C30.8911 28.9317 30.8774 28.9586 30.9048 28.972Z" fill="#FFADED"/>
<path d="M33.6702 30.9223L32.4106 30.2096C32.4106 30.2096 32.4106 30.2096 32.4106 30.1289L34.8065 28.7841C34.8268 28.7708 34.8506 28.7637 34.875 28.7637C34.8993 28.7637 34.9231 28.7708 34.9434 28.7841L36.2166 29.4968L36.025 29.6178C36.0047 29.6311 35.9809 29.6382 35.9565 29.6382C35.9321 29.6382 35.9083 29.6311 35.888 29.6178L34.9845 29.1068H34.9023L34.2315 29.4834L34.9982 29.9675C34.9982 29.9675 34.9982 29.9675 34.9982 30.0348L34.7928 30.1558C34.7725 30.1691 34.7487 30.1762 34.7244 30.1762C34.7 30.1762 34.6762 30.1691 34.6559 30.1558L33.8892 29.7254H33.8071L33.1089 30.1289L34.0124 30.6399C34.0124 30.6399 34.0124 30.6399 34.0124 30.7072L33.8208 30.8282C33.8176 30.8443 33.811 30.8596 33.8016 30.8731C33.7922 30.8867 33.7801 30.8982 33.766 30.907C33.7519 30.9158 33.7362 30.9217 33.7197 30.9243C33.7032 30.927 33.6864 30.9263 33.6702 30.9223Z" fill="#FFADED"/>
<path d="M34.3 31.2042L36.7095 29.8594H36.8464L37.7774 30.3973C37.8518 30.4285 37.9178 30.4764 37.9701 30.5371C38.0224 30.5978 38.0595 30.6697 38.0786 30.747C38.0786 30.868 37.9828 30.9756 37.7911 31.0832L37.5994 31.2042C37.4827 31.2653 37.3547 31.3028 37.223 31.3144C37.0913 31.3259 36.9586 31.3113 36.8327 31.2714C36.8701 31.2942 36.901 31.3258 36.9226 31.3634C36.9441 31.4011 36.9556 31.4434 36.956 31.4866C36.956 31.5673 36.8738 31.648 36.7369 31.7152L36.4905 31.8632C36.3076 31.968 36.0998 32.0237 35.8881 32.0245C35.6718 32.0254 35.4591 31.9697 35.272 31.8632L34.3 31.3118C34.3 31.3118 34.2589 31.2311 34.3 31.2042ZM36.1208 30.6528L36.6274 30.9487C36.7164 31.0008 36.8181 31.0283 36.9217 31.0283C37.0253 31.0283 37.127 31.0008 37.2161 30.9487L37.4077 30.8546C37.5857 30.747 37.5857 30.6394 37.4077 30.5183L36.8875 30.2225H36.8054L36.1345 30.6125C36.1345 30.6125 36.0935 30.6394 36.1208 30.6528ZM34.9845 31.2983L35.5458 31.6076C35.631 31.6632 35.7311 31.6928 35.8333 31.6928C35.9356 31.6928 36.0356 31.6632 36.1208 31.6076L36.3673 31.4597C36.5589 31.3521 36.5452 31.2445 36.3673 31.1235L35.8333 30.8276H35.7512L35.0119 31.2445L34.9845 31.2983Z" fill="#FFADED"/>
<path d="M39.2973 31.2977L36.8877 32.6426C36.8675 32.6559 36.8436 32.6629 36.8193 32.6629C36.7949 32.6629 36.7711 32.6559 36.7508 32.6426L36.5044 32.4946C36.5044 32.4946 36.5044 32.4946 36.5044 32.4274L38.9139 31.0826C38.9312 31.0684 38.953 31.0605 38.9755 31.0605C38.9981 31.0605 39.0199 31.0684 39.0371 31.0826L39.2973 31.2305C39.2973 31.2305 39.4068 31.2708 39.2973 31.2977Z" fill="#FFADED"/>
<path d="M38.1058 33.4386L37.8594 33.3041C37.8594 33.3041 37.8594 33.3041 37.8594 33.2234L39.954 32.0266C39.7995 31.9052 39.6346 31.7972 39.4612 31.7038C39.4612 31.7038 39.4612 31.7038 39.4612 31.6231L39.6665 31.5155C39.6868 31.5022 39.7106 31.4951 39.735 31.4951C39.7594 31.4951 39.7832 31.5022 39.8034 31.5155L41.2683 32.3493L41.0767 32.4703C41.0564 32.4836 41.0326 32.4907 41.0082 32.4907C40.9838 32.4907 40.96 32.4836 40.9398 32.4703L40.4332 32.1879C40.4207 32.1808 40.4066 32.1771 40.3921 32.1771C40.3777 32.1771 40.3636 32.1808 40.3511 32.1879L38.2564 33.3714C38.2443 33.3989 38.2221 33.4211 38.1943 33.4335C38.1665 33.4459 38.1349 33.4478 38.1058 33.4386Z" fill="#FFADED"/>
<path d="M41.1041 35.1339L40.6386 34.8784C40.4469 34.7708 40.3511 34.6498 40.3511 34.5288C40.3511 34.4077 40.4469 34.2867 40.6386 34.1791L42.0076 33.4395C42.1937 33.3288 42.4062 33.2685 42.6237 33.2646C42.8409 33.2703 43.053 33.3305 43.2398 33.4395L43.6916 33.695C43.8832 33.8026 43.9791 33.9236 43.9791 34.0446C43.9791 34.1657 43.8832 34.2733 43.6916 34.3943L43.4999 34.5019C43.4796 34.5152 43.4558 34.5223 43.4314 34.5223C43.4071 34.5223 43.3832 34.5152 43.363 34.5019L43.1166 34.3539C43.1166 34.3539 43.1166 34.3539 43.1166 34.2733L43.2945 34.1791C43.4862 34.0715 43.4862 33.964 43.2945 33.8564L42.9523 33.6546C42.867 33.5991 42.767 33.5695 42.6648 33.5695C42.5625 33.5695 42.4625 33.5991 42.3773 33.6546L41.0904 34.3808C40.8987 34.4884 40.8987 34.596 41.0904 34.7036L41.4326 34.9053C41.52 34.9549 41.6192 34.981 41.7201 34.981C41.8211 34.981 41.9202 34.9549 42.0076 34.9053L42.1856 34.8112C42.2059 34.7979 42.2297 34.7908 42.2541 34.7908C42.2784 34.7908 42.3022 34.7979 42.3225 34.8112L42.5689 34.9457C42.5689 34.9457 42.5689 34.9457 42.5689 35.0264L42.3773 35.1339C42.1901 35.2405 41.9775 35.2962 41.7612 35.2953C41.5309 35.3044 41.3029 35.2484 41.1041 35.1339Z" fill="#FFADED"/>
<path d="M42.3363 35.8349L42.0488 35.6735L45.1429 34.7052C45.1679 34.691 45.1962 34.6836 45.2251 34.6836C45.2539 34.6836 45.2822 34.691 45.3072 34.7052L45.7042 34.9204C45.7042 34.9204 45.7042 34.9876 45.7042 35.0145L43.9929 36.7762C43.9738 36.7857 43.9527 36.7906 43.9313 36.7906C43.9099 36.7906 43.8888 36.7857 43.8697 36.7762L43.5959 36.6149C43.5959 36.5342 43.9518 36.1576 43.9518 36.1576L43.0893 35.66L42.4185 35.8752C42.3875 35.8705 42.3588 35.8564 42.3363 35.8349ZM45.1429 34.9876L43.5137 35.4718L44.2256 35.8752L45.1292 34.9607L45.1429 34.9876Z" fill="#FFADED"/>
<path d="M44.6776 37.1595L44.4312 37.025C44.4312 37.025 44.4312 37.025 44.4312 36.9443L46.8407 35.5995C46.8609 35.5862 46.8848 35.5791 46.9091 35.5791C46.9335 35.5791 46.9573 35.5862 46.9776 35.5995L47.8949 36.124C48.0865 36.2316 48.1824 36.3391 48.1824 36.4736C48.1824 36.6081 48.0865 36.7022 47.8949 36.8233L47.5663 37.0115C47.4245 37.0915 47.2676 37.1423 47.1052 37.1608C46.9428 37.1792 46.7783 37.1651 46.6216 37.1191L46.1151 37.8991C46.1151 37.8991 46.0466 37.8991 45.9782 37.8991L45.7455 37.7646C45.7455 37.7646 45.6633 37.6839 45.7455 37.6571L46.2246 36.904L45.8276 36.6753C45.8276 36.6753 45.7591 36.6753 45.7455 36.6753L44.8693 37.1595C44.8577 37.1735 44.8431 37.1848 44.8265 37.1926C44.8099 37.2004 44.7918 37.2044 44.7734 37.2044C44.755 37.2044 44.7369 37.2004 44.7203 37.1926C44.7037 37.1848 44.6891 37.1735 44.6776 37.1595ZM46.0466 36.4871L46.5395 36.7829C46.6285 36.835 46.7302 36.8625 46.8338 36.8625C46.9375 36.8625 47.0392 36.835 47.1282 36.7829L47.4568 36.5946C47.6484 36.4871 47.6484 36.366 47.4568 36.2584L46.9502 35.976H46.8681L46.0329 36.4467C46.0329 36.4467 46.0603 36.4736 46.0877 36.4871H46.0466Z" fill="#FFADED"/>
<path d="M46.5665 38.1572L48.976 36.8124C48.9963 36.7991 49.0201 36.792 49.0445 36.792C49.0688 36.792 49.0927 36.7991 49.1129 36.8124L50.085 37.3638C50.2766 37.4714 50.3725 37.5924 50.3725 37.7134C50.3725 37.8344 50.2766 37.942 50.085 38.0631L48.7159 38.8027C48.5286 38.9089 48.3161 38.9649 48.0998 38.9649C47.8835 38.9649 47.6711 38.9089 47.4837 38.8027L46.5117 38.2514C46.5117 38.2514 46.5254 38.1572 46.5665 38.1572ZM47.2647 38.2514L47.826 38.5607C47.9124 38.613 48.012 38.6407 48.1135 38.6407C48.2151 38.6407 48.3146 38.613 48.401 38.5607L49.6879 37.8344C49.8796 37.7269 49.8796 37.6193 49.6879 37.5117L49.1403 37.1889H49.0582L47.2647 38.1975C47.2647 38.1975 47.2373 38.2379 47.2647 38.2514Z" fill="#FFADED"/>
<defs>
<linearGradient id="paint0_linear_912_30625" x1="7.60938" y1="25.7302" x2="95.0099" y2="25.7302" gradientUnits="userSpaceOnUse">
<stop stop-color="#1D2F8E"/>
<stop offset="1" stop-color="#2724A5"/>
</linearGradient>
<linearGradient id="paint1_linear_912_30625" x1="8.36195" y1="14.0039" x2="82.7935" y2="34.3444" gradientUnits="userSpaceOnUse">
<stop stop-color="#3F5BBD"/>
<stop offset="1" stop-color="#4A58DA"/>
</linearGradient>
<linearGradient id="paint2_linear_912_30625" x1="0.00537109" y1="50.073" x2="87.4059" y2="50.073" gradientUnits="userSpaceOnUse">
<stop stop-color="#8E1D53"/>
<stop offset="1" stop-color="#A52471"/>
</linearGradient>
<linearGradient id="paint3_linear_912_30625" x1="0.757949" y1="38.3466" x2="75.1895" y2="58.6872" gradientUnits="userSpaceOnUse">
<stop stop-color="#BD3F8B"/>
<stop offset="1" stop-color="#DA4A6D"/>
</linearGradient>
</defs>
</svg>
