<svg width="24" height="24" viewBox="0 0 24 24" fill="none" xmlns="http://www.w3.org/2000/svg">
<path fill-rule="evenodd" clip-rule="evenodd" d="M7.2001 10.4004C6.3201 10.4004 5.6001 11.1204 5.6001 12.0004C5.6001 12.8804 6.3201 13.6004 7.2001 13.6004C8.0801 13.6004 8.8001 12.8804 8.8001 12.0004C8.8001 11.1204 8.0801 10.4004 7.2001 10.4004ZM16.8001 10.4004C15.9201 10.4004 15.2001 11.1204 15.2001 12.0004C15.2001 12.8804 15.9201 13.6004 16.8001 13.6004C17.6801 13.6004 18.4001 12.8804 18.4001 12.0004C18.4001 11.1204 17.6801 10.4004 16.8001 10.4004ZM12.0001 10.4004C11.1201 10.4004 10.4001 11.1204 10.4001 12.0004C10.4001 12.8804 11.1201 13.6004 12.0001 13.6004C12.8801 13.6004 13.6001 12.8804 13.6001 12.0004C13.6001 11.1204 12.8801 10.4004 12.0001 10.4004Z" fill="black"/>
</svg>
