<svg width="16" height="16" viewBox="0 0 16 16" fill="none" xmlns="http://www.w3.org/2000/svg">
<g clip-path="url(#clip0_912_27520)">
<path d="M6.94706 6.21212C7.56426 5.54268 7.90432 4.64469 7.90432 3.68334C7.90432 1.85295 6.59692 0 4.09769 0C2.93459 0 1.95338 0.399491 1.25999 1.15526C0.645782 1.8248 0.307617 2.72259 0.307617 3.68334C0.307617 5.51393 1.60948 7.36678 4.09769 7.36678C5.26512 7.36683 6.25062 6.96764 6.94706 6.21212ZM4.09769 1.71263C5.46706 1.71263 6.0907 2.73486 6.0907 3.68464C6.0907 4.20129 5.91685 4.67957 5.60089 5.03121C5.2484 5.42397 4.73614 5.63165 4.11989 5.63165C2.71589 5.63165 2.07628 4.60952 2.07628 3.65984C2.07628 2.69075 2.70142 1.71263 4.09769 1.71263Z" fill="white"/>
<path d="M13.1872 1.42074C12.9607 1.42483 12.6515 1.56605 12.5 1.73446L1.257 14.2347C1.10556 14.4033 1.21284 14.6395 1.43933 14.6395H2.91085C3.13734 14.6395 3.44626 14.5014 3.59746 14.3327L14.771 1.83495C14.9221 1.66615 14.9121 1.3915 14.5378 1.3916L13.1872 1.42074Z" fill="white"/>
<path d="M11.9582 8.77344C10.8175 8.77344 9.85491 9.16554 9.17464 9.90689C8.57216 10.5635 8.24023 11.4443 8.24023 12.3868C8.24023 14.1824 9.51735 16.0001 11.9582 16.0001C13.1037 16.0001 14.0702 15.6084 14.7535 14.8674C15.3591 14.2106 15.6925 13.3297 15.6925 12.3868C15.6925 10.5913 14.4098 8.77344 11.9582 8.77344ZM11.9802 14.342C10.6142 14.342 9.99184 13.3162 9.99184 12.3636C9.99184 11.8448 10.1656 11.3647 10.4813 11.0117C10.8332 10.6178 11.3439 10.4096 11.9582 10.4096C13.3243 10.4096 13.9464 11.4352 13.9464 12.3881C13.9464 12.9068 13.7726 13.387 13.4571 13.74C13.1051 14.1338 12.5944 14.342 11.9802 14.342Z" fill="white"/>
</g>
<defs>
<clipPath id="clip0_912_27520">
<rect width="16" height="16" fill="white"/>
</clipPath>
</defs>
</svg>
