<svg width="64" height="64" viewBox="0 0 64 64" fill="none" xmlns="http://www.w3.org/2000/svg">
<rect width="64" height="64" rx="32" fill="#FFDD2D"/>
<path fill-rule="evenodd" clip-rule="evenodd" d="M54.7423 30.1035L55.3325 28.2093L53.3789 28.2713C53.2141 28.2713 52.0145 28.2364 50.8503 27.3911C50.9375 27.3984 51.0236 27.4114 51.1131 27.4114C52.311 27.4114 53.4712 26.6885 53.9354 25.6537L54.7755 23.7855C53.721 23.7996 52.7578 23.6659 52.7578 23.6659C52.7499 23.6654 51.9903 23.5667 51.1125 22.6673C50.4829 22.0233 49.7036 21.6821 48.8596 21.6821C48.4899 21.6821 48.1597 21.7492 47.8749 21.8395C47.92 21.6878 47.961 21.5344 47.9863 21.3759C48.2542 19.6273 47.1322 18.2942 47.1317 18.2953L45.662 16.4717L44.751 18.6139C44.7482 18.6207 44.5175 19.1232 44.1068 19.3679C43.983 18.738 43.6775 18.0303 43.0259 17.3536C41.7965 16.0786 40.3003 15.8875 39.5177 15.8875C39.1547 15.8875 38.8954 15.9275 38.8329 15.9377L37.0594 16.2873C37.1618 15.8903 37.3801 15.1978 37.7785 14.5758L38.7569 13.0482L36.2947 13.3285L35.5098 11.6593L33.9912 12.4443L32.5862 11.0537L31.1857 12.4443L29.6631 11.6593L28.8805 13.3285L26.4188 13.0471L27.399 14.5764C27.7979 15.1978 28.0151 15.8886 28.1164 16.2845L26.4239 15.9501L26.3659 15.9411C26.2809 15.9275 26.0238 15.8875 25.6592 15.8875C24.8765 15.8875 23.381 16.0786 22.1543 17.3531C21.5017 18.0292 21.1956 18.738 21.0707 19.3679C20.6622 19.1254 20.4337 18.6309 20.4337 18.6309L19.5211 16.4762L18.0289 18.3111C17.846 18.5474 16.9469 19.801 17.1911 21.3782C17.2164 21.5355 17.2575 21.6878 17.3014 21.8395C17.0183 21.7487 16.688 21.6821 16.3189 21.6821C15.4744 21.6821 14.6951 22.0233 14.0643 22.6673C13.1888 23.5628 12.4343 23.6643 12.4405 23.6643C12.4405 23.6643 11.6415 23.8086 10.4059 23.7855L11.2414 25.6537C11.7068 26.6885 12.8675 27.4114 14.0632 27.4114C14.1532 27.4114 14.2393 27.3984 14.3277 27.3911C13.1663 28.2364 11.9667 28.2713 11.8215 28.2719L9.83252 28.2093L10.4351 30.1029C10.739 31.079 11.7518 32.6957 13.6918 32.87C13.4808 33.7564 13.0133 34.7506 11.9858 35.178L10.5032 35.7898L11.3118 37.2007C11.7675 37.9614 12.8388 38.8513 14.3631 38.8513C14.6928 38.8501 15.0113 38.8169 15.3185 38.7515C15.3967 39.0988 15.4946 39.4473 15.6105 39.793C16.064 41.1475 15.673 42.0915 15.6691 42.1022L14.937 43.6382L16.5704 44.0696C16.5907 44.0758 17.0842 44.2123 17.702 44.2123C17.9816 44.2123 18.2506 44.183 18.501 44.1226C18.6906 44.0781 18.8734 44.0194 19.049 43.9478C19.2606 44.3279 19.5171 44.6747 19.8165 44.9854C20.863 46.0619 22.3468 46.6072 24.225 46.6072H24.2311L25.5725 46.5897L22.8014 47.7446L24.9052 48.7635C25.6699 49.1369 26.5758 49.5784 27.4991 49.9162L27.2363 50.6363L27.9611 50.9678C28.0258 50.9972 29.4206 51.622 31.7382 51.755C31.7382 51.755 32.2975 51.781 32.6059 51.781C32.9136 51.781 33.4668 51.7534 33.4668 51.7534C35.7692 51.6169 37.1528 50.9972 37.2175 50.9678L37.9444 50.6357L37.6794 49.9145C38.6281 49.5665 39.5683 49.1075 40.3009 48.7489L42.3659 47.7434L39.6037 46.5897L40.9508 46.6072C42.8318 46.6072 44.3155 46.0613 45.3604 44.9837C45.6586 44.6758 45.9146 44.3296 46.1273 43.9478C46.3034 44.0194 46.4874 44.0781 46.6776 44.1238C46.9274 44.183 47.1958 44.2123 47.4755 44.2123C48.0826 44.2123 48.5817 44.0775 48.5946 44.073L50.2353 43.6382L49.5207 42.1304C49.5039 42.0915 49.1128 41.1475 49.5663 39.7919C49.6817 39.4462 49.779 39.0983 49.8583 38.7515C50.1661 38.8169 50.4874 38.8501 50.8199 38.8513C52.7623 38.8513 53.6935 37.4821 53.8735 37.1849L54.6736 35.7887L53.1921 35.1791C52.1619 34.7506 51.6949 33.757 51.4861 32.8711C53.4009 32.7042 54.4278 31.0858 54.7423 30.1035Z" fill="white"/>
<path fill-rule="evenodd" clip-rule="evenodd" d="M32.5863 16.8545C31.017 16.8562 29.8399 17.371 29.5845 17.9778L32.5863 19.1654L35.5892 17.9778C35.3349 17.371 34.1578 16.8562 32.5863 16.8545Z" fill="white"/>
<path fill-rule="evenodd" clip-rule="evenodd" d="M32.618 48.285H32.5578C31.6069 48.2912 30.2964 48.0961 29.6668 47.9111L28.9072 49.9694C29.4074 50.1481 31.1033 50.4904 32.5893 50.4904C34.0725 50.4904 35.7689 50.1481 36.2686 49.9694L35.5107 47.9111C34.8777 48.0961 33.5689 48.2912 32.618 48.285Z" fill="white"/>
<path fill-rule="evenodd" clip-rule="evenodd" d="M38.3623 46.2373C37.7974 46.5576 36.5359 47.0392 35.8027 47.2625L36.4183 48.9626C37.5532 48.6519 38.4906 48.2893 39.2637 47.9003L37.9853 47.4745L38.3623 46.2373Z" fill="white"/>
<path fill-rule="evenodd" clip-rule="evenodd" d="M26.8135 46.2373L27.1916 47.4745L25.9121 47.9003C26.6841 48.2893 27.6254 48.6519 28.7564 48.9626L29.3731 47.2625C28.641 47.0392 27.3779 46.5576 26.8135 46.2373Z" fill="white"/>
<path fill-rule="evenodd" clip-rule="evenodd" d="M32.5869 14.8865C33.7702 14.8865 34.9298 15.1701 35.8222 15.668C35.9038 15.3945 36.018 15.0618 36.1728 14.7128L35.8346 14.7534L35.4812 14.7906L35.3316 14.4675L34.8798 13.5122L34.0577 13.9419L33.737 14.1049L33.481 13.8523L32.5869 12.9658L31.6945 13.8523L31.4396 14.1049L31.1195 13.9419L30.2923 13.5122L29.8473 14.4675L29.6942 14.7906L29.3409 14.7534L29.0044 14.7128C29.1591 15.0618 29.2722 15.3945 29.3549 15.668C30.2507 15.1701 31.4092 14.8865 32.5869 14.8865Z" fill="white"/>
<path fill-rule="evenodd" clip-rule="evenodd" d="M50.6486 25.9271C50.8022 25.9801 50.9581 26.0038 51.1128 26.0038C51.7824 26.0038 52.4289 25.5696 52.6511 25.0739C52.6511 25.0739 51.4245 24.9995 50.1051 23.6568C49.6848 23.2221 49.2403 23.0918 48.8588 23.0918C48.2663 23.0918 47.8218 23.4048 47.8218 23.4048C49.4158 24.2557 49.741 25.6198 50.6486 25.9271Z" fill="white"/>
<path fill-rule="evenodd" clip-rule="evenodd" d="M14.0636 26.0038C14.2183 26.0038 14.3747 25.9801 14.525 25.9265C15.4348 25.6198 15.7628 24.2557 17.3546 23.4053C17.3546 23.4053 16.909 23.0918 16.3199 23.0918C15.9361 23.0918 15.4922 23.2221 15.0702 23.6574C13.7524 24.9995 12.5264 25.0745 12.5264 25.0745C12.7464 25.5696 13.3946 26.0038 14.0636 26.0038Z" fill="white"/>
<path fill-rule="evenodd" clip-rule="evenodd" d="M50.1674 35.7231C48.9346 35.1135 48.1553 33.4962 47.9674 32.9137C47.7626 36.1212 46.2006 38.3464 44.3747 40.4892C43.4272 41.6001 43.0964 42.68 43.0964 42.68C43.0964 42.68 43.2792 41.4563 44.0985 40.4604C45.8022 38.4095 47.4216 35.855 47.542 32.9025C47.6247 30.8408 47.0964 29.17 46.2709 27.7924C46.7329 29.2269 46.667 30.9835 45.1 32.6233C45.1 32.6233 48.2206 28.8762 43.8576 25.0343C42.1123 23.5721 40.2009 22.6693 39.2179 22.0299C42.7711 23.1915 44.5064 21.9126 44.5064 21.9126C43.3721 22.8983 41.9029 22.8813 40.9914 22.7392C41.239 22.8599 41.4961 22.9862 41.7724 23.1351C44.7686 24.7659 47.461 27.4495 47.9201 31.1656V31.1374C48.6167 34.7865 50.1674 35.7231 50.1674 35.7231ZM51.08 31.4713C51.1076 31.473 51.1312 31.473 51.1594 31.473C52.8294 31.473 53.3954 29.6803 53.3954 29.6803H53.3628C53.0561 29.6803 50.5731 29.6081 48.8176 27.3723C47.663 25.9022 46.7154 24.6097 44.8457 24.1011L44.6617 24.0684L44.6217 23.8806C44.57 23.5947 44.7664 23.3257 45.2103 23.0364C47.7912 21.343 46.038 19.1827 46.038 19.1827C46.038 19.1827 45.3014 20.9099 43.6528 20.9099C43.6129 20.9099 43.5712 20.9077 43.5302 20.9077C43.3434 20.8981 43.1622 20.8913 42.9804 20.8524L42.6766 20.7932C42.6766 20.7932 43.147 19.5115 42.0121 18.3352C41.1574 17.447 40.1176 17.2959 39.5172 17.2959C39.2145 17.2959 39.0227 17.3348 39.0227 17.3348C39.5926 18.0814 40.0045 19.3209 39.3468 20.0855C38.7779 20.7425 37.3887 20.774 37.3887 21.7535C37.3887 22.1686 37.7752 22.6524 38.4696 23.0872C40.5576 24.405 42.6305 26.1542 43.493 28.4978C44.57 31.4205 43.3563 33.3615 41.6244 34.4741C41.6244 34.4741 42.168 34.9754 42.9551 35.0396C43.1161 35.0549 43.2725 35.0622 43.4182 35.0622C45.0814 35.0622 45.9418 34.2806 45.9418 34.2806C45.9418 34.2806 45.7994 35.3605 44.9346 36.3631C44.1356 37.2885 43.0885 37.8343 41.4888 37.8569C41.4888 37.8569 41.4387 38.6001 42.1466 39.2441C42.6001 39.6501 43.6455 39.7821 43.6455 39.7821C43.6455 39.7821 41.6869 40.1802 41.4708 43.0798C41.3532 44.6508 40.9526 45.1967 40.9526 45.1967H40.9875C45.5333 45.1967 45.4168 41.2894 45.4168 41.2894C45.4168 41.2894 45.733 42.4465 47.0013 42.7482C47.1543 42.7882 47.318 42.804 47.4739 42.804C47.8818 42.804 48.2369 42.7076 48.2369 42.7076C48.2369 42.7076 47.5724 41.304 48.2313 39.3405C48.7776 37.7108 48.6898 36.5035 48.6898 36.5035C48.6898 36.5035 49.3014 37.4317 50.8206 37.4402H50.8358C52.1001 37.4402 52.651 36.4799 52.651 36.4799C49.6205 35.2184 49.9198 31.1493 49.9198 31.1493C49.9198 31.1493 50.3131 31.4436 51.08 31.4713Z" fill="white"/>
<path fill-rule="evenodd" clip-rule="evenodd" d="M20.8005 40.4892C18.9747 38.3464 17.4133 36.1212 17.2068 32.9137C17.0183 33.4962 16.2418 35.1135 15.0096 35.7231C15.0096 35.7231 16.5586 34.7865 17.2546 31.1374V31.1656C17.7154 27.4501 20.4072 24.7659 23.404 23.1357C23.6786 22.9857 23.9379 22.8599 24.1838 22.7398C23.2729 22.8814 21.8038 22.8983 20.67 21.9126C20.67 21.9126 22.4052 23.1915 25.9574 22.0299C24.9744 22.6699 23.0647 23.5721 21.3193 25.0343C16.9553 28.8762 20.0764 32.6239 20.0764 32.6239C18.5071 30.9835 18.4441 29.2275 18.9055 27.7924C18.0789 29.17 17.5506 30.8408 17.6355 32.9025C17.7548 35.855 19.3736 38.409 21.074 40.461C21.8972 41.4563 22.0823 42.6794 22.0823 42.6794C22.0823 42.6794 21.7475 41.6001 20.8005 40.4892ZM21.5309 39.7821C21.5309 39.7821 22.5769 39.6507 23.0309 39.2435C23.7382 38.6001 23.6876 37.8569 23.6876 37.8569C22.0879 37.8343 21.0413 37.2885 20.2379 36.3637C19.3781 35.3605 19.2352 34.2806 19.2352 34.2806C19.2352 34.2806 20.0949 35.0622 21.7559 35.0622C21.905 35.0622 22.0603 35.0549 22.2207 35.0396C23.009 34.9754 23.5542 34.4746 23.5542 34.4746C21.8206 33.3615 20.6064 31.4211 21.6822 28.4978C22.5448 26.1548 24.6171 24.405 26.7063 23.0866C27.3995 22.6524 27.786 22.1686 27.786 21.7535C27.786 20.774 26.3985 20.7425 25.8302 20.0855C25.1724 19.3209 25.5843 18.0814 26.1532 17.3348C26.1532 17.3348 25.9635 17.2959 25.6591 17.2959C25.0593 17.2959 24.0201 17.447 23.1654 18.3352C22.0283 19.5115 22.4998 20.7932 22.4998 20.7932L22.1959 20.8524C22.0148 20.8908 21.8319 20.8981 21.6456 20.9083C21.6029 20.9083 21.5652 20.9099 21.5252 20.9099C19.8721 20.9099 19.1395 19.1833 19.1395 19.1833C19.1395 19.1833 17.3874 21.343 19.9672 23.0364C20.4112 23.3257 20.6064 23.5947 20.5546 23.8806L20.5147 24.0678L20.3273 24.1011C18.4604 24.6097 17.5123 25.9022 16.356 27.3723C14.6016 29.6076 12.122 29.6803 11.8131 29.6803H11.7793C11.7793 29.6803 12.3453 31.473 14.0165 31.473C14.0429 31.473 14.0677 31.473 14.0958 31.4713C14.8638 31.4436 15.2577 31.1493 15.2577 31.1493C15.2577 31.1493 15.5548 35.2184 12.5254 36.4793C12.5254 36.4793 13.0774 37.4407 14.3411 37.4407H14.3563C15.8761 37.4317 16.4871 36.5035 16.4871 36.5035C16.4871 36.5035 16.3988 37.7114 16.9434 39.3405C17.6023 41.3046 16.9412 42.7082 16.9412 42.7082C16.9412 42.7082 17.2946 42.804 17.7025 42.804C17.8606 42.804 18.0226 42.7882 18.1746 42.7482C19.4411 42.4465 19.7585 41.2894 19.7585 41.2894C19.7585 41.2894 19.6426 45.1967 24.1889 45.1967H24.2215C24.2215 45.1967 23.8237 44.6508 23.7067 43.0792C23.4912 40.1802 21.5309 39.7821 21.5309 39.7821Z" fill="white"/>
<path fill-rule="evenodd" clip-rule="evenodd" d="M31.5608 25.3838H33.704V26.1208C33.452 25.8113 32.9613 25.8744 32.9613 25.8744V26.9368C32.9613 26.9368 32.9793 27.4595 33.1627 27.6857H32.1021C32.2878 27.4595 32.3041 26.9368 32.3041 26.9368V25.8744C32.3041 25.8744 31.8152 25.8113 31.5608 26.1208V25.3838ZM29.2258 25.4943C29.3006 25.5744 29.3738 25.6613 29.4446 25.7492C29.4615 25.7695 29.4767 25.7876 29.4936 25.8113C29.5589 25.8981 29.6247 25.9906 29.6883 26.0847C29.7024 26.1034 29.7159 26.1259 29.731 26.1473C29.807 26.2629 29.879 26.3819 29.9505 26.5049C30.6066 27.6394 31.6554 28.3172 32.5866 28.3189C33.5189 28.3172 34.5666 27.6394 35.2244 26.5049C35.2969 26.3785 35.3706 26.2567 35.4466 26.1423C35.4579 26.1259 35.4702 26.109 35.4804 26.0921C35.5456 25.9945 35.6132 25.8998 35.6841 25.8079C35.6992 25.7876 35.7133 25.7695 35.7268 25.7526C35.8 25.6613 35.8754 25.5733 35.9524 25.4915C35.9654 25.4786 35.9766 25.4661 35.989 25.4554C36.3232 25.1126 36.721 24.8515 37.2426 24.7071L37.0103 24.5712H36.9973L36.0745 24.0344L35.1265 23.4902L32.5933 24.8724L32.5866 24.8667L32.5821 24.8724L30.0484 23.4902L29.1009 24.0344L28.1764 24.5712H28.1657L27.9316 24.7071C28.4532 24.8515 28.8499 25.1098 29.1853 25.4532C29.1999 25.4661 29.21 25.4814 29.2258 25.4943Z" fill="white"/>
<path fill-rule="evenodd" clip-rule="evenodd" d="M31.781 20.7007V21.3943L31.6482 21.3334C31.642 21.3283 31.4467 21.2843 31.1067 21.0142C30.5455 20.5783 30.5342 20.1757 30.5342 20.1757L31.781 20.7007ZM32.3692 23.955V19.6406L29.6279 18.709L30.3507 22.8898L32.3692 23.955Z" fill="white"/>
<path fill-rule="evenodd" clip-rule="evenodd" d="M33.3966 20.7007L34.6434 20.1757C34.6434 20.1757 34.6327 20.5783 34.0692 21.0142C33.7304 21.2843 33.535 21.3283 33.5283 21.3334L33.3966 21.3943V20.7007ZM34.8258 22.8898L35.5463 18.709L32.8066 19.6406V23.955L34.8258 22.8898Z" fill="white"/>
<path fill-rule="evenodd" clip-rule="evenodd" d="M28.4931 33.9562C28.7594 34.0532 29.0836 34.0735 29.2497 34.0735C29.2558 34.0532 29.2649 34.0278 29.2727 33.9968C29.2874 33.9478 29.3014 33.8987 29.3116 33.8451C29.3583 33.606 29.3746 33.3359 29.3786 33.1611C29.2665 33.0906 29.1072 32.9666 29.0183 32.7805C28.917 32.5662 28.7712 32.4658 28.5595 32.4658C28.2837 32.4658 27.9882 32.6322 27.8604 32.71C27.7597 33.3066 28.1987 33.8474 28.4931 33.9562Z" fill="white"/>
<path fill-rule="evenodd" clip-rule="evenodd" d="M34.554 31.668C34.0453 32.2228 33.0483 33.1882 33.0004 33.2362L32.9402 33.2971L29.7927 33.2475C29.7904 33.5599 29.7398 33.8255 29.6908 34.0206C29.683 34.0527 29.674 34.0865 29.6655 34.1204L33.4095 34.7954C33.7989 34.5224 34.8708 33.7375 35.2877 33.4302C34.985 32.9869 34.9563 32.4614 35.0244 32.0915C34.8252 31.9646 34.6744 31.8202 34.554 31.668Z" fill="white"/>
<path fill-rule="evenodd" clip-rule="evenodd" d="M34.9804 27.873C34.2551 28.5937 33.5596 28.8616 32.9384 28.923C32.8248 28.9349 32.7111 28.9422 32.5958 28.9422H32.58C32.4641 28.9422 32.3493 28.9349 32.2374 28.923C32.1282 28.9134 32.0146 28.896 31.9003 28.87C31.8598 29.0324 31.8081 29.3708 31.9555 29.6928C32.0871 29.9837 32.3544 30.2003 32.7443 30.3452L32.8754 30.3965L32.8777 30.5381C32.8777 30.5798 32.9086 31.4978 33.9062 31.7527C34.0694 31.5847 34.2174 31.4324 34.3271 31.305C34.1234 30.8239 34.2303 30.3328 34.5263 30.0926C34.5134 30.1433 34.3834 31.3478 35.3467 31.7956L35.5053 31.8711L35.4581 32.0403C35.4423 32.091 35.121 33.2572 36.288 33.6908L36.4945 33.7692L36.4028 33.97C36.3825 34.0145 35.9251 35.0718 37.0026 35.6729H39.3388V33.8138C38.5077 33.7123 38.1566 33.0429 38.0655 32.5692C37.6789 32.5027 37.3807 32.3358 37.1753 32.0634C36.6852 31.4166 37.1067 30.8239 37.1123 30.7918C37.1112 30.7969 37.1123 31.4273 37.5005 31.817C37.6935 32.0042 37.9209 32.1502 38.2658 32.183L38.4357 32.1982L38.4503 32.3724C38.4531 32.4091 38.5465 33.2634 39.3388 33.397L39.3371 29.5992C39.3371 29.011 39.5081 28.4195 39.7141 27.873H34.9804Z" fill="white"/>
<path fill-rule="evenodd" clip-rule="evenodd" d="M28.692 29.6131L28.6284 32.0311L28.9031 32.0734L29.5741 29.753L29.2335 29.0391L28.692 29.6131Z" fill="white"/>
<path fill-rule="evenodd" clip-rule="evenodd" d="M30.1445 38.5657C30.0662 38.5634 30.0089 38.4969 30.0139 38.4185C30.0201 38.3435 30.0837 38.2843 30.1608 38.291C30.2396 38.2939 30.2947 38.3632 30.2924 38.4371C30.2851 38.5138 30.2193 38.5724 30.1445 38.5657ZM36.0857 40.7062C36.1065 40.7062 36.1295 40.709 36.152 40.7147C36.5695 40.8342 36.6748 42.3415 37.4068 42.4758C37.4788 42.491 37.5446 42.4955 37.6026 42.4955C37.8147 42.4955 37.9408 42.4053 38.0769 42.244C38.0769 42.244 37.7084 41.6643 37.4332 41.2724C37.0669 40.7604 36.7834 40.1418 36.102 40.1418C36.0857 40.1418 36.066 40.1418 36.0491 40.144C35.8251 40.1553 35.6867 40.2653 35.6867 40.2653C35.4105 40.091 35.1533 40.0324 34.9215 40.0324C34.495 40.0324 34.163 40.2286 33.9965 40.2286H33.9903L32.4688 40.078C32.2314 40.0549 32.0429 39.8147 31.9754 39.7211C31.9585 39.6952 31.9489 39.6805 31.9489 39.6805C31.9489 39.6388 31.9489 39.5965 31.9467 39.5587C31.8955 38.3119 30.9322 37.7784 30.589 37.77C30.589 37.77 30.6295 37.5326 30.5372 37.4424L30.2007 37.8506L29.1007 37.2969L29.8862 38.2166L29.2211 38.9649C29.1373 39.05 29.148 39.1651 29.1829 39.2141L29.4698 39.4685L29.8344 39.2468C29.8524 39.2333 29.8862 39.2288 29.9261 39.2288C30.0269 39.2288 30.1782 39.2553 30.3138 39.2553C30.4629 39.2553 30.5907 39.2237 30.6064 39.0839C30.5608 39.5463 30.1326 40.3493 30.4134 40.9808L30.6222 41.4573L29.2768 41.2634L28.6472 42.3286C28.4531 42.6833 28.4227 43.0667 28.6095 43.2759L28.8447 43.5709C28.8447 43.5709 29.1755 43.2201 29.2493 42.9889L29.1424 42.871C29.0523 42.7718 29.0568 42.6833 29.112 42.5767L29.507 41.9203L31.0942 42.2953L31.1781 42.1521C31.2861 41.9722 31.4414 41.9192 31.6113 41.9192C31.6817 41.9192 31.7531 41.9276 31.828 41.9395C32.1228 41.9976 32.6078 42.0759 33.0928 42.0759C33.6246 42.0759 34.1529 41.9806 34.4348 41.6643C35.0098 42.5186 36.1751 42.6545 36.0834 43.0887L35.7762 44.5526C35.9793 44.5436 36.1751 44.5306 36.3608 44.5047L36.6528 42.9821C36.6849 42.8158 36.7153 42.593 36.7153 42.593C36.6033 42.4786 36.331 42.2372 36.1774 41.9434C35.972 41.5476 36.0834 41.3406 35.8921 40.8258C35.8921 40.8258 35.9512 40.7062 36.0857 40.7062Z" fill="white"/>
<path fill-rule="evenodd" clip-rule="evenodd" d="M27.9768 42.0916C27.9768 42.0916 28.5037 41.8745 28.5504 41.7199L28.48 41.544C28.4299 41.429 28.4367 41.3049 28.5335 41.2378L29.1015 40.8436L30.0505 41.0269C30.0505 41.0269 29.8788 40.8109 29.8957 40.5233L28.9894 40.3311L28.135 40.8527C27.7685 41.1267 27.7421 41.5756 27.8631 41.8417L27.9768 42.0916Z" fill="white"/>
<path fill-rule="evenodd" clip-rule="evenodd" d="M34.6899 44.5725C34.8594 44.5657 35.0479 44.5629 35.2534 44.5629C35.2534 44.5629 35.742 43.1312 35.7696 43.0861C35.496 42.9648 34.9269 42.6626 34.7074 42.5244C34.8532 42.7421 35.205 42.9896 35.1352 43.1814L34.6899 44.5725Z" fill="white"/>
<path fill-rule="evenodd" clip-rule="evenodd" d="M39.3385 36.083H25.8379V41.1722C25.8379 43.2542 27.3408 44.5568 29.5588 44.5568C31.4111 44.5568 31.9001 44.6295 32.5893 45.3146C33.0642 44.8398 33.457 44.6628 34.2638 44.5968L34.2829 44.5179L34.7083 43.1995C34.6847 43.1696 33.9887 42.3778 33.9887 42.3778C33.713 42.4698 33.4811 42.485 33.0923 42.485C32.6923 42.485 32.2422 42.4382 31.7521 42.3463C31.7031 42.335 31.657 42.3299 31.6114 42.3299C31.5512 42.3299 31.5473 42.335 31.5315 42.3643L31.4471 42.5042L31.2924 42.7607L31.0009 42.6931L29.7051 42.3874L29.5273 42.6812L29.5537 42.7128L29.7113 42.8871L29.6415 43.1137C29.5459 43.4104 29.237 43.7566 29.1424 43.8525L28.8189 44.2004L28.5235 43.8265L28.3018 43.5479C28.0689 43.2863 28.0148 42.8871 28.1459 42.4675C28.1431 42.4698 28.1386 42.472 28.133 42.4726L27.7678 42.6243L27.6035 42.2662L27.4882 42.0124C27.2896 41.5658 27.3627 40.9134 27.8984 40.5187L28.941 39.9283L29.9335 40.1239C29.9572 40.0286 29.9926 39.6869 30.0213 39.6001C30.0016 39.5978 29.9842 39.5933 29.9645 39.5933L29.3928 39.8076L28.8408 39.4258C28.8408 39.4258 28.6253 39.2177 28.8211 39.0097L29.3546 38.1988L28.0013 36.4963L30.081 37.3524L30.2199 37.1809L30.5001 36.8437L30.8192 37.1477C30.9092 37.2345 30.961 37.3416 30.9863 37.4488C31.5591 37.6726 32.5865 38.3324 32.6771 39.4055L32.3558 39.5341V39.542C32.4295 39.6294 32.4903 39.6655 32.5094 39.6689L33.9937 39.8149C34.032 39.8087 34.0781 39.7918 34.131 39.7766C34.3161 39.7134 34.5924 39.6221 34.921 39.6221C35.1888 39.6221 35.4471 39.6835 35.6958 39.8003C35.7875 39.7653 35.9001 39.7399 36.0306 39.7315L36.102 39.7298C36.8965 39.7298 37.2921 40.3247 37.6089 40.8C37.6618 40.8824 37.7146 40.9596 37.7698 41.0363C38.0466 41.4288 38.4095 42.0029 38.4242 42.0277L38.5879 42.2837L38.3876 42.5177C38.2334 42.6965 38.001 42.9068 37.6032 42.9068C37.5211 42.9068 37.4311 42.8978 37.3343 42.8792C37.2499 42.8634 37.1722 42.838 37.098 42.8064C37.0873 42.8854 37.0704 42.979 37.0558 43.0596L36.7958 44.4209C38.3527 44.0374 39.3413 42.8594 39.3413 41.1722L39.3385 36.083Z" fill="#FFDD2D"/>
<path fill-rule="evenodd" clip-rule="evenodd" d="M25.8382 35.6729H36.3387C35.8143 35.1299 35.8221 34.4425 35.9555 33.9959C35.8024 33.9226 35.6764 33.8346 35.5644 33.7376C35.1537 34.041 33.9012 34.9551 33.5737 35.184L33.5034 35.2314L29.3824 34.4848H29.2991C29.2001 34.4848 29.0555 34.4809 28.8968 34.4617C28.8524 34.6489 28.692 34.7758 28.5086 34.7758C28.4872 34.7758 28.4642 34.7741 28.4428 34.7696C28.3353 34.751 28.2413 34.6963 28.1789 34.606C28.1147 34.5169 28.0894 34.4115 28.1069 34.3027L28.1221 34.2136C27.6978 33.9136 27.3051 33.2431 27.4789 32.5365L27.4958 32.4621L27.556 32.4187C27.5644 32.4125 27.6353 32.3634 27.7423 32.3031L27.4429 32.2568C27.3309 32.2371 27.2555 32.1322 27.273 32.0217C27.2921 31.9095 27.3973 31.8294 27.5076 31.8508L28.2211 31.9636L28.2864 29.4463L29.3475 28.3208L30.0104 29.7187L29.311 32.1407L29.9417 32.2399C30.0526 32.2574 30.1285 32.3617 30.1116 32.4762C30.0953 32.5777 30.0087 32.6459 29.9096 32.6459C29.899 32.6459 29.8877 32.6459 29.877 32.6448L29.3644 32.5619C29.3712 32.5777 29.3813 32.5867 29.3875 32.6025C29.4421 32.7158 29.563 32.7959 29.6339 32.8314L32.7753 32.8816C32.9087 32.7519 33.2378 32.4283 33.5777 32.086C32.804 31.7916 32.5232 31.1245 32.4765 30.6807C32.0444 30.4963 31.7462 30.22 31.5808 29.8608C31.3793 29.4159 31.4508 28.9698 31.5048 28.7533C31.0856 28.6005 30.6456 28.3208 30.1955 27.873H25.4629C25.666 28.4195 25.8382 29.011 25.8382 29.5992V35.6729Z" fill="#FFDD2D"/>
<path fill-rule="evenodd" clip-rule="evenodd" d="M30.1609 38.2916C30.0838 38.2843 30.0202 38.3442 30.014 38.42C30.0089 38.4987 30.0663 38.5654 30.1446 38.5671C30.2194 38.5733 30.2853 38.5156 30.2926 38.4381C30.2949 38.364 30.2397 38.2945 30.1609 38.2916Z" fill="black"/>
<path fill-rule="evenodd" clip-rule="evenodd" d="M36.4191 48.9629L35.8024 47.2628C36.5361 47.0389 37.7976 46.5573 38.3631 46.237L37.9861 47.4742L39.2634 47.9C38.4908 48.2885 37.554 48.6511 36.4191 48.9629ZM32.5902 50.4911C31.1036 50.4911 29.4077 50.1482 28.9075 49.9701L29.6671 47.9112C30.2967 48.0956 31.6072 48.2913 32.5581 48.2851H32.6183C33.5692 48.2913 34.878 48.0956 35.511 47.9112L36.2689 49.9701C35.7692 50.1482 34.0728 50.4911 32.5902 50.4911ZM25.913 47.9L27.1925 47.4742L26.8138 46.237C27.3782 46.5573 28.6419 47.0389 29.374 47.2628L28.7567 48.9629C27.6258 48.6511 26.685 48.2885 25.913 47.9ZM39.3208 47.5222L38.5432 47.2233L38.7581 46.4175L38.9944 45.54C38.9944 45.54 37.6165 46.2895 35.6741 46.8517C35.1233 47.0096 34.7064 47.0823 34.7064 47.0823V47.68C34.7064 47.68 33.6677 47.8605 32.6183 47.8605H32.5581C31.5076 47.8605 30.4706 47.68 30.4706 47.68V47.0823C30.4706 47.0823 30.0525 47.0096 29.5023 46.8517C27.5605 46.2895 26.1836 45.54 26.1836 45.54L26.4166 46.4175L26.636 47.2233L25.8556 47.5222L24.9902 47.8458C25.9817 48.3263 27.3562 49.0244 28.6138 49.3695L28.3173 50.1821C28.3173 50.1821 29.9124 50.9101 32.5699 50.9168V50.9185H32.6059V50.9168C35.2662 50.9101 36.8602 50.1821 36.8602 50.1821L36.562 49.3695C37.8202 49.0244 39.197 48.3263 40.1839 47.8458L39.3208 47.5222Z" fill="black"/>
<path fill-rule="evenodd" clip-rule="evenodd" d="M29.3408 14.753L29.6942 14.7902L29.8472 14.4671L30.2923 13.5124L31.1194 13.941L31.4396 14.1051L32.5868 12.9649L33.4809 13.8519L33.7369 14.1051L34.0576 13.941L34.8797 13.5124L35.3315 14.4671L35.4812 14.7902L35.8345 14.753L36.1727 14.7124C36.018 15.0615 35.9037 15.3936 35.8222 15.6682C34.9298 15.1697 33.7701 14.8861 32.5868 14.8861C31.4092 14.8861 30.2506 15.1697 29.3549 15.6682C29.2722 15.3936 29.1591 15.0615 29.0043 14.7124L29.3408 14.753ZM32.5868 15.384C34.1702 15.384 35.4367 15.9101 36.1367 16.4701C36.1367 16.4701 36.3443 15.216 37.0538 14.1096L35.7788 14.2551L35.1115 12.8346L33.8303 13.4966L32.5868 12.2656L31.3473 13.4966L30.0633 12.8346L29.3971 14.2551L28.1221 14.1096C28.8322 15.216 29.0392 16.4701 29.0392 16.4701C29.7437 15.9101 31.0063 15.384 32.5868 15.384Z" fill="black"/>
<path fill-rule="evenodd" clip-rule="evenodd" d="M52.652 36.4797C52.652 36.4797 52.1012 37.4411 50.8363 37.4411H50.8205C49.3025 37.4321 48.6903 36.5039 48.6903 36.5039C48.6903 36.5039 48.7781 37.7112 48.2317 39.3409C47.5728 41.305 48.2373 42.708 48.2373 42.708C48.2373 42.708 47.8823 42.8044 47.4744 42.8044C47.3185 42.8044 47.1553 42.7886 47.0017 42.7486C45.7335 42.4469 45.4172 41.2897 45.4172 41.2897C45.4172 41.2897 45.5337 45.197 40.9879 45.197H40.9525C40.9525 45.197 41.3531 44.6512 41.4713 43.0801C41.6873 40.1806 43.646 39.7824 43.646 39.7824C43.646 39.7824 42.6005 39.651 42.1476 39.2445C41.4392 38.6005 41.4893 37.8573 41.4893 37.8573C43.0884 37.8347 44.1366 37.2889 44.935 36.3635C45.7999 35.3609 45.9422 34.281 45.9422 34.281C45.9422 34.281 45.0819 35.0626 43.4192 35.0626C43.2729 35.0626 43.1165 35.0552 42.9561 35.04C42.169 34.9757 41.6254 34.475 41.6254 34.475C43.3568 33.3618 44.571 31.4209 43.4941 28.4982C42.6309 26.1552 40.5581 24.4054 38.4706 23.087C37.7762 22.6528 37.3891 22.169 37.3891 21.7534C37.3891 20.7744 38.7783 20.7428 39.3472 20.0859C40.005 19.3212 39.5925 18.0818 39.0231 17.3352C39.0231 17.3352 39.215 17.2963 39.5177 17.2963C40.1181 17.2963 41.1579 17.4474 42.0126 18.3355C43.1469 19.5118 42.6765 20.7936 42.6765 20.7936L42.9803 20.8528C43.1621 20.8911 43.3433 20.8985 43.5312 20.9081C43.5717 20.9081 43.6133 20.9103 43.6533 20.9103C45.3019 20.9103 46.039 19.1831 46.039 19.1831C46.039 19.1831 47.7911 21.3434 45.2107 23.0368C44.7668 23.3261 44.571 23.5951 44.6222 23.881L44.6627 24.0687L44.8461 24.1014C46.7164 24.6095 47.6628 25.9031 48.8186 27.3726C50.5741 29.6085 53.0566 29.6807 53.3627 29.6807H53.3958C53.3958 29.6807 52.8298 31.4733 51.1598 31.4733C51.1317 31.4733 51.108 31.4733 51.0805 31.4716C50.3136 31.444 49.9197 31.1497 49.9197 31.1497C49.9197 31.1497 49.6209 35.2188 52.652 36.4797ZM51.1598 32.022C53.2068 32.022 53.8921 29.935 53.9203 29.8454L54.1493 29.1095L53.3818 29.1337H53.379C53.1083 29.1337 50.8492 29.0734 49.2479 27.0337L49.0965 26.8443C48.05 25.5112 47.058 24.2424 45.2833 23.6639C45.3345 23.6171 45.4082 23.5607 45.509 23.4947C46.4509 22.8744 46.9983 22.1205 47.1356 21.2453C47.3371 19.9291 46.4987 18.8791 46.4621 18.8363L45.8921 18.1297L45.536 18.9677C45.5118 19.0201 44.9137 20.3616 43.6533 20.3616H43.5593C43.4732 20.3571 43.3905 20.3537 43.3101 20.347C43.3539 19.7487 43.2454 18.8228 42.407 17.9532C41.3992 16.9077 40.1636 16.751 39.5177 16.751C39.1722 16.751 38.9426 16.7938 38.9173 16.7961L38.057 16.9675L38.5876 17.669C39.0045 18.2098 39.3821 19.2079 38.9342 19.7289C38.7907 19.8953 38.4964 20.0295 38.2146 20.1648C37.635 20.4316 36.8428 20.8054 36.8428 21.7534C36.8428 22.3669 37.3182 23.0092 38.1797 23.555C40.7285 25.1616 42.3012 26.8381 42.9803 28.6888C44.0314 31.5354 42.6602 33.1588 41.3289 34.0148L40.7314 34.3994L41.2546 34.881C41.325 34.943 41.9636 35.5075 42.9089 35.5887C43.0878 35.6005 43.2589 35.6101 43.4192 35.6101C44.0241 35.6101 44.54 35.5148 44.9592 35.3868C44.8444 35.5887 44.7015 35.7956 44.5237 36.0032C43.763 36.8868 42.8267 37.2889 41.4803 37.3109L40.9801 37.3187L40.9418 37.8217C40.9367 37.9233 40.8996 38.8559 41.7796 39.6488C41.9146 39.7717 42.0773 39.8727 42.2483 39.955C41.6508 40.4941 41.0442 41.433 40.9266 43.0407C40.827 44.3828 40.508 44.8795 40.504 44.8846L39.9515 45.7305L40.9508 45.744C42.6017 45.744 43.866 45.2878 44.742 44.3828C45.2597 43.8476 45.5562 43.2431 45.7306 42.708C46.0182 42.9533 46.389 43.1687 46.8729 43.2831C47.0563 43.326 47.2566 43.3497 47.4744 43.3497C47.9408 43.3497 48.3313 43.2504 48.3746 43.2397L49.0127 43.07L48.7308 42.4734C48.71 42.4254 48.1777 41.2272 48.7505 39.5191C48.9969 38.7798 49.123 38.1184 49.1843 37.603C49.586 37.8127 50.1245 37.9858 50.82 37.9881C52.3994 37.9881 53.0959 36.8056 53.1269 36.756L53.4381 36.2129L52.8613 35.975C50.9792 35.1917 50.5623 33.0884 50.479 31.9498C50.6489 31.9831 50.8436 32.013 51.063 32.0192L51.1598 32.022Z" fill="black"/>
<path fill-rule="evenodd" clip-rule="evenodd" d="M48.8591 23.0915C49.2405 23.0915 49.6851 23.2218 50.1054 23.6571C51.4248 24.9992 52.652 25.0742 52.652 25.0742C52.4292 25.5693 51.7827 26.0035 51.1131 26.0035C50.9584 26.0035 50.8025 25.9798 50.6489 25.9262C49.7408 25.6195 49.4161 24.2554 47.8221 23.405C47.8221 23.405 48.2666 23.0915 48.8591 23.0915ZM47.5621 23.89C48.3257 24.2977 48.7707 24.8441 49.1606 25.3285C49.5444 25.8016 49.9073 26.2561 50.4773 26.4456C50.6793 26.5149 50.8942 26.5482 51.1131 26.5482C51.9667 26.5482 52.8253 26.0243 53.1505 25.2986L53.478 24.5717L52.6858 24.5244C52.6486 24.5238 51.6296 24.4302 50.497 23.2703C50.0305 22.7938 49.4662 22.5439 48.8591 22.5439C48.1169 22.5439 47.5666 22.9156 47.5058 22.9539L46.7783 23.4676L47.5621 23.89Z" fill="black"/>
<path fill-rule="evenodd" clip-rule="evenodd" d="M47.9205 31.138V31.1662C47.4613 27.45 44.769 24.7664 41.7728 23.1356C41.4959 22.9868 41.2394 22.8604 40.9918 22.7398C41.9033 22.8819 43.3724 22.8988 44.5068 21.9131C44.5068 21.9131 42.7715 23.192 39.2183 22.0304C40.2012 22.6698 42.1126 23.5726 43.8586 25.0348C48.2204 28.8767 45.0998 32.6238 45.0998 32.6238C46.6674 30.984 46.7327 29.2275 46.2713 27.7929C47.0967 29.1705 47.6245 30.8413 47.5423 32.903C47.4225 35.8556 45.8026 38.4095 44.0988 40.461C43.2801 41.4568 43.0973 42.6805 43.0973 42.6805C43.0973 42.6805 43.4276 41.6006 44.3751 40.4897C46.2015 38.3469 47.7629 36.1217 47.9677 32.9143C48.1562 33.4968 48.9344 35.114 50.1683 35.7236C50.1683 35.7236 48.6176 34.787 47.9205 31.138Z" fill="black"/>
<path fill-rule="evenodd" clip-rule="evenodd" d="M24.1888 45.197C19.6424 45.197 19.7583 41.2897 19.7583 41.2897C19.7583 41.2897 19.441 42.4469 18.1744 42.7486C18.0225 42.7886 17.8605 42.8044 17.7024 42.8044C17.2944 42.8044 16.9411 42.708 16.9411 42.708C16.9411 42.708 17.6022 41.305 16.9433 39.3409C16.3987 37.7118 16.487 36.5039 16.487 36.5039C16.487 36.5039 15.8759 37.4321 14.3562 37.4411H14.341C13.0772 37.4411 12.5253 36.4797 12.5253 36.4797C15.5541 35.2188 15.2576 31.1497 15.2576 31.1497C15.2576 31.1497 14.8637 31.444 14.0957 31.4716C14.0675 31.4733 14.0428 31.4733 14.0163 31.4733C12.3452 31.4733 11.7792 29.6807 11.7792 29.6807H11.8129C12.1218 29.6807 14.6015 29.6079 16.3559 27.3726C17.5122 25.9025 18.4597 24.6101 20.3272 24.1014L20.5146 24.0682L20.5545 23.881C20.6063 23.5951 20.411 23.3261 19.9671 23.0368C17.3873 21.3434 19.1394 19.1837 19.1394 19.1837C19.1394 19.1837 19.872 20.9103 21.5251 20.9103C21.5651 20.9103 21.6028 20.9086 21.6455 20.9086C21.8312 20.8985 22.0146 20.8911 22.1958 20.8528L22.4997 20.7936C22.4997 20.7936 22.0276 19.5118 23.1653 18.3355C24.02 17.4474 25.0587 17.2963 25.659 17.2963C25.9634 17.2963 26.1525 17.3352 26.1525 17.3352C25.5842 18.0818 25.1723 19.3212 25.8295 20.0859C26.3984 20.7428 27.7859 20.7744 27.7859 21.7534C27.7859 22.169 27.3993 22.6528 26.7061 23.087C24.617 24.4054 22.5447 26.1552 21.6821 28.4982C20.6063 31.4215 21.8205 33.3618 23.5541 34.475C23.5541 34.475 23.0089 34.9757 22.2206 35.04C22.0602 35.0552 21.9049 35.0626 21.7558 35.0626C20.0948 35.0626 19.2351 34.281 19.2351 34.281C19.2351 34.281 19.378 35.3609 20.2377 36.3641C21.0412 37.2889 22.0878 37.8347 23.6874 37.8573C23.6874 37.8573 23.7381 38.6005 23.0308 39.2439C22.5767 39.651 21.5307 39.7824 21.5307 39.7824C21.5307 39.7824 23.4911 40.1806 23.7066 43.0796C23.8236 44.6512 24.2214 45.197 24.2214 45.197H24.1888ZM24.6721 44.8846C24.6704 44.8795 24.3531 44.3828 24.2512 43.0407C24.1325 41.4324 23.526 40.4941 22.9267 39.955C23.1 39.8727 23.2604 39.7717 23.3954 39.6488C24.2754 38.8559 24.2383 37.9233 24.2321 37.8217L24.1983 37.3187L23.6942 37.3109C22.3517 37.2889 21.4137 36.8868 20.653 36.0032C20.4763 35.7956 20.3334 35.5887 20.2175 35.3868C20.6361 35.5148 21.1487 35.6101 21.7558 35.6101C21.9184 35.6101 22.0878 35.6005 22.2667 35.5887C23.212 35.5075 23.8517 34.9436 23.9226 34.881L24.4459 34.3994L23.8489 34.0148C22.5126 33.1588 21.147 31.5354 22.1958 28.6888C22.8755 26.8381 24.4459 25.1616 26.9987 23.555C27.8602 23.0092 28.3317 22.3669 28.3317 21.7534C28.3317 20.8054 27.5417 20.4316 26.9622 20.1648C26.6797 20.0295 26.3854 19.8953 26.2425 19.7289C25.7935 19.2079 26.1716 18.2098 26.5885 17.669L27.1231 16.9675L26.2577 16.7961C26.2324 16.7933 26.0056 16.751 25.659 16.751C25.0131 16.751 23.7797 16.9077 22.7725 17.9532C21.933 18.8233 21.8228 19.7487 21.8661 20.347C21.7851 20.3537 21.7035 20.3571 21.6174 20.3616H21.5251C20.2614 20.3616 19.6644 19.0201 19.6413 18.9677L19.2863 18.1297L18.7107 18.8363C18.6786 18.8791 17.838 19.9291 18.0428 21.2453C18.1784 22.1205 18.727 22.8744 19.6683 23.4947C19.7707 23.5607 19.8422 23.6171 19.8934 23.6639C18.1165 24.2424 17.1256 25.5112 16.0791 26.8443L15.9283 27.0337C14.3292 29.0734 12.065 29.1337 11.7944 29.1337L11.0229 29.1095L11.2576 29.8454C11.2852 29.935 11.9677 32.022 14.0163 32.022L14.1148 32.0192C14.332 32.013 14.5261 31.9831 14.6988 31.9498C14.6144 33.0878 14.1964 35.1917 12.3137 35.975L11.7387 36.2129L12.0498 36.756C12.0796 36.8056 12.7785 37.9881 14.3607 37.9881C15.0522 37.9858 15.5901 37.8127 15.9924 37.6035C16.0532 38.1184 16.1798 38.7798 16.4268 39.5191C16.9996 41.2272 16.4662 42.4254 16.4459 42.4734L16.1629 43.07L16.8021 43.2397C16.8443 43.2504 17.2376 43.3497 17.7024 43.3497C17.9195 43.3497 18.1204 43.326 18.3022 43.2831C18.7866 43.1687 19.1614 42.9533 19.4461 42.708C19.6194 43.2431 19.917 43.8476 20.4335 44.3828C21.3119 45.2878 22.575 45.744 24.2253 45.744L25.2252 45.7305L24.6721 44.8846Z" fill="black"/>
<path fill-rule="evenodd" clip-rule="evenodd" d="M15.0703 23.6569C15.4923 23.2222 15.9362 23.0913 16.32 23.0913C16.9091 23.0913 17.3553 23.4054 17.3553 23.4054C15.7629 24.2558 15.4343 25.6199 14.525 25.9272C14.3748 25.9808 14.219 26.0033 14.0637 26.0033C13.3946 26.0033 12.747 25.5697 12.5259 25.0746C12.5259 25.0746 13.7525 24.9996 15.0703 23.6569ZM14.0637 26.5486C14.2831 26.5486 14.4975 26.5159 14.7 26.4466C15.2711 26.2565 15.6341 25.8026 16.0172 25.3289C16.4094 24.8451 16.8494 24.2981 17.6135 23.8904L18.3996 23.468L17.6698 22.9538C17.609 22.9154 17.0615 22.5449 16.32 22.5449C15.7111 22.5449 15.1462 22.7942 14.6803 23.2707C13.546 24.4312 12.5298 24.5242 12.4933 24.5253L11.7021 24.5722L12.0268 25.2996C12.3537 26.0248 13.2107 26.5486 14.0637 26.5486Z" fill="black"/>
<path fill-rule="evenodd" clip-rule="evenodd" d="M17.6348 32.903C17.5499 30.8413 18.0782 29.1705 18.9048 27.7929C18.4439 29.2275 18.5064 30.984 20.0762 32.6244C20.0762 32.6244 16.9546 28.8767 21.3192 25.0348C23.064 23.5726 24.9737 22.6698 25.9567 22.0304C22.4045 23.192 20.6698 21.9131 20.6698 21.9131C21.8031 22.8988 23.2727 22.8819 24.1837 22.7398C23.9373 22.8604 23.6784 22.9862 23.4033 23.1356C20.406 24.7664 17.7153 27.45 17.2539 31.1662V31.138C16.5579 34.787 15.0083 35.7236 15.0083 35.7236C16.2411 35.114 17.0176 33.4968 17.2066 32.9143C17.4126 36.1217 18.974 38.3469 20.7998 40.4897C21.7474 41.6006 22.081 42.6805 22.081 42.6805C22.081 42.6805 21.8959 41.4568 21.0733 40.461C19.3723 38.41 17.7541 35.8556 17.6348 32.903Z" fill="black"/>
<path fill-rule="evenodd" clip-rule="evenodd" d="M31.561 25.3838V26.1208C31.8155 25.8112 32.3046 25.8744 32.3046 25.8744V26.9368C32.3046 26.9368 32.2883 27.4595 32.1025 27.6856H33.1636C32.9801 27.4595 32.9621 26.9368 32.9621 26.9368V25.8744C32.9621 25.8744 33.4529 25.8112 33.7051 26.1208V25.3838H31.561Z" fill="black"/>
<path fill-rule="evenodd" clip-rule="evenodd" d="M31.1057 21.0143C31.4451 21.2838 31.641 21.329 31.6472 21.3329L31.78 21.3944V20.7008L30.5332 20.1758C30.5332 20.1758 30.5439 20.5778 31.1057 21.0143Z" fill="black"/>
<path fill-rule="evenodd" clip-rule="evenodd" d="M34.0691 21.0143C34.6326 20.5778 34.6433 20.1758 34.6433 20.1758L33.3965 20.7008V21.3944L33.5282 21.3329C33.535 21.329 33.7303 21.2838 34.0691 21.0143Z" fill="black"/>
<path fill-rule="evenodd" clip-rule="evenodd" d="M32.5873 19.1655L29.5855 17.9768C29.8409 17.3711 31.018 16.8557 32.5873 16.854C34.1588 16.8557 35.3359 17.3711 35.5902 17.9768L32.5873 19.1655ZM34.8256 22.8889L32.8079 23.9547V19.6397L35.5458 18.7081L34.8256 22.8889ZM36.0753 24.0342L36.998 24.571H37.011L37.2428 24.7069C36.7218 24.8513 36.324 25.1124 35.9897 25.4552C35.9774 25.4659 35.9667 25.4784 35.9532 25.4913C35.8766 25.5731 35.8007 25.6611 35.7275 25.7524C35.7146 25.7693 35.7 25.7874 35.6848 25.8077C35.6139 25.8996 35.5458 25.9943 35.4816 26.0919C35.471 26.1088 35.4586 26.1257 35.4473 26.1421C35.3714 26.2565 35.2977 26.3783 35.2251 26.5047C34.5679 27.6392 33.5196 28.317 32.5873 28.3187C31.6561 28.317 30.6073 27.6392 29.9512 26.5047C29.8797 26.3817 29.8077 26.2627 29.7318 26.1471C29.7166 26.1257 29.7031 26.1032 29.689 26.0845C29.6249 25.9904 29.5596 25.8979 29.4943 25.8111C29.4774 25.7874 29.4622 25.7693 29.4454 25.749C29.3739 25.6611 29.3008 25.5742 29.2265 25.4941C29.2107 25.4812 29.2 25.4659 29.1865 25.453C28.8506 25.1096 28.4539 24.8513 27.9324 24.7069L28.1664 24.571H28.1771L29.1016 24.0342L30.0497 23.49L32.5828 24.8722L32.5873 24.8665L32.5946 24.8722L35.1272 23.49L36.0753 24.0342ZM39.7151 27.8727C39.5086 28.4191 39.3376 29.0106 39.3376 29.5988L39.3393 33.3961C38.5476 33.263 38.4542 32.4087 38.4508 32.3715L38.4362 32.1978L38.2657 32.1826C37.9219 32.1493 37.6935 32.0038 37.5011 31.8166C37.1128 31.4275 37.1123 30.7971 37.1128 30.7914C37.1072 30.8236 36.6857 31.4157 37.1753 32.0625C37.3812 32.3348 37.68 32.5029 38.066 32.5689C38.1566 33.0425 38.5088 33.7119 39.3393 33.814V35.6726H37.0031C35.9261 35.0715 36.3825 34.0147 36.4033 33.969L36.4944 33.7688L36.2885 33.6905C35.1215 33.2568 35.4434 32.0907 35.4586 32.0405L35.5058 31.8702L35.3466 31.7952C34.3839 31.3474 34.5139 30.1424 34.5268 30.0916C34.2303 30.333 34.1239 30.8236 34.3276 31.3052C34.2173 31.432 34.0694 31.5843 33.9067 31.7529C32.9091 31.498 32.8782 30.5794 32.8782 30.5371L32.8759 30.3956L32.7448 30.3448C32.3555 30.2005 32.0882 29.9834 31.956 29.6924C31.8086 29.3698 31.8603 29.0321 31.9008 28.8691C32.0151 28.8956 32.1287 28.9131 32.2373 28.9227C32.3498 28.9339 32.4646 28.9413 32.5805 28.9413H32.5963C32.7116 28.9413 32.8259 28.9339 32.9384 28.9227C33.5601 28.8606 34.2556 28.5933 34.9809 27.8727H39.7151ZM36.796 44.421L37.0571 43.0586C37.0706 42.9785 37.0875 42.8849 37.0987 42.8065C37.173 42.8375 37.2501 42.8623 37.3345 42.8781C37.4324 42.8967 37.5219 42.9063 37.6035 42.9063C38.0018 42.9063 38.2342 42.6965 38.3884 42.5172L38.5881 42.2838L38.4249 42.0272C38.4103 42.0018 38.048 41.4283 37.77 41.0359C37.7149 40.9586 37.6631 40.8819 37.6102 40.799C37.2934 40.3242 36.8973 39.7293 36.1023 39.7293L36.0314 39.731C35.9008 39.7394 35.7883 39.7654 35.6971 39.7998C35.4473 39.6831 35.1896 39.6221 34.9218 39.6221C34.5926 39.6221 34.3169 39.7129 34.1324 39.7755C34.0795 39.7908 34.0322 39.8077 33.9951 39.815L32.5096 39.6684C32.4911 39.6644 32.4309 39.6289 32.3566 39.5415V39.5342L32.6779 39.405C32.5873 38.3319 31.5593 37.6722 30.9865 37.4483C30.9617 37.3412 30.91 37.234 30.82 37.1466L30.5009 36.8432L30.2202 37.1805L30.0823 37.3519L28.0021 36.4959L29.3553 38.1983L28.8214 39.0092C28.6261 39.2167 28.8416 39.4259 28.8416 39.4259L29.3936 39.8065L29.9653 39.5928C29.985 39.5928 30.0024 39.5973 30.0221 39.5996C29.994 39.6864 29.9579 40.0282 29.9343 40.1235L28.9418 39.9283L27.8992 40.5182C27.3629 40.9129 27.2898 41.5654 27.489 42.0125L27.6043 42.2657L27.7686 42.6238L28.1338 42.4727C28.1389 42.471 28.1439 42.4693 28.1473 42.4665C28.0162 42.8866 28.0696 43.2858 28.3031 43.5475L28.5248 43.8266L28.8197 44.1999L29.1432 43.8514C29.2377 43.7567 29.5472 43.4099 29.6417 43.1133L29.7121 42.8866L29.5545 42.7123L29.5281 42.6808L29.7059 42.387L31.0011 42.6932L31.2932 42.7603L31.4479 42.5037L31.5323 42.3644C31.5486 42.3345 31.552 42.33 31.6122 42.33C31.6583 42.33 31.7039 42.3345 31.7534 42.3458C32.2424 42.4383 32.6931 42.484 33.0931 42.484C33.4814 42.484 33.7137 42.4693 33.99 42.3774C33.99 42.3774 34.6855 43.1691 34.7097 43.1995L34.2832 44.5168L34.2646 44.5963C33.4577 44.6617 33.065 44.8394 32.5901 45.3142C31.9008 44.629 31.4124 44.5569 29.5596 44.5569C27.3416 44.5569 25.8381 43.2537 25.8381 41.1718V36.0825H39.3393L39.3421 41.1718C39.3421 42.8589 38.3535 44.0369 36.796 44.421ZM28.4804 41.5434L28.5507 41.7193C28.504 41.8732 27.9774 42.0909 27.9774 42.0909L27.8637 41.8411C27.7427 41.5749 27.7686 41.1261 28.1355 40.8515L28.9896 40.3304L29.8955 40.5227C29.8786 40.8109 30.0502 41.0263 30.0502 41.0263L29.1016 40.8436L28.5338 41.2366C28.4371 41.3043 28.4303 41.4283 28.4804 41.5434ZM36.6531 42.9819L36.3622 44.5039C36.1754 44.5304 35.9796 44.5439 35.777 44.5518L36.0843 43.089C36.1754 42.6543 35.0107 42.5189 34.4351 41.664C34.1543 41.9804 33.6254 42.0751 33.0931 42.0751C32.6081 42.0751 32.1237 41.9979 31.8288 41.9392C31.754 41.9274 31.6825 41.9189 31.6122 41.9189C31.4423 41.9189 31.287 41.9719 31.1795 42.1518L31.0951 42.295L29.5078 41.9206L29.1128 42.5759C29.0577 42.6824 29.0532 42.7715 29.1432 42.8708L29.2501 42.9881C29.1764 43.2198 28.8461 43.5706 28.8461 43.5706L28.6104 43.2751C28.4236 43.0659 28.4539 42.6824 28.6486 42.3278L29.2782 41.2625L30.623 41.4571L30.4143 40.98C30.1335 40.3485 30.5617 39.546 30.6073 39.0836C30.5915 39.2235 30.4632 39.2551 30.3147 39.2551C30.1791 39.2551 30.0277 39.2291 29.927 39.2291C29.8871 39.2291 29.8533 39.2331 29.8353 39.2466L29.4707 39.4682L29.1837 39.2133C29.1488 39.1648 29.1381 39.0498 29.222 38.9641L29.8871 38.2163L29.1016 37.2961L30.2016 37.8504L30.5381 37.4421C30.6303 37.5329 30.5898 37.7697 30.5898 37.7697C30.933 37.7782 31.8963 38.3116 31.9475 39.5579C31.9504 39.5962 31.9503 39.6385 31.9503 39.6797C31.9503 39.6797 31.9594 39.6955 31.9762 39.7208C32.0438 39.815 32.2322 40.0552 32.4703 40.0772L33.9911 40.2283H33.9973C34.1639 40.2283 34.4959 40.0321 34.9218 40.0321C35.1542 40.0321 35.4119 40.0913 35.687 40.265C35.687 40.265 35.826 40.155 36.0499 40.1438C36.0668 40.1415 36.0865 40.1415 36.1023 40.1415C36.7842 40.1415 37.0678 40.7595 37.4341 41.2727C37.7092 41.664 38.0772 42.2437 38.0772 42.2437C37.9416 42.405 37.8156 42.4952 37.6035 42.4952C37.5455 42.4952 37.4797 42.4907 37.4076 42.4761C36.6756 42.3407 36.5704 40.8334 36.1529 40.7144C36.1304 40.7082 36.1079 40.706 36.0865 40.706C35.952 40.706 35.8935 40.8255 35.8935 40.8255C36.0843 41.3398 35.9723 41.5473 36.1782 41.9432C36.3313 42.237 36.6042 42.4783 36.7161 42.5928C36.7161 42.5928 36.6857 42.8155 36.6531 42.9819ZM35.2532 44.5619C35.0484 44.5619 34.8599 44.5648 34.6905 44.5715L35.1362 43.1809C35.2054 42.9881 34.8537 42.7405 34.708 42.5234C34.9274 42.6616 35.4963 42.9644 35.7697 43.0851C35.7422 43.1302 35.2532 44.5619 35.2532 44.5619ZM28.6289 32.0309L28.6925 29.6134L29.2338 29.0394L29.5736 29.7527L28.9035 32.0732L28.6289 32.0309ZM29.0183 32.7798C29.1066 32.9658 29.2659 33.0899 29.3778 33.1604C29.3739 33.3352 29.3576 33.6053 29.312 33.8444C29.3008 33.898 29.2873 33.947 29.2726 33.9961C29.2647 34.0271 29.2557 34.0525 29.2496 34.0728C29.0836 34.0728 28.7595 34.0525 28.4933 33.9555C28.1991 33.8467 27.7602 33.3059 27.8615 32.7093C27.9886 32.6315 28.2835 32.4651 28.5597 32.4651C28.7718 32.4651 28.917 32.5655 29.0183 32.7798ZM35.2881 33.4294C34.8717 33.7367 33.7993 34.5217 33.4099 34.794L29.6654 34.1196C29.6744 34.0863 29.6834 34.0525 29.6912 34.0198C29.7402 33.8247 29.7908 33.5591 29.7931 33.2461L32.9406 33.2969L33.0008 33.2354C33.0487 33.1875 34.0457 32.2221 34.5538 31.6666C34.6748 31.8189 34.8256 31.9638 35.0242 32.0907C34.9567 32.4606 34.9854 32.9861 35.2881 33.4294ZM30.196 27.8727C30.6461 28.321 31.0867 28.5996 31.5053 28.7529C31.4513 28.9695 31.3798 29.4161 31.5812 29.861C31.7461 30.2196 32.0449 30.496 32.477 30.6804C32.5243 31.1241 32.8045 31.7912 33.5781 32.085C33.2389 32.4279 32.9091 32.751 32.7758 32.8813L29.635 32.8316C29.5641 32.7961 29.442 32.7155 29.388 32.6021C29.3818 32.5858 29.3717 32.5773 29.3649 32.5615L29.8775 32.6444C29.8882 32.6461 29.8994 32.6461 29.9101 32.6461C30.0092 32.6461 30.0952 32.5773 30.1116 32.4753C30.1284 32.3619 30.053 32.257 29.9422 32.2395L29.312 32.1397L30.0108 29.7183L29.3486 28.321L28.2868 29.446L28.2216 31.9638L27.5081 31.8499C27.3978 31.8285 27.2926 31.9091 27.2729 32.0213C27.256 32.1318 27.3314 32.2373 27.4434 32.257L27.7427 32.3027C27.6358 32.3636 27.5649 32.4121 27.5565 32.4189L27.4963 32.4612L27.4794 32.5362C27.3061 33.2427 27.6983 33.9132 28.1225 34.2132L28.1073 34.3023C28.0899 34.4111 28.1147 34.5171 28.1799 34.6057C28.2418 34.6965 28.3358 34.7506 28.4427 34.7698C28.4646 34.7737 28.4883 34.7754 28.5085 34.7754C28.6925 34.7754 28.8529 34.648 28.8979 34.4619C29.0554 34.4805 29.2 34.4844 29.2991 34.4844H29.3835L33.5039 35.231L33.5742 35.1842C33.9022 34.9542 35.1542 34.0401 35.5644 33.7373C35.6775 33.8348 35.8035 33.9228 35.956 33.9961C35.8226 34.4421 35.8147 35.1295 36.3397 35.6726H25.8381V29.5988C25.8381 29.0106 25.6665 28.4191 25.4634 27.8727H30.196ZM29.6282 18.7081L32.3684 19.6397V23.9547L30.3507 22.8889L29.6282 18.7081ZM36.3138 18.1877C36.3138 17.1349 34.5454 16.1875 32.5935 16.1875H32.5828C30.6309 16.1875 28.8624 17.1349 28.8624 18.1877L28.9013 18.4465L29.6806 22.9301L28.8979 23.3857L26.8723 24.571H26.8796C26.8796 24.571 26.4238 24.8056 26.2128 24.95C25.4414 25.4868 25.2777 26.2701 25.7256 26.5938C25.8359 25.9549 26.3394 25.2878 27.283 25.2878C27.9622 25.2878 28.4804 25.6391 28.8979 26.1658C29.0059 26.2988 29.1078 26.4409 29.2029 26.5938C29.3199 26.7866 29.438 26.9558 29.5545 27.1187H24.3369C24.7207 27.8913 25.0853 28.7095 25.0853 29.5988V41.1718C25.0853 43.9732 27.2346 45.3102 29.5596 45.3102C31.3567 45.3102 31.5987 45.2279 32.5901 46.2181C33.577 45.2279 33.8195 45.3102 35.6178 45.3102C37.9444 45.3102 40.091 43.9732 40.091 41.1718V29.5988C40.091 28.7095 40.4551 27.8913 40.8405 27.1187H35.6212C35.7377 26.9558 35.8553 26.7866 35.9723 26.5938C36.0691 26.4409 36.1703 26.2988 36.2761 26.1658C36.6976 25.6368 37.2141 25.2878 37.8938 25.2878C38.8363 25.2878 39.3393 25.9549 39.4513 26.5938C39.8991 26.2701 39.7371 25.4868 38.9612 24.95C38.7535 24.8056 38.2972 24.571 38.2972 24.571H38.3045L36.2761 23.3857L35.4963 22.9301L36.2761 18.4465L36.3138 18.1877Z" fill="black"/>
</svg>
