<svg width="50" height="50" viewBox="0 0 50 50" fill="none" xmlns="http://www.w3.org/2000/svg">
<rect width="50" height="50" rx="25" fill="#CEC7E6"/>
<rect width="50" height="50" rx="25" fill="url(#paint0_linear_912_30797)" fill-opacity="0.74"/>
<path d="M18.7651 36.449H31.6509C33.1902 36.449 34.2375 35.592 34.2375 34.1003C34.2375 32.6086 33.2219 31.7517 31.6509 31.7517H22.7483V31.6248L32.73 18.3582C33.1743 17.7551 33.5869 17.168 33.5869 16.2634C33.5869 14.5972 32.4602 13.5498 30.667 13.5498H18.3367C16.7656 13.5498 15.75 14.4067 15.75 15.8984C15.75 17.3901 16.7815 18.2471 18.3367 18.2471H26.7473V18.374L16.6704 31.6882C16.0991 32.4341 15.8611 33.053 15.8611 33.8464C15.8611 35.4333 17.0195 36.449 18.7651 36.449Z" fill="white"/>
<path d="M24 9.75C24 9.19771 24.4477 8.75 25 8.75C25.5523 8.75 26 9.19772 26 9.75V13.55H24V9.75Z" fill="white"/>
<path d="M24 40.25C24 40.8023 24.4477 41.25 25 41.25C25.5523 41.25 26 40.8023 26 40.25V36.45H24V40.25Z" fill="white"/>
<defs>
<linearGradient id="paint0_linear_912_30797" x1="49.8649" y1="50.1845" x2="20.0484" y2="-9.94192" gradientUnits="userSpaceOnUse">
<stop stop-color="#B200DF"/>
<stop offset="0.0001" stop-color="#2CFFB3"/>
<stop offset="1" stop-color="#0400DF"/>
</linearGradient>
</defs>
</svg>
